<?xml version="1.0" encoding="UTF-8" standalone="no"?>
<!-- Created with Inkscape (http://www.inkscape.org/) -->

<svg
   xmlns:dc="http://purl.org/dc/elements/1.1/"
   xmlns:cc="http://creativecommons.org/ns#"
   xmlns:rdf="http://www.w3.org/1999/02/22-rdf-syntax-ns#"
   xmlns:svg="http://www.w3.org/2000/svg"
   xmlns="http://www.w3.org/2000/svg"
   xmlns:sodipodi="http://sodipodi.sourceforge.net/DTD/sodipodi-0.dtd"
   xmlns:inkscape="http://www.inkscape.org/namespaces/inkscape"
   width="1541"
   height="1541"
   viewBox="0 0 407.72291 407.72293"
   version="1.1"
   id="svg8"
   inkscape:version="0.92.3 (2405546, 2018-03-11)"
   sodipodi:docname="404.svg">
  <defs
     id="defs2" />
  <sodipodi:namedview
     id="base"
     pagecolor="#ffffff"
     bordercolor="#666666"
     borderopacity="1.0"
     inkscape:pageopacity="0.0"
     inkscape:pageshadow="2"
     inkscape:zoom="0.35"
     inkscape:cx="136.59628"
     inkscape:cy="554.09039"
     inkscape:document-units="mm"
     inkscape:current-layer="layer1"
     showgrid="false"
     inkscape:window-width="1920"
     inkscape:window-height="1017"
     inkscape:window-x="-8"
     inkscape:window-y="-8"
     inkscape:window-maximized="1"
     units="px" />
  <metadata
     id="metadata5">
    <rdf:RDF>
      <cc:Work
         rdf:about="">
        <dc:format>image/svg+xml</dc:format>
        <dc:type
           rdf:resource="http://purl.org/dc/dcmitype/StillImage" />
        <dc:title></dc:title>
      </cc:Work>
    </rdf:RDF>
  </metadata>
  <g
     inkscape:label="Capa 1"
     inkscape:groupmode="layer"
     id="layer1"
     transform="translate(0,110.72293)">
    <path
       style="opacity:1;fill:#ff0000;fill-opacity:1;stroke:#00ffff;stroke-width:0.52487642;stroke-miterlimit:4;stroke-dasharray:none;stroke-opacity:1"
       d="m 4.6518838,206.60242 c 0.00947,-0.91723 0.4662969,-1.39057 1.9467921,-2.0171 l 1.3945199,-0.59018 v -13.46229 c 0,-8.55708 -0.1402656,-13.72867 -0.3849549,-14.19339 -0.247709,-0.47043 -0.7780422,-0.7311 -1.4874899,-0.7311 -0.9771198,0 -1.1025322,-0.12898 -1.1025322,-1.13392 0,-0.64513 0.2003792,-1.14205 0.4648417,-1.15274 0.2556613,-0.0103 2.8076338,-0.006 5.6710495,0.0101 4.358645,0.0243 5.35756,0.13822 6.135891,0.69993 4.165508,3.00622 4.15111,17.34859 -0.01963,19.54077 -0.582486,0.30615 -1.390141,0.55666 -1.794786,0.55666 -0.692305,0 -0.736489,0.27326 -0.748682,4.63021 -0.0071,2.54661 0.111567,4.83497 0.263767,5.08526 0.152201,0.25027 0.940989,0.67622 1.752863,0.94657 1.155197,0.38468 1.476136,0.68154 1.476136,1.36547 v 0.87392 l -6.786824,0.0694 c -5.8174144,0.0595 -6.7859881,-0.0116 -6.7809746,-0.49758 z M 17.286519,190.16045 c 0.708599,-1.43153 0.762589,-9.10183 0.08036,-11.41677 -0.509462,-1.72871 -1.405573,-2.87396 -2.072371,-2.64854 -0.432816,0.14632 -0.82993,13.87621 -0.431846,14.93063 0.330337,0.87497 1.826876,0.3407 2.423857,-0.86532 z"
       id="path1785"
       inkscape:connector-curvature="0" />
    <path
       style="opacity:1;fill:#ff0000;fill-opacity:1;stroke:#00ffff;stroke-width:0.52916664;stroke-miterlimit:4;stroke-dasharray:none;stroke-opacity:1"
       d="m 37.003868,277.93568 v -4.91369 h 0.954391 c 0.758053,0 1.001043,-0.23328 1.181174,-1.13392 l 0.226788,-1.13395 h 4.240895 c 3.760872,0 4.318336,-0.0856 4.925026,-0.75594 0.376272,-0.41577 0.492858,-0.75594 0.25908,-0.75594 -0.243258,0 -0.403778,-0.56582 -0.375314,-1.32292 0.04159,-1.10633 0.189364,-1.32292 0.902517,-1.32292 1.505805,0 2.048539,-0.41129 2.048539,-1.55236 0,-0.71998 0.193646,-1.09347 0.566965,-1.09347 0.33963,0 0.566963,0.34856 0.566963,0.86934 0,1.15655 0.678995,1.77649 1.945724,1.77649 0.986399,0 1.044321,0.0997 1.152827,1.98438 l 0.114247,1.98437 4.630208,0.10613 4.630208,0.10612 v 1.12228 c 0,0.94515 0.149167,1.12231 0.944941,1.12231 h 0.944941 v 4.91369 4.91368 H 51.933929 37.003868 Z"
       id="path849"
       inkscape:connector-curvature="0" />
    <path
       style="opacity:1;fill:#ff0000;fill-opacity:1;stroke:#00ffff;stroke-width:0.52916664;stroke-miterlimit:4;stroke-dasharray:none;stroke-opacity:1"
       d="m 271.4488,268.59303 c 0.57454,-0.0869 1.42499,-0.0846 1.88988,0.005 0.46488,0.0897 -0.005,0.16078 -1.04464,0.15795 -1.03943,-0.003 -1.41979,-0.0763 -0.84524,-0.16311 z"
       id="path853"
       inkscape:connector-curvature="0" />
    <path
       style="opacity:1;fill:#ff0000;fill-opacity:1;stroke:#00ffff;stroke-width:0.52916664;stroke-miterlimit:4;stroke-dasharray:none;stroke-opacity:1"
       d="m 9.789583,258.46843 v -0.94348 H 202.17946 394.56934 v 0.94568 0.94567 l -192.38988,-0.003 -192.389877,-0.003 z"
       id="path857"
       inkscape:connector-curvature="0" />
    <path
       style="opacity:1;fill:#ff0000;fill-opacity:1;stroke:#00ffff;stroke-width:0.52916664;stroke-miterlimit:4;stroke-dasharray:none;stroke-opacity:1"
       d="m 222.43207,250.43729 c -0.12093,-0.12091 -0.21987,-2.48771 -0.21987,-5.25954 v -5.03968 h 1.13393 c 1.00532,0 1.13393,-0.12729 1.13393,-1.12231 v -1.12228 l 4.6302,-0.10613 4.63021,-0.10615 0.11425,-1.98437 0.11425,-1.98438 h 1.30316 c 1.19598,0 1.30317,-0.0933 1.30317,-1.13392 0,-0.95753 0.14699,-1.13393 0.94494,-1.13393 0.79794,0 0.94494,0.1764 0.94494,1.13393 0,1.00795 0.12599,1.13392 1.13392,1.13392 1.2165,0 1.19645,-0.0493 1.23027,3.02382 0.0103,0.93549 0.0924,1.48722 0.18246,1.22608 0.0901,-0.26117 0.33497,-0.36902 0.54424,-0.23966 0.20928,0.12933 2.32087,0.20643 4.69242,0.17134 l 4.31192,-0.0638 v 1.15392 c 0,0.97886 0.14336,1.15393 0.94494,1.15393 h 0.94494 v 5.28624 5.28625 l -14.89917,-0.0267 c -8.19454,-0.0146 -14.99811,-0.12563 -15.11905,-0.24657 z"
       id="path859"
       inkscape:connector-curvature="0" />
    <path
       style="opacity:1;fill:#ff0000;fill-opacity:1;stroke:#00ffff;stroke-width:0.52487642;stroke-miterlimit:4;stroke-dasharray:none;stroke-opacity:1"
       d="m 239.29769,207.46941 c 0,-3.2168 0.007,-3.23908 0.94471,-3.23908 0.94411,0 0.94466,0.003 0.83672,3.1183 -0.1007,2.90724 -0.16464,3.12647 -0.94472,3.23908 -0.81186,0.11718 -0.83671,0.0246 -0.83671,-3.1183 z"
       id="path861"
       inkscape:connector-curvature="0" />
    <path
       style="opacity:1;fill:#ff0000;fill-opacity:1;stroke:#00ffff;stroke-width:0.52916664;stroke-miterlimit:4;stroke-dasharray:none;stroke-opacity:1"
       d="m 21.884822,21.176455 c 0,-2.54947 -0.392962,-3.288393 -1.748774,-3.288393 -0.483719,0 -0.915141,-0.281292 -1.014487,-0.661458 -0.164626,-0.62996 -0.174945,-0.62996 -0.216704,0 -0.03388,0.511109 -0.383738,0.661458 -1.53919,0.661458 H 15.870319 L 15.759268,15.147736 15.648215,12.407406 12.718899,12.297014 9.789583,12.186619 V 4.0760318 -4.0345558 h 2.846684 c 3.286297,0 3.277677,0.00908 3.345198,-3.5205908 l 0.04472,-2.3380409 2.456845,-0.00532 c 1.351266,-0.00291 2.65154,-0.1294555 2.889501,-0.2811805 0.237958,-0.151728 0.433964,-1.169871 0.435567,-2.262542 0.0016,-1.092671 0.01953,-2.284333 0.03982,-2.648135 0.03444,-0.617205 0.959903,-0.661459 13.833033,-0.661459 h 13.796131 v 2.456847 2.456844 H 38.184079 c -8.574437,0 -11.386881,0.113739 -11.682971,0.472472 -0.214482,0.259858 -0.384657,1.2378715 -0.378169,2.1733614 0.02233,3.2190902 0.195781,3.0238091 -2.685775,3.0238091 -2.027097,0 -2.656316,0.1327071 -2.83482,0.597879 -0.126185,0.3288321 -0.229428,4.39277912 -0.229428,9.0309884 0,9.5710451 -0.259067,8.8919661 3.39226,8.8919661 2.507832,0 2.560646,0.06419 2.488065,3.023809 -0.02804,1.143378 0.125698,2.203833 0.341638,2.356564 0.215942,0.152731 2.94396,0.277693 6.062263,0.277693 3.118305,0 5.859169,-0.124962 6.090811,-0.277693 C 39.349454,18.336121 39.371015,7.3406091 38.771395,6.7773985 38.52686,6.5477111 37.221204,6.3597855 35.86994,6.3597855 H 33.413096 L 33.300368,3.989865 33.187642,1.6199445 l 8.050226,0.102063 8.050228,0.102063 0.10029,10.8668155 0.100291,10.866816 H 35.686748 21.884822 Z"
       id="path863"
       inkscape:connector-curvature="0" />
    <path
       style="opacity:1;fill:#ff0000;fill-opacity:1;stroke:#00ffff;stroke-width:0.52916664;stroke-miterlimit:4;stroke-dasharray:none;stroke-opacity:1"
       d="m 74.698563,-10.354973 c 0.670996,-0.0835 1.861621,-0.08487 2.645833,-0.003 0.784212,0.08182 0.235217,0.15014 -1.219991,0.151815 -1.455209,0.0016 -2.096839,-0.06527 -1.425842,-0.148767 z"
       id="path865"
       inkscape:connector-curvature="0" />
    <path
       style="opacity:1;fill:#ff0000;fill-opacity:1;stroke:#00ffff;stroke-width:0.52916664;stroke-miterlimit:4;stroke-dasharray:none;stroke-opacity:1"
       d="m 56.587267,10.80101 c -0.06469,-7.0161839 -0.0558,-13.2244439 0.01976,-13.7961317 0.132019,-0.9987703 0.223226,-1.0394341 2.331437,-1.0394341 3.322521,0 3.389799,-0.060005 3.389799,-3.0232747 0,-2.4535447 0.04295,-2.5751975 0.993452,-2.813759 0.546399,-0.1371365 1.478068,-0.1429015 2.070375,-0.012806 2.232906,0.490429 2.605815,0.052798 2.605815,-3.0580695 v -2.809354 h 8.160417 8.160414 l -0.116507,2.55134 c -0.06408,1.403236 0.0059,2.748095 0.155591,2.988574 0.172744,0.27758 1.171469,0.3982618 2.735167,0.3305046 1.412354,-0.061201 2.566456,0.060553 2.705426,0.2854113 0.133297,0.2156778 0.267703,1.5127076 0.298683,2.8822915 l 0.05632,2.4901524 2.907361,0.1103948 2.907363,0.1103921 V 9.7774745 23.557705 h -5.281562 -5.281562 l -0.104601,-5.57515 -0.104597,-5.575149 -8.856406,-0.101626 c -5.052703,-0.05798 -9.006102,0.04806 -9.204952,0.246914 -0.191698,0.191699 -0.322987,2.746248 -0.291753,5.676776 l 0.05679,5.328235 H 61.802194 56.704888 Z M 85.299689,1.1626148 85.195832,-4.9794967 82.455505,-5.0905502 79.715179,-5.2016038 v -2.5888341 c 0,-3.0512071 0.0046,-3.0476901 -3.999664,-3.0476901 -1.958144,0 -2.822572,0.142515 -2.865781,0.472471 -0.03403,0.259858 -0.09432,1.152827 -0.133972,1.9843754 -0.165944,3.4797417 0.11109,3.1677954 -2.922458,3.2907314 l -2.740329,0.1110535 -0.103857,6.1421115 -0.103857,6.1421142 h 9.279144 9.279141 z"
       id="path867"
       inkscape:connector-curvature="0" />
    <path
       style="opacity:1;fill:#ff0000;fill-opacity:1;stroke:#00ffff;stroke-width:0.52916664;stroke-miterlimit:4;stroke-dasharray:none;stroke-opacity:1"
       d="M 102.77172,3.9029441 V -15.751819 h 5.31091 5.3109 l -0.14009,2.665635 c -0.0857,1.629891 0.017,2.768089 0.26425,2.929315 0.22238,0.145026 1.50991,0.2636815 2.86118,0.2636815 h 2.45684 v 2.8348225 2.8348199 h 3.40179 3.40178 l 0.11025,-2.7003612 c 0.0933,-2.2853253 0.22096,-2.7293147 0.83055,-2.8887261 0.46031,-0.1203749 0.77987,0.03574 0.88534,0.4325037 0.13782,0.5184537 0.17227,0.5068041 0.20889,-0.07062 0.0359,-0.5656713 0.24862,-0.6465143 1.16928,-0.4443042 2.28901,0.5027507 2.64948,0.083 2.69817,-3.1419081 0.0241,-1.597115 0.12163,-2.606188 0.2167,-2.242386 0.0951,0.363802 0.34868,0.661458 0.56356,0.661458 0.21489,0 0.28994,-0.26258 0.16679,-0.583509 -0.19542,-0.509263 0.40063,-0.576408 4.68426,-0.527699 l 4.90818,0.05581 V 3.9422109 23.557705 h -5.29167 -5.29167 V 15.060442 6.5631786 l -0.8621,-0.2163762 c -0.47416,-0.1190043 -1.96244,-0.1647693 -3.30729,-0.1016953 l -2.44519,0.114681 -0.11039,2.9293158 -0.1104,2.9293161 h -2.25195 -2.25196 V 9.6481806 c 0,-1.4951049 -0.18973,-2.7599666 -0.45357,-3.0238091 -0.65411,-0.6541082 -5.84447,-0.6058641 -6.23673,0.05797 -0.16624,0.2813473 -0.55739,0.6080971 -0.86922,0.7261119 -0.45115,0.1707382 -0.43185,0.2206678 0.0945,0.2444115 0.60801,0.027429 0.66146,0.6711685 0.66146,7.9673401 v 7.9375 h -5.29167 -5.29167 z m 29.67114,3.0238091 c 0.12848,-0.2078885 0.0535,-0.3779758 -0.16669,-0.3779758 -0.22015,0 -0.40028,0.1700873 -0.40028,0.3779758 0,0.2078857 0.075,0.3779758 0.16668,0.3779758 0.0917,0 0.2718,-0.1700901 0.40029,-0.3779758 z M 103.4079,-15.066736 c -0.12066,-0.301525 -0.21022,-0.21196 -0.22836,0.228359 -0.0164,0.398452 0.0729,0.621694 0.19852,0.496094 0.1256,-0.125598 0.13903,-0.451602 0.0298,-0.724453 z"
       id="path869"
       inkscape:connector-curvature="0" />
    <path
       style="opacity:1;fill:#ff0000;fill-opacity:1;stroke:#00ffff;stroke-width:0.52916664;stroke-miterlimit:4;stroke-dasharray:none;stroke-opacity:1"
       d="M 148.88482,3.9029441 V -15.751819 h 19.65476 19.65476 v 2.456847 2.456844 h -14.36309 -14.3631 v 6.2366071 c 0,4.73163102 0.11402,6.2391739 0.47247,6.2472411 0.25986,0.00585 5.45582,0.00106 11.54658,-0.010398 l 11.07411,-0.021034 -0.1128,2.3727621 -0.1128,2.3727595 -11.1503,0.084595 c -6.13266,0.046527 -11.27786,0.089051 -11.43377,0.094493 -0.15592,0.00545 -0.28349,2.8163731 -0.28349,6.2465082 v 6.236605 h 14.3631 14.36309 v 2.267857 2.267858 h -19.65476 -19.65476 z"
       id="path871"
       inkscape:connector-curvature="0" />
    <path
       style="opacity:1;fill:#ff0000;fill-opacity:1;stroke:#00ffff;stroke-width:0.52916664;stroke-miterlimit:4;stroke-dasharray:none;stroke-opacity:1"
       d="m 222.96815,21.176455 c 0,-1.348116 -0.19679,-2.578037 -0.45357,-2.83482 -0.26384,-0.263843 -1.5287,-0.453573 -3.02381,-0.453573 h -2.57024 V 3.8829786 -10.122105 l 2.59178,0.07568 c 2.85965,0.083497 3.45584,-0.116708 3.45584,-1.160487 0,-0.38618 0.21261,-0.787939 0.47247,-0.892794 0.37798,-0.152516 0.37798,-0.196614 0,-0.220485 -0.30356,-0.01918 -0.47247,-0.637918 -0.47247,-1.730735 v -1.700892 h 13.79613 13.79613 v 2.809351 c 0,3.1953834 0.21112,3.4105955 3.00173,3.0599697 0.87161,-0.1095111 1.92023,-0.019553 2.33029,0.1998927 0.72163,0.3862043 0.74396,0.8206925 0.69623,13.545632 -0.0271,7.2306466 -0.16613,13.3356376 -0.30891,13.5666476 -0.14277,0.231011 -1.4455,0.471173 -2.89497,0.533697 l -2.63538,0.11368 -0.11105,2.740327 -0.11105,2.740327 H 236.74772 222.96815 Z M 245.83571,4.0919306 V -10.649139 l -9.16592,-0.101214 -9.16592,-0.101214 V 4.0919306 19.03543 l 9.16592,-0.101213 9.16592,-0.101214 z"
       id="path873"
       inkscape:connector-curvature="0" />
    <path
       style="opacity:1;fill:#ff0000;fill-opacity:1;stroke:#00ffff;stroke-width:0.52916664;stroke-miterlimit:4;stroke-dasharray:none;stroke-opacity:1"
       d="m 280.51281,21.195354 c 0.11087,-1.299292 0.12129,-2.574962 0.0231,-2.834823 -0.12085,-0.320005 -1.09145,-0.472469 -3.0078,-0.472469 h -2.82938 l 0.0558,-2.362351 c 0.0307,-1.299294 0.0424,-2.574962 0.0261,-2.834822 -0.021,-0.33333 -0.86461,-0.472469 -2.8646,-0.472469 h -2.83482 V 9.4240362 c 0,-3.2260514 -0.0287,-3.2532347 -3.4327,-3.2532347 h -2.23694 V -4.7905101 -15.751819 h 5.09713 5.09714 l 0.10004,11.4337806 0.10003,11.4337781 1.7009,0.2267136 c 0.93549,0.1246928 1.40323,0.252259 1.03943,0.2834825 -0.3638,0.031224 -0.66146,0.226859 -0.66146,0.4347448 0,0.5583793 0.59613,0.4590256 1.13393,-0.1889866 0.2588,-0.31183 0.96896,-0.566965 1.57815,-0.566965 h 1.10761 l -0.0757,2.5917815 c -0.0416,1.4254795 0.0445,2.7861925 0.19134,3.0238095 0.14685,0.237614 0.83981,0.432027 1.5399,0.432027 0.89444,0 1.32429,0.196662 1.44575,0.661459 0.15607,0.597228 0.17712,0.599339 0.2167,0.02172 0.0325,-0.473644 0.46089,-0.669901 1.65025,-0.755954 l 1.6064,-0.116227 0.11099,-2.962481 0.11099,-2.9624813 2.72383,0.1259549 2.72383,0.1259549 0.1,-11.6210634 0.1,-11.6210631 h 5.28621 5.2862 V -4.7905233 6.1707883 h -2.63254 c -3.14755,0 -3.41508,0.2968493 -3.41508,3.7893307 v 2.327127 l -2.36235,-0.118814 c -1.29929,-0.06535 -2.57496,0.01426 -2.83482,0.176877 -0.3042,0.190375 -0.47247,1.230077 -0.47247,2.919214 v 2.623526 h -2.83482 -2.83483 v 2.834822 2.83482 h -2.5115 -2.5115 z"
       id="path875"
       inkscape:connector-curvature="0" />
    <path
       style="opacity:1;fill:#ff0000;fill-opacity:1;stroke:#00ffff;stroke-width:0.52916664;stroke-miterlimit:4;stroke-dasharray:none;stroke-opacity:1"
       d="M 309.5247,3.9029441 V -15.751819 h 19.27678 19.27679 l 0.0377,0.850447 c 0.0361,0.815885 0.05,0.812046 0.3403,-0.09449 0.2197,-0.686033 0.31294,-0.245885 0.34029,1.606397 l 0.0377,2.55134 h -13.79613 c -9.5586,0 -13.79613,-0.124389 -13.79613,-0.404974 0,-0.222737 -0.24747,-0.157501 -0.54994,0.144962 -0.42954,0.429546 -0.56157,1.8480329 -0.60308,6.4794741 -0.0292,3.2612436 0.0292,6.0119021 0.1299,6.1125734 0.10067,0.1006714 5.28231,0.1692963 11.51476,0.1525032 l 11.33173,-0.030533 0.0515,2.2774619 0.0515,2.2774618 -11.05767,0.00579 c -6.08171,0.00318 -11.26969,0.1404303 -11.52884,0.3049932 -0.342,0.2171753 -0.4778,1.9364721 -0.49532,6.2709664 -0.0133,3.284469 0.0506,6.046538 0.14204,6.137933 0.0914,0.0914 6.56507,0.154689 14.38594,0.140658 l 14.21977,-0.02551 v 2.276038 2.276041 H 329.17946 309.5247 Z"
       id="path877"
       inkscape:connector-curvature="0" />
    <path
       style="opacity:1;fill:#ff0000;fill-opacity:1;stroke:#00ffff;stroke-width:0.52916664;stroke-miterlimit:4;stroke-dasharray:none;stroke-opacity:1"
       d="M 355.63779,3.9029441 V -15.751819 h 16.81994 16.81994 v 2.794383 c 0,1.889411 0.15302,2.851529 0.47247,2.9708374 0.25986,0.097052 1.53553,0.129913 2.83483,0.073028 l 2.36235,-0.1034284 v 8.0939006 8.0939003 h -5.16741 c -6.46615,0 -6.43121,-0.02286 -6.17188,4.0352231 l 0.18899,2.957336 1.42533,0.117782 c 0.78392,0.06478 1.32667,0.277391 1.20611,0.472469 -0.12057,0.19508 -0.0391,0.354689 0.18107,0.354689 0.22016,0 0.40029,-0.144205 0.40029,-0.320458 0,-0.176249 0.50305,-0.334758 1.11789,-0.352239 l 1.11788,-0.03178 0.11054,2.714593 0.11053,2.714591 2.74033,0.111054 2.74033,0.11105 v 2.2513 2.251298 h -8.12649 -8.12649 v -2.83482 -2.834823 h -2.85479 -2.85478 l 0.0774,-2.651376 c 0.0426,-1.458256 -0.0313,-2.760131 -0.16426,-2.893055 -0.34904,-0.349041 -6.04913,-0.135665 -6.43235,0.240787 -0.17738,0.174249 -0.29695,2.714524 -0.26572,5.645052 l 0.0568,5.328235 h -5.30943 -5.30943 z m 23.05655,0.5669623 V 1.6350866 h 3.0015 c 2.81365,0 3.97702,-0.3696097 3.02172,-0.96002213 -0.27845,-0.17209293 -0.38001,-2.07453707 -0.30911,-5.79025267 l 0.1056,-5.5339508 -8.78823,-0.188989 c -5.31702,-0.11434 -8.92972,-0.04716 -9.14646,0.17009 -0.20514,0.205621 -0.35823,4.1228086 -0.35823,9.165923 v 8.806844 h 6.2366 6.23661 z m 5.29167,-16.0639864 c 0,-0.207888 -0.17009,-0.377976 -0.37798,-0.377976 -0.20789,0 -0.37798,0.170088 -0.37798,0.377976 0,0.207886 0.17009,0.377976 0.37798,0.377976 0.20789,0 0.37798,-0.17009 0.37798,-0.377976 z"
       id="path879"
       inkscape:connector-curvature="0" />
    <path
       style="opacity:1;fill:#ff0000;fill-opacity:1;stroke:#00ffff;stroke-width:0.52916664;stroke-miterlimit:4;stroke-dasharray:none;stroke-opacity:1"
       d="m 312.78474,-33.122019 c 0.026,-0.840735 0.0685,-1.714323 0.0945,-1.941306 0.0296,-0.258456 0.78888,-0.364403 2.03162,-0.283483 l 1.98438,0.129215 v -2.456844 -2.456844 l -4.25224,-0.106873 -4.25223,-0.106873 v -6.224231 -6.224227 h 2.07887 c 1.14338,0 2.09474,-0.127567 2.11413,-0.283483 0.0194,-0.155913 0.0726,-1.048882 0.11829,-1.984375 l 0.083,-1.700892 3.56698,-0.104995 c 5.32785,-0.156826 5.26788,-0.129968 5.26788,-2.359051 v -1.88268 h 8.12649 8.12648 v 1.849443 c 0,2.327836 0.23658,2.438572 5.00819,2.344213 l 3.68527,-0.07288 v 2.097346 c 0,1.732264 0.11514,2.103395 0.66145,2.132074 0.36381,0.0191 1.34182,0.06603 2.17337,0.104288 l 1.5119,0.06956 0.10386,6.132319 0.10385,6.13232 h -4.35608 c -2.39585,0 -4.3684,0.127566 -4.38344,0.283482 -0.0151,0.155914 -0.083,1.261496 -0.15102,2.456844 l -0.12367,2.173364 h 2.22989 c 1.67184,0 2.22989,0.134004 2.22989,0.535467 0,0.294505 -0.21262,0.621257 -0.47248,0.726112 -0.37797,0.152516 -0.37797,0.196614 0,0.220485 0.26636,0.01683 0.47248,0.524526 0.47248,1.16377 v 1.133927 h -3.77977 -3.77976 v -2.038429 c 0,-2.318028 -0.1433,-2.435635 -2.76735,-2.271213 l -1.82241,0.114192 0.0954,-1.796555 c 0.0524,-0.988105 -0.0305,-2.000155 -0.18428,-2.249001 -0.19184,-0.310404 -1.69656,-0.452445 -4.79303,-0.452445 -2.48237,0 -4.52398,0.04252 -4.53691,0.09449 -0.0129,0.05197 -0.10388,0.859896 -0.20211,1.795388 -0.26614,2.534563 -0.33961,2.62962 -1.93029,2.497466 -2.17913,-0.181041 -2.37981,0.0064 -2.37981,2.222492 v 1.993246 l -3.87426,0.06189 -3.87425,0.06189 z m 1.65365,0.739248 c 0,-0.207885 -0.25513,-0.377975 -0.56696,-0.377975 -0.31183,0 -0.56697,0.17009 -0.56697,0.377975 0,0.207886 0.25514,0.377976 0.56697,0.377976 0.31183,0 0.56696,-0.17009 0.56696,-0.377976 z m 10.84602,-11.882228 c 0.3908,-0.149963 0.50125,-0.779719 0.41777,-2.3818 l -0.11349,-2.177936 h -4.72471 -4.7247 l -0.11531,2.015058 c -0.0634,1.108282 0.0494,2.213862 0.25076,2.456844 0.3693,0.445696 7.88614,0.518975 9.00968,0.08783 z m 17.59895,-2.031614 c 0.10258,-1.182579 0.11273,-2.277713 0.0226,-2.433626 -0.0902,-0.155917 -2.12207,-0.283483 -4.51535,-0.283483 -3.47429,0 -4.47262,0.121198 -4.95269,0.601266 -0.4822,0.482205 -0.50341,0.661741 -0.10709,0.906682 0.3158,0.195175 0.41509,0.700839 0.27508,1.40091 -0.12051,0.60252 -0.0966,1.293741 0.0532,1.536047 0.24827,0.401722 7.46779,0.854554 8.6102,0.540062 0.23517,-0.06474 0.51152,-1.085279 0.6141,-2.267858 z"
       id="path881"
       inkscape:connector-curvature="0" />
    <path
       style="opacity:1;fill:#ff0000;fill-opacity:1;stroke:#00ffff;stroke-width:0.52916664;stroke-miterlimit:4;stroke-dasharray:none;stroke-opacity:1"
       d="m 347.70029,-28.980986 v -1.889879 h 3.77976 3.77977 v 1.889879 1.889882 h -3.77977 -3.77976 z"
       id="path883"
       inkscape:connector-curvature="0" />
    <path
       style="opacity:1;fill:#ff0000;fill-opacity:1;stroke:#00ffff;stroke-width:0.52916664;stroke-miterlimit:4;stroke-dasharray:none;stroke-opacity:1"
       d="m 325.77768,-33.529922 v -1.903103 l 3.87425,0.107717 3.87426,0.107715 0.1152,1.795388 0.1152,1.795386 h -3.98946 -3.98945 z"
       id="path885"
       inkscape:connector-curvature="0" />
    <path
       style="opacity:1;fill:#ff0000;fill-opacity:1;stroke:#00ffff;stroke-width:0.52916664;stroke-miterlimit:4;stroke-dasharray:none;stroke-opacity:1"
       d="m 303.85506,-28.751557 c 0,-2.041425 0.16782,-2.119308 4.56662,-2.119308 h 3.37087 v 1.889879 1.889882 h -3.96874 -3.96875 z"
       id="path887"
       inkscape:connector-curvature="0" />
    <path
       style="opacity:1;fill:#ff0000;fill-opacity:1;stroke:#00ffff;stroke-width:0.52916664;stroke-miterlimit:4;stroke-dasharray:none;stroke-opacity:1"
       d="m 160.60208,-46.582815 v -11.176233 l 3.53583,0.120431 c 1.94471,0.06624 3.68813,-0.03227 3.87426,-0.218901 0.18613,-0.186631 0.28049,-1.998194 0.20968,-4.025691 l -0.12874,-3.686357 1.18283,-0.259794 c 0.65056,-0.142886 2.40938,-0.202603 3.9085,-0.132702 l 2.72568,0.127092 0.18899,-3.779109 0.18898,-3.779108 3.50034,-0.03555 c 1.92518,-0.01955 3.60603,-0.14125 3.73521,-0.270433 0.12919,-0.129183 0.20951,-1.814076 0.17851,-3.744209 -0.0394,-2.452819 0.0576,-3.338642 0.32224,-2.942365 0.32829,0.491604 0.37938,0.48323 0.3844,-0.063 0.003,-0.346477 -0.20682,-0.715751 -0.46668,-0.820605 -0.25986,-0.104855 1.10086,-0.204073 3.02381,-0.220485 l 3.49628,-0.02984 v 2.807108 c 0,2.355601 -0.10639,2.834909 -0.66146,2.979965 -0.62996,0.164623 -0.62996,0.174945 0,0.216701 0.38771,0.02569 0.66146,0.34747 0.66146,0.777492 0,0.403505 0.17595,0.842388 0.391,0.975296 0.45801,0.283062 23.41994,0.308496 23.70218,0.02625 0.10506,-0.105069 0.1616,-1.899182 0.12563,-3.986924 l -0.0654,-3.795893 h 3.56786 3.56785 l 0.0541,3.8554 c 0.0298,2.120471 0.12686,3.928171 0.21581,4.017111 0.0889,0.08894 1.78414,0.131463 3.76711,0.0945 l 3.60542,-0.06721 v 3.79861 c 0,2.767369 0.12826,3.808555 0.47247,3.835238 0.25986,0.02013 1.94234,0.0066 3.73884,-0.03011 3.22342,-0.06586 4.52139,0.391623 3.30214,1.16388 -0.35466,0.224642 -0.37481,0.331777 -0.0631,0.335717 0.3146,0.004 0.49191,1.040133 0.56697,3.313081 l 0.10921,3.307291 3.68526,0.108181 3.68527,0.108182 v 11.136609 11.136611 h -3.20497 -3.20497 l -0.10232,-7.654017 -0.10232,-7.654017 -4.08383,-0.18899 c -2.35158,-0.108825 -4.23542,-0.03668 -4.44122,0.17009 -0.20031,0.201256 -0.35994,3.689914 -0.36318,7.9375 -0.004,5.447649 -0.11852,7.419015 -0.40675,7.011459 -0.30174,-0.426665 -0.4484,-0.450049 -0.59268,-0.0945 -0.12739,0.31396 -1.0688,0.472471 -2.80604,0.472471 h -2.61434 v -3.51518 c 0,-2.230059 -0.16582,-3.680999 -0.45357,-3.96875 -0.62931,-0.629306 -38.67065,-0.656161 -39.34437,-0.02778 -0.31345,0.292359 -0.41547,1.536126 -0.32554,3.96875 l 0.13098,3.542961 h -3.45221 -3.45222 l 0.0434,-7.547916 c 0.0239,-4.151353 -0.0381,-7.680704 -0.13782,-7.843004 -0.0997,-0.162301 -2.08307,-0.210048 -4.40753,-0.106104 l -4.22629,0.18899 0.0453,7.654017 0.0453,7.654017 h -3.41572 -3.41573 z m 78.61905,-4.698764 c 0,-0.207889 -0.29766,-0.375373 -0.66146,-0.37219 -0.56528,0.0049 -0.57902,0.05906 -0.0945,0.37219 0.71332,0.460983 0.75595,0.460983 0.75595,0 z m -71.53987,-0.228362 c -0.1256,-0.125598 -0.4516,-0.139026 -0.72445,-0.02984 -0.30153,0.120658 -0.21196,0.210222 0.22836,0.228359 0.39845,0.0164 0.62169,-0.07292 0.49609,-0.198519 z m 2.55921,-3.929378 c 0.12849,-0.207885 0.0535,-0.377975 -0.16668,-0.377975 -0.22015,0 -0.40028,0.17009 -0.40028,0.377975 0,0.207889 0.075,0.377976 0.16668,0.377976 0.0917,0 0.2718,-0.170087 0.40028,-0.377976 z m 21.16667,-1.511903 c 0.12848,-0.207888 0.0535,-0.377976 -0.16668,-0.377976 -0.22016,0 -0.40028,0.170088 -0.40028,0.377976 0,0.207886 0.075,0.377976 0.16668,0.377976 0.0917,0 0.2718,-0.17009 0.40028,-0.377976 z m 0.37798,-1.13393 c 0.41577,-0.178662 0.54334,-0.336799 0.28348,-0.351409 -0.34629,-0.01947 -0.47247,-1.086469 -0.47247,-3.995317 0,-2.378728 -0.15143,-3.977835 -0.37798,-3.991427 -2.74365,-0.164621 -7.96112,0.04058 -8.69345,0.341905 -0.66745,0.274632 -0.7507,0.395843 -0.28348,0.412766 0.58349,0.02114 0.66146,0.46206 0.66146,3.740724 0,2.044221 0.11339,3.830159 0.25198,3.96875 0.36557,0.365572 7.73695,0.257961 8.63046,-0.125992 z m 30.77061,-0.147487 c 0.56974,-0.686495 0.49039,-7.69721 -0.0912,-8.056649 -0.23018,-0.142256 -1.92498,-0.210958 -3.76622,-0.15267 -2.68611,0.08503 -3.48397,-0.01733 -4.03714,-0.517933 -0.45378,-0.41067 -0.77445,-0.486309 -0.93823,-0.22131 -0.13685,0.221429 -0.0262,0.402344 0.24596,0.402031 0.3913,-5.29e-4 0.44932,0.888871 0.27742,4.252233 -0.11954,2.339038 -0.15202,4.380365 -0.0722,4.536281 0.0798,0.155914 1.90024,0.28348 4.04533,0.28348 2.86879,0 4.01548,-0.138954 4.33625,-0.525463 z"
       id="path889"
       inkscape:connector-curvature="0" />
    <path
       style="opacity:1;fill:#ff0000;fill-opacity:1;stroke:#00ffff;stroke-width:0.52916664;stroke-miterlimit:4;stroke-dasharray:none;stroke-opacity:1"
       d="m 222.75598,-82.766702 c -0.10989,-0.286377 -0.14963,-1.866366 -0.0883,-3.511084 l 0.11149,-2.9904 h 3.40179 3.40179 v 3.401784 3.401788 l -3.31348,0.109299 c -2.54237,0.08386 -3.35997,-0.01188 -3.51328,-0.411387 z"
       id="path891"
       inkscape:connector-curvature="0" />
    <path
       style="opacity:1;fill:#ff0000;fill-opacity:1;stroke:#00ffff;stroke-width:0.52916664;stroke-miterlimit:4;stroke-dasharray:none;stroke-opacity:1"
       d="m 178.08348,-82.56143 -1.98437,-0.131678 v -3.158064 -3.158064 l 2.1155,-0.129474 c 1.16353,-0.07121 2.17658,-0.03027 2.25122,0.09099 0.0746,0.121253 0.65346,0.144473 1.28628,0.05159 l 1.15057,-0.168868 v 3.255698 c 0,1.790634 -0.12757,3.267178 -0.28349,3.281206 -1.80733,0.162634 -2.85697,0.178062 -4.53571,0.06667 z"
       id="path893"
       inkscape:connector-curvature="0" />
    <path
       style="opacity:1;fill:#ff0000;fill-opacity:1;stroke:#00ffff;stroke-width:0.52916664;stroke-miterlimit:4;stroke-dasharray:none;stroke-opacity:1"
       d="m 206.88309,-27.576704 c -0.11275,-0.293796 -0.15392,-1.878052 -0.0915,-3.520567 l 0.11349,-2.986392 7.41634,-0.102325 7.41633,-0.102322 0.066,3.541516 0.066,3.54152 -7.39086,0.08137 c -6.07371,0.06687 -7.42739,-0.01381 -7.59584,-0.452802 z"
       id="path895"
       inkscape:connector-curvature="0" />
    <path
       style="opacity:1;fill:#ff0000;fill-opacity:1;stroke:#00ffff;stroke-width:0.52916664;stroke-miterlimit:4;stroke-dasharray:none;stroke-opacity:1"
       d="m 191.12366,-27.382577 -7.46503,-0.102484 0.006,-3.110314 c 0.003,-1.710672 0.14934,-3.336764 0.32479,-3.613536 0.2517,-0.397047 1.79915,-0.476798 7.33403,-0.377976 3.85827,0.06889 7.12056,0.231137 7.24955,0.360555 0.12899,0.129419 0.18534,1.745266 0.12521,3.590775 l -0.10931,3.355464 z"
       id="path897"
       inkscape:connector-curvature="0" />
    <path
       style="opacity:1;fill:#ff0000;fill-opacity:1;stroke:#00ffff;stroke-width:0.52916664;stroke-miterlimit:4;stroke-dasharray:none;stroke-opacity:1"
       d="m 67.61994,-39.730998 c 0,-1.196269 -0.190476,-2.174285 -0.45534,-2.33798 -0.250439,-0.154779 -2.419078,-0.292383 -4.819198,-0.305787 -2.40012,-0.01342 -4.406378,-0.151943 -4.458348,-0.307856 -0.05197,-0.155917 -0.0945,-2.23951 -0.0945,-4.630208 v -4.346726 h 2.267858 c 1.545116,0 2.278126,-0.150572 2.300081,-0.472472 0.01773,-0.259858 0.0058,-1.357394 -0.02658,-2.438969 l -0.0588,-1.9665 2.577915,-0.112368 2.577915,-0.112371 0.188989,-2.286627 0.188989,-2.28663 2.078868,0.0033 2.078869,0.0033 0.111765,-2.535894 0.111762,-2.535894 h 4.734836 4.734837 l -0.05963,1.984375 c -0.03279,1.091406 -0.04512,2.196986 -0.0274,2.456847 0.02196,0.321897 0.754965,0.472469 2.300081,0.472469 2.500779,0 2.2795,-0.27178 2.46193,3.023809 0.106812,1.929546 0.411347,2.137995 2.864315,1.960563 l 2.276295,-0.164651 -0.08357,2.315777 c -0.04596,1.27368 0.03062,2.429973 0.170194,2.56954 0.139567,0.139571 1.273074,0.212162 2.518904,0.161317 l 2.265143,-0.09245 v 4.77841 4.778409 l -4.650594,-0.08723 c -4.371793,-0.082 -6.647199,0.303062 -5.603301,0.948227 0.234582,0.144981 0.426514,0.992722 0.426514,1.88387 v 1.620266 l -2.078869,0.06793 -2.078868,0.06793 v -1.868583 c 0,-3.025383 0.187865,-2.923135 -5.066797,-2.757691 -3.137532,0.09878 -4.753499,0.01061 -4.926187,-0.268806 -0.579242,-0.937234 -0.772705,-0.277641 -0.653828,2.229164 l 0.125511,2.646686 H 69.729825 67.61994 Z m 4.606261,-7.865314 c 0.06514,-0.675632 0.0595,-2.036347 -0.01254,-3.023809 L 72.082685,-52.41551 H 69.49564 c -1.650701,0 -2.691882,0.169628 -2.876693,0.468662 -0.197146,0.31899 -0.373303,0.168101 -0.551595,-0.472472 l -0.261949,-0.941128 -0.03768,1.039434 c -0.02072,0.571688 0.132413,1.039435 0.340299,1.039435 0.209397,0 0.377978,0.997436 0.377978,2.236358 0,1.435426 0.169209,2.304638 0.47247,2.427005 0.259857,0.104857 1.524751,0.204076 2.810872,0.220488 l 2.338403,0.02984 z m 14.872596,0.829278 c 0.135676,-0.21953 0.273281,-1.637091 0.30579,-3.150134 l 0.0591,-2.750987 -2.834823,0.17398 c -1.55915,0.09569 -2.906419,0.23831 -2.99393,0.316933 -0.08751,0.07862 -0.121901,1.062649 -0.07643,2.186723 0.04548,1.124077 -0.09384,2.152875 -0.309596,2.28622 -0.262115,0.161994 -0.236755,0.419177 0.07642,0.775049 0.562388,0.639059 5.394839,0.774835 5.773457,0.162216 z m -19.97661,-6.853274 c -0.120658,-0.301525 -0.210222,-0.211961 -0.228359,0.228362 -0.0164,0.398449 0.07292,0.621691 0.198519,0.496093 0.125598,-0.125597 0.139028,-0.451604 0.02984,-0.724455 z m 15.616801,0.448847 c 0,-0.207886 -0.17009,-0.377976 -0.377976,-0.377976 -0.207888,0 -0.377978,0.17009 -0.377978,0.377976 0,0.207888 0.17009,0.377976 0.377978,0.377976 0.207886,0 0.377976,-0.170088 0.377976,-0.377976 z m 2.267857,0 c 0,-0.207886 -0.17009,-0.377976 -0.377978,-0.377976 -0.207886,0 -0.377976,0.17009 -0.377976,0.377976 0,0.207888 0.17009,0.377976 0.377976,0.377976 0.207888,0 0.377978,-0.170088 0.377978,-0.377976 z m -22.042394,-1.582775 c -0.120661,-0.301524 -0.210225,-0.21196 -0.228362,0.22836 -0.0164,0.398451 0.07292,0.621694 0.198522,0.496093 0.125598,-0.125597 0.139025,-0.451601 0.02984,-0.724453 z m 1.907288,-1.291418 c -0.1256,-0.1256 -0.451604,-0.139028 -0.724455,-0.02984 -0.301525,0.120661 -0.211961,0.210225 0.228361,0.228362 0.39845,0.0164 0.621692,-0.07293 0.496094,-0.198522 z m 17.867249,-4.685331 c 0,-0.207886 -0.07501,-0.377976 -0.166682,-0.377976 -0.09168,0 -0.271801,0.17009 -0.400283,0.377976 -0.128482,0.207888 -0.05347,0.377976 0.166682,0.377976 0.220155,0 0.400283,-0.170088 0.400283,-0.377976 z m -9.947156,-0.826823 c -0.12066,-0.301525 -0.210225,-0.21196 -0.228362,0.228362 -0.0164,0.398449 0.07292,0.621691 0.19852,0.496093 0.1256,-0.125597 0.139028,-0.451604 0.02984,-0.724455 z"
       id="path899"
       inkscape:connector-curvature="0" />
    <path
       style="opacity:1;fill:#ff0000;fill-opacity:1;stroke:#00ffff;stroke-width:0.52916664;stroke-miterlimit:4;stroke-dasharray:none;stroke-opacity:1"
       d="m 92.188391,-29.736937 v -2.267858 h 2.078871 2.078868 v 2.267858 2.267857 h -2.078868 -2.078871 z"
       id="path901"
       inkscape:connector-curvature="0" />
    <path
       style="opacity:1;fill:#ff0000;fill-opacity:1;stroke:#00ffff;stroke-width:0.52916664;stroke-miterlimit:4;stroke-dasharray:none;stroke-opacity:1"
       d="m 87.2747,-34.441888 v -2.098622 h 2.098622 2.098622 l -0.114247,1.984375 -0.114247,1.984375 -1.984375,0.114247 -1.984375,0.114247 z"
       id="path903"
       inkscape:connector-curvature="0" />
    <path
       style="opacity:1;fill:#ff0000;fill-opacity:1;stroke:#00ffff;stroke-width:0.52916664;stroke-miterlimit:4;stroke-dasharray:none;stroke-opacity:1"
       d="m 82.361012,-29.736937 v -2.267858 h 2.078868 2.078869 v 2.267858 2.267857 H 84.43988 82.361012 Z"
       id="path905"
       inkscape:connector-curvature="0" />
    <path
       style="opacity:1;fill:#ff0000;fill-opacity:1;stroke:#00ffff;stroke-width:0.52916664;stroke-miterlimit:4;stroke-dasharray:none;stroke-opacity:1"
       d="m 72.155655,-34.445735 v -2.094775 h 4.744455 4.744455 l -0.114247,1.984375 -0.114247,1.984375 -4.630208,0.1104 -4.630208,0.1104 z m 8.315475,-0.204893 c 0,-0.207886 -0.180128,-0.377976 -0.400282,-0.377976 -0.220157,0 -0.295164,0.17009 -0.166683,0.377976 0.128482,0.207888 0.30861,0.377976 0.400283,0.377976 0.09168,0 0.166682,-0.170088 0.166682,-0.377976 z"
       id="path907"
       inkscape:connector-curvature="0" />
    <path
       style="opacity:1;fill:#ff0000;fill-opacity:1;stroke:#00ffff;stroke-width:0.52916664;stroke-miterlimit:4;stroke-dasharray:none;stroke-opacity:1"
       d="m 67.61994,-29.736937 v -2.267858 h 2.078868 2.078871 v 2.267858 2.267857 H 69.698808 67.61994 Z"
       id="path909"
       inkscape:connector-curvature="0" />
    <path
       style="opacity:1;fill:#ff0000;fill-opacity:1;stroke:#00ffff;stroke-width:0.52916664;stroke-miterlimit:4;stroke-dasharray:none;stroke-opacity:1"
       d="m 62.328273,-34.461639 v -2.078871 h 2.078868 2.078871 v 2.078871 2.078868 h -2.078871 -2.078868 z"
       id="path911"
       inkscape:connector-curvature="0" />
    <path
       style="opacity:1;fill:#ff0000;fill-opacity:1;stroke:#00ffff;stroke-width:0.52916664;stroke-miterlimit:4;stroke-dasharray:none;stroke-opacity:1"
       d="m 57.709783,-27.733981 c -0.0827,-0.166134 -0.126129,-1.148045 -0.09651,-2.182026 0.05321,-1.857846 0.06903,-1.88105 1.34499,-1.972435 0.710129,-0.05086 1.682547,-0.0074 2.160927,0.09663 0.791601,0.172106 0.859549,0.366382 0.755951,2.161423 l -0.113829,1.972321 -1.950582,0.113075 c -1.072822,0.06219 -2.018247,-0.02286 -2.100943,-0.188987 z"
       id="path913"
       inkscape:connector-curvature="0" />
    <path
       style="opacity:1;fill:#ff0000;fill-opacity:1;stroke:#00ffff;stroke-width:0.52916664;stroke-miterlimit:4;stroke-dasharray:none;stroke-opacity:1"
       d="m 356.60403,61.389784 c -0.10554,-0.170775 -0.62126,-0.263369 -1.14603,-0.205763 -0.90351,0.09918 -0.95413,0.0074 -0.95413,-1.729555 0,-1.008859 -0.20077,-1.958369 -0.44615,-2.110023 -0.24538,-0.151654 -1.26592,-0.238329 -2.26786,-0.192612 l -1.82171,0.08312 v -4.195109 -4.195109 l 1.82171,0.08312 c 1.00194,0.04572 2.02248,-0.04096 2.26786,-0.192609 0.24538,-0.151654 0.44615,-1.097944 0.44615,-2.102868 0,-1.358128 0.16203,-1.889313 0.63123,-2.069365 0.34718,-0.133226 0.75117,-0.04818 0.89776,0.188997 0.27212,0.440304 1.67818,0.185097 2.47536,-0.449286 0.22746,-0.181015 0.37226,-1.138211 0.32178,-2.127102 l -0.0918,-1.797984 1.86467,-0.08027 c 1.02556,-0.04415 2.02886,-0.181755 2.22955,-0.305789 0.20069,-0.124034 0.3649,-1.15692 0.3649,-2.295303 v -2.069782 l 3.87425,0.107714 3.87426,0.107717 0.0343,1.810756 c 0.0188,0.995915 0.20821,1.984703 0.42081,2.197306 0.21261,0.212603 1.17499,0.418301 2.13862,0.457102 l 1.75207,0.07055 5.3e-4,1.719792 c 5.2e-4,2.176632 0.46717,2.626934 2.72189,2.626934 h 1.81429 v 1.867575 c 0,1.036883 0.20021,1.991312 0.45012,2.145763 0.24756,0.153005 1.22558,0.266226 2.17336,0.251605 0.94778,-0.01463 1.34054,0.05215 0.8728,0.148381 -1.10921,0.228203 -1.10921,0.96184 0,0.807609 0.80851,-0.112424 0.85601,0.0213 0.96331,2.712117 0.0621,1.556702 0.011,3.236319 -0.11354,3.732479 -0.20406,0.813023 -0.37844,0.881719 -1.76582,0.695635 -2.32568,-0.311941 -2.58023,-0.09009 -2.58023,2.248776 v 2.055844 l -1.7009,-0.08805 -1.70089,-0.08805 v -2.008238 c 0,-2.211993 0.19488,-2.081903 -3.13573,-2.093219 -0.99705,-0.0034 -1.92233,0.103362 -2.05619,0.237217 -0.13386,0.133858 -0.198,1.098259 -0.14255,2.143115 l 0.10083,1.899737 -4.01437,-0.06412 -4.01438,-0.06413 0.0855,-1.874038 c 0.0878,-1.923232 -0.44417,-2.766113 -1.50061,-2.377821 -0.27686,0.101759 -1.25488,0.185018 -2.17336,0.185018 h -1.66998 v 2.038429 c 0,1.443493 -0.16194,2.100572 -0.55486,2.25135 -0.30518,0.117105 -0.64122,0.0732 -0.74676,-0.09758 z m 20.45863,-3.129139 c -0.12066,-0.301525 -0.21022,-0.211961 -0.22836,0.228359 -0.0164,0.398449 0.0729,0.621691 0.19852,0.496094 0.1256,-0.125598 0.13903,-0.451602 0.0298,-0.724453 z m -13.76405,-5.220798 c 0.35599,-0.415774 0.48773,-0.755952 0.29274,-0.755952 -0.19499,0 -0.40594,-0.892969 -0.46877,-1.984375 l -0.11425,-1.984375 -2.20526,-0.114308 c -2.29775,-0.119102 -3.38306,0.338879 -3.0235,1.275871 0.11383,0.296633 0.0187,0.53933 -0.21146,0.53933 -0.23013,0 -0.41841,0.180128 -0.41841,0.400282 0,0.220158 0.15961,0.301641 0.35469,0.181076 0.19507,-0.120565 0.40769,0.422185 0.47247,1.206114 0.11635,1.407996 0.14076,1.428051 2.00766,1.649425 1.03943,0.123256 2.06469,0.250823 2.27835,0.283483 0.21366,0.03266 0.67974,-0.280797 1.03574,-0.696571 z m 13.12787,0 c 0,-0.207886 0.26517,-0.377976 0.58928,-0.377976 0.3241,0 0.48243,-0.172863 0.35186,-0.384141 -0.13058,-0.211277 -0.39576,-0.286284 -0.58928,-0.166682 -0.19945,0.123267 -0.35186,-0.610809 -0.35186,-1.694728 0,-1.051702 -0.12756,-1.930408 -0.28348,-1.95268 -1.74733,-0.249584 -4.68725,-0.172993 -4.87262,0.126942 -0.32014,0.51799 -0.30082,3.87609 0.0253,4.403815 0.32715,0.529336 5.13077,0.571886 5.13077,0.04545 z m 1.13393,-2.056562 c 0,-0.09168 -0.17009,-0.271801 -0.37797,-0.400282 -0.20789,-0.128482 -0.37798,-0.05347 -0.37798,0.166679 0,0.220157 0.17009,0.400286 0.37798,0.400286 0.20788,0 0.37797,-0.07501 0.37797,-0.166683 z"
       id="path915"
       inkscape:connector-curvature="0" />
    <path
       style="opacity:1;fill:#ff0000;fill-opacity:1;stroke:#00ffff;stroke-width:0.52916664;stroke-miterlimit:4;stroke-dasharray:none;stroke-opacity:1"
       d="m 380.9622,64.001156 v -1.889879 h 1.66045 c 1.16544,0 1.72885,0.178239 1.88988,0.597876 0.3205,0.835197 0.28781,0.994725 -0.14855,0.72504 -0.53893,-0.333078 -0.4714,1.45627 0.0756,2.003274 0.35278,0.352777 0.0168,0.45357 -1.5119,0.45357 h -1.96548 z"
       id="path917"
       inkscape:connector-curvature="0" />
    <path
       style="opacity:1;fill:#ff0000;fill-opacity:1;stroke:#00ffff;stroke-width:0.52916664;stroke-miterlimit:4;stroke-dasharray:none;stroke-opacity:1"
       d="m 376.42648,68.554828 v -1.871924 l 1.22843,0.195058 c 0.67563,0.107284 1.44103,0.212596 1.70089,0.234027 0.29929,0.02469 0.47247,0.639315 0.47247,1.676866 v 1.637897 h -1.70089 -1.7009 z"
       id="path919"
       inkscape:connector-curvature="0" />
    <path
       style="opacity:1;fill:#ff0000;fill-opacity:1;stroke:#00ffff;stroke-width:0.52916664;stroke-miterlimit:4;stroke-dasharray:none;stroke-opacity:1"
       d="m 350.25163,66.380239 c 0.46775,-0.09009 1.23315,-0.09009 1.7009,0 0.46774,0.09009 0.085,0.163803 -0.85045,0.163803 -0.93549,0 -1.31819,-0.07371 -0.85045,-0.163803 z"
       id="path921"
       inkscape:connector-curvature="0" />
    <path
       style="opacity:1;fill:#ff0000;fill-opacity:1;stroke:#00ffff;stroke-width:0.52916664;stroke-miterlimit:4;stroke-dasharray:none;stroke-opacity:1"
       d="m 349.96815,64.001156 v -1.889879 h 1.70089 1.7009 v 1.889879 1.889881 h -1.7009 -1.70089 z"
       id="path923"
       inkscape:connector-curvature="0" />
    <path
       style="opacity:1;fill:#ff0000;fill-opacity:1;stroke:#00ffff;stroke-width:0.52916664;stroke-miterlimit:4;stroke-dasharray:none;stroke-opacity:1"
       d="m 354.50387,68.607501 v -1.819254 l 1.70089,-0.08804 1.70089,-0.08805 v 1.907297 1.907296 h -1.70089 -1.70089 z"
       id="path925"
       inkscape:connector-curvature="0" />
    <path
       style="opacity:1;fill:#ff0000;fill-opacity:1;stroke:#00ffff;stroke-width:0.52916664;stroke-miterlimit:4;stroke-dasharray:none;stroke-opacity:1"
       d="m 319.35215,51.622437 -7e-5,-10.677827 h 2.64583 c 1.45521,0 2.6257,0.127566 2.60108,0.283483 -0.0246,0.155913 -0.0246,0.836271 0,1.511903 0.0428,1.173715 0.11209,1.228423 1.55666,1.228423 1.41849,0 1.5119,0.06815 1.5119,1.103014 0,1.868125 0.34267,2.298284 1.83583,2.30456 1.02819,0.0043 1.23336,0.0986 0.81001,0.372187 -0.48453,0.313127 -0.47079,0.367242 0.0945,0.372189 0.44287,0.0039 0.66146,0.302771 0.66146,0.904447 0,1.073369 0.9236,2.01531 1.3305,1.356926 0.15175,-0.245536 0.66324,-0.326723 1.20374,-0.191066 1.59198,0.399563 1.89507,-0.231185 1.70326,-3.54461 -0.0956,-1.651471 -0.0599,-3.609901 0.0793,-4.352065 l 0.25315,-1.349391 h 2.62871 2.6287 v 10.041218 c 0,6.198844 -0.14972,10.32098 -0.39127,10.77232 -0.31848,0.595085 -0.8032,0.731104 -2.6054,0.731104 -2.32968,0 -2.80647,-0.352784 -2.42878,-1.797076 0.27415,-1.048356 -0.8333,-1.982687 -2.35006,-1.982687 -1.22422,0 -1.29592,-0.07178 -1.29592,-1.297445 0,-0.963541 -0.19367,-1.358916 -0.75257,-1.536301 -0.41391,-0.13137 -0.91243,-0.140059 -1.10781,-0.01931 -0.50052,0.30934 -0.89231,-0.457309 -0.93664,-1.832798 -0.0369,-1.143272 -0.0879,-1.17566 -2.02917,-1.287269 -1.41666,-0.08145 -2.16078,0.05491 -2.57834,0.472469 -0.32283,0.322828 -0.40473,0.586962 -0.18199,0.586962 0.56774,0 0.50801,1.78531 -0.0675,2.01753 -0.37798,0.152516 -0.37798,0.196614 0,0.220485 0.33576,0.02122 0.47247,0.897409 0.47247,3.02818 0,3.440811 -0.10992,3.549692 -3.38481,3.352866 l -1.90671,-0.114599 z m 14.63863,6.480717 c -0.1256,-0.125598 -0.4516,-0.139028 -0.72445,-0.02984 -0.30153,0.12066 -0.21196,0.210224 0.22836,0.228362 0.39845,0.0164 0.62169,-0.07292 0.49609,-0.198523 z m -9.82738,-3.401788 c -0.1256,-0.125597 -0.4516,-0.139025 -0.72445,-0.02984 -0.30153,0.12066 -0.21196,0.210224 0.22836,0.228359 0.39845,0.0164 0.62169,-0.07292 0.49609,-0.19852 z"
       id="path927"
       inkscape:connector-curvature="0" />
    <path
       style="opacity:1;fill:#ff0000;fill-opacity:1;stroke:#00ffff;stroke-width:0.52916664;stroke-miterlimit:4;stroke-dasharray:none;stroke-opacity:1"
       d="m 296.67351,61.132985 v -1.35627 l 2.74033,0.07382 c 1.50718,0.0406 2.95619,0.05561 3.22003,0.03335 0.37534,-0.03167 0.45757,-1.86993 0.37797,-8.45044 l -0.10172,-8.409971 -3.11831,-0.109781 c -3.03077,-0.106699 -3.1183,-0.135875 -3.1183,-1.039435 V 40.94461 h 9.07143 9.07143 v 0.944941 c 0,0.933987 -0.0373,0.944938 -3.2199,0.944938 h -3.21989 l 0.10159,8.563084 0.10159,8.56308 3.1183,-0.08263 3.11831,-0.08263 v 1.346933 1.346932 h -9.07143 -9.07143 z"
       id="path929"
       inkscape:connector-curvature="0" />
    <path
       style="opacity:1;fill:#ff0000;fill-opacity:1;stroke:#00ffff;stroke-width:0.52916664;stroke-miterlimit:4;stroke-dasharray:none;stroke-opacity:1"
       d="m 270.72767,61.916639 c -0.12085,-0.314937 -0.13636,-0.891421 -0.0345,-1.281076 0.28745,-1.099187 -0.33454,-1.737085 -1.69376,-1.737085 h -1.24111 l -0.0952,-4.346725 c -0.0523,-2.390701 -0.13738,-5.558851 -0.18898,-7.040335 -0.10248,-2.941942 0.13815,-3.413027 1.84279,-3.607779 0.95673,-0.109302 1.10127,-0.294294 1.2045,-1.541619 l 0.11731,-1.41741 h 7.5139 7.51389 l 0.11731,1.41741 c 0.11397,1.377069 0.16325,1.420731 1.73162,1.534025 l 1.61432,0.116613 -0.10241,7.442911 -0.10241,7.442909 -1.17278,0.0378 c -1.70135,0.05483 -2.04002,0.39738 -2.04002,2.063377 v 1.489598 h -7.3824 c -6.24582,0 -7.41623,-0.08816 -7.60213,-0.572613 z m 12.79685,-10.237071 c 0.0598,-4.490119 0.0106,-8.32227 -0.10955,-8.515889 -0.12265,-0.197742 -2.43011,-0.305613 -5.26464,-0.246118 l -5.0463,0.105918 0.0669,8.126489 c 0.0368,4.469566 0.0672,8.254052 0.0675,8.409969 2.7e-4,0.155916 2.2903,0.283482 5.08889,0.283482 h 5.08836 z"
       id="path931"
       inkscape:connector-curvature="0" />
    <path
       style="opacity:1;fill:#ff0000;fill-opacity:1;stroke:#00ffff;stroke-width:0.52916664;stroke-miterlimit:4;stroke-dasharray:none;stroke-opacity:1"
       d="m 252.74377,43.3132 c 0.88901,-0.07985 2.24973,-0.07872 3.02381,0.0024 0.77408,0.08122 0.0467,0.14655 -1.61639,0.145177 -1.6631,-0.0013 -2.29644,-0.06783 -1.40742,-0.147669 z"
       id="path933"
       inkscape:connector-curvature="0" />
    <path
       style="opacity:1;fill:#ff0000;fill-opacity:1;stroke:#00ffff;stroke-width:0.52916664;stroke-miterlimit:4;stroke-dasharray:none;stroke-opacity:1"
       d="m 248.34497,61.208619 c 0.14348,-1.665383 -0.54561,-2.460464 -2.05993,-2.37676 -1.13703,0.06285 -1.21598,-0.019 -1.39427,-1.445287 -0.18503,-1.480227 -0.21869,-1.510159 -1.6064,-1.428712 l -1.41741,0.08319 v -4.33542 -4.335426 h 1.10302 c 1.8713,0 2.14119,-0.258029 1.98484,-1.89761 -0.13862,-1.453523 -0.10497,-1.504175 0.99927,-1.504175 1.87955,0 2.33847,-0.341728 2.33847,-1.741331 V 40.94461 h 5.83581 5.83582 l 0.11731,1.41741 c 0.11387,1.375847 0.16441,1.420818 1.7237,1.533639 1.50533,0.108913 1.6064,0.187248 1.6064,1.244981 v 1.128755 l -2.74032,-0.111054 c -2.44486,-0.09908 -2.7271,-0.187851 -2.6176,-0.823293 0.0675,-0.391732 0.0202,-1.120712 -0.10511,-1.619957 -0.22342,-0.890211 -0.29869,-0.905634 -3.90248,-0.799666 l -3.67466,0.108054 -0.11623,1.606399 c -0.1085,1.499595 -0.19017,1.606399 -1.22842,1.606399 -0.63165,0 -1.11717,-0.204145 -1.12369,-0.472472 -0.007,-0.268457 -0.17452,-0.192804 -0.38905,0.175205 -0.21564,0.369932 -0.33228,2.801231 -0.27198,5.669642 l 0.10556,5.021969 1.41741,0.117311 c 1.37819,0.114064 1.41741,0.158514 1.41741,1.606399 0,0.929201 0.17764,1.496198 0.47247,1.507995 2.68648,0.107511 6.76279,-0.0075 7.07357,-0.199562 0.2153,-0.133064 0.39146,-0.827209 0.39146,-1.542544 v -1.30061 h 2.64583 2.64583 v 1.116632 c 0,1.052851 -0.0743,1.107117 -1.30103,0.950058 -0.78222,-0.100151 -1.50086,0.03325 -1.80214,0.334525 -0.2756,0.275606 -0.75319,0.600054 -1.06131,0.720995 -0.44143,0.173271 -0.41997,0.226222 0.10124,0.249735 0.47634,0.02148 0.66146,0.347189 0.66146,1.163767 v 1.13393 h -5.88759 -5.88759 z m 1.08152,-15.917283 c 0.27121,-0.326795 0.30795,-0.566965 0.0867,-0.566965 -0.2111,0 -0.48173,0.255135 -0.60139,0.566965 -0.11966,0.31183 -0.15868,0.566965 -0.0867,0.566965 0.072,0 0.34259,-0.255135 0.60139,-0.566965 z"
       id="path935"
       inkscape:connector-curvature="0" />
    <path
       style="opacity:1;fill:#ff0000;fill-opacity:1;stroke:#00ffff;stroke-width:0.52916664;stroke-miterlimit:4;stroke-dasharray:none;stroke-opacity:1"
       d="m 199.82349,52.756364 -0.10087,-9.732885 -3.11831,-0.109781 c -3.03077,-0.106699 -3.1183,-0.135875 -3.1183,-1.039435 V 40.94461 h 9.02736 9.02737 l 0.18064,0.944941 0.18063,0.944938 h -3.34937 -3.34937 v 9.827382 9.827381 h -2.63945 -2.63945 z"
       id="path937"
       inkscape:connector-curvature="0" />
    <path
       style="opacity:1;fill:#ff0000;fill-opacity:1;stroke:#00ffff;stroke-width:0.52916664;stroke-miterlimit:4;stroke-dasharray:none;stroke-opacity:1"
       d="M 164.38184,51.690551 V 40.94461 h 9.07143 9.07143 v 1.282478 c 0,1.392386 0.46065,1.741331 2.29877,1.741331 h 1.10302 v 4.346726 4.346726 h -3.23255 -3.23255 l 0.11424,1.984375 0.11425,1.984375 1.41741,0.117311 c 1.37434,0.113747 1.41741,0.161896 1.41741,1.584666 0,1.456084 0.0123,1.468247 1.6064,1.583582 1.5078,0.109093 1.61367,0.191624 1.72484,1.344649 l 0.11844,1.228423 h -3.9927 c -2.93908,0 -3.99422,-0.124676 -3.99848,-0.472471 -0.004,-0.314979 -0.12792,-0.28348 -0.37219,0.0945 -0.265,0.410059 -0.368,0.0701 -0.37219,-1.228424 -0.005,-1.441341 -0.13622,-1.80273 -0.66724,-1.832633 -2.69633,-0.151824 -2.55633,-0.06484 -2.47202,-1.535769 l 0.0793,-1.38403 -1.8573,-0.255442 c -1.02151,-0.140494 -2.03522,-0.145479 -2.25268,-0.01109 -0.2244,0.138684 -0.3954,1.6164 -0.3954,3.416839 v 3.172474 l -2.64583,-0.0084 -2.64584,-0.0084 V 51.690543 Z m 11.05581,6.390637 c -0.25986,-0.104857 -0.68508,-0.104857 -0.94494,0 -0.25986,0.104855 -0.0472,0.190646 0.47247,0.190646 0.51971,0 0.73233,-0.08579 0.47247,-0.190646 z m 1.72284,-6.303518 0.11644,-1.822341 1.58445,0.124849 1.58445,0.124849 0.11287,-2.83037 c 0.19248,-4.826526 0.54573,-4.540168 -5.60072,-4.540168 h -5.28447 v 5.276382 5.276379 l 3.1183,0.130611 c 1.71507,0.07184 3.37344,0.119709 3.68527,0.106381 0.40516,-0.0173 0.6002,-0.544298 0.68341,-1.846572 z m 6.12016,-6.675323 c 0,-0.207886 -0.18012,-0.377976 -0.40028,-0.377976 -0.22016,0 -0.29516,0.17009 -0.16668,0.377976 0.12848,0.207888 0.30861,0.377976 0.40028,0.377976 0.0917,0 0.16668,-0.170088 0.16668,-0.377976 z"
       id="path939"
       inkscape:connector-curvature="0" />
    <path
       style="opacity:1;fill:#ff0000;fill-opacity:1;stroke:#00ffff;stroke-width:0.52916664;stroke-miterlimit:4;stroke-dasharray:none;stroke-opacity:1"
       d="M 138.67946,51.71693 V 40.94461 h 10.5009 10.50089 l 0.0782,0.944941 0.0782,0.944938 h -7.93326 -7.93327 v 3.590774 c 0,2.609115 0.12916,3.59668 0.47247,3.612375 0.25986,0.01188 3.10885,0.0544 6.3311,0.0945 l 5.85863,0.07289 0.11844,1.228421 0.11845,1.228423 h -6.44955 -6.44954 v 3.590774 c 0,2.612901 0.12867,3.594724 0.47247,3.605276 0.25986,0.008 3.83173,0.0016 7.9375,-0.01394 l 7.46503,-0.02844 v 1.336857 1.336858 H 149.2628 138.67946 Z"
       id="path941"
       inkscape:connector-curvature="0" />
    <path
       style="opacity:1;fill:#ff0000;fill-opacity:1;stroke:#00ffff;stroke-width:0.52916664;stroke-miterlimit:4;stroke-dasharray:none;stroke-opacity:1"
       d="M 116.00089,60.79635 V 59.087468 H 114.3 c -1.6379,0 -1.70089,-0.042 -1.70089,-1.133931 V 56.81961 h 2.64583 2.64583 v 1.30061 c 0,0.715335 0.18579,1.415431 0.41286,1.555766 0.31001,0.1916 6.52993,0.298661 10.26497,0.176691 0.15592,-0.0051 0.28348,-1.625105 0.28348,-3.600032 v -3.590774 h -6.45455 -6.45456 l 0.0813,-1.228423 c 0.13178,-1.991194 -0.21897,-2.399721 -1.92099,-2.237407 l -1.50417,0.143446 v -2.685534 c 0,-2.531485 0.0488,-2.68583 0.85044,-2.690696 1.97643,-0.01198 2.55134,-0.404037 2.55134,-1.739815 V 40.94461 h 5.85863 5.85863 v 1.282478 c 0,1.392386 0.46065,1.741331 2.29877,1.741331 0.97359,0 1.10302,0.133054 1.10302,1.133928 v 1.13393 h -2.64583 -2.64584 V 44.76481 c 0,-0.993103 -0.19436,-1.54605 -0.59788,-1.700893 -1.09881,-0.421655 -6.41323,-0.248668 -6.88604,0.224145 -0.63943,0.639424 -0.62242,6.718522 0.0189,6.754434 0.25986,0.01455 2.94034,0.0042 5.95663,-0.02305 3.01629,-0.02723 5.78024,0.06411 6.14211,0.20297 0.46938,0.180117 0.65795,0.674219 0.65795,1.723945 0,0.809305 0.12757,1.490477 0.28349,1.513716 0.15591,0.02323 0.86487,0.10854 1.57546,0.189555 1.37705,0.157004 2.00395,0.529662 1.31084,0.779222 -0.29106,0.104793 -0.32141,0.684625 -0.0984,1.878589 0.33154,1.774606 0.11899,2.56259 -0.70908,2.628837 -0.25985,0.0208 -0.88791,0.06331 -1.39567,0.09449 -0.80513,0.04944 -0.93808,0.262162 -1.03944,1.663094 l -0.11623,1.606399 -7.46502,0.102487 -7.46503,0.102483 z"
       id="path943"
       inkscape:connector-curvature="0" />
    <path
       style="opacity:1;fill:#ff0000;fill-opacity:1;stroke:#00ffff;stroke-width:0.52916664;stroke-miterlimit:4;stroke-dasharray:none;stroke-opacity:1"
       d="M 87.2747,51.71693 V 40.94461 h 2.645834 2.645833 v 1.511903 c 0,1.2773 0.121494,1.511906 0.782952,1.511906 0.974439,0 1.862881,0.85239 1.862881,1.787287 0,1.093116 0.764162,1.610979 2.437948,1.652175 1.324925,0.03261 1.403717,0.07838 0.585864,0.340299 -0.914961,0.293021 -0.917731,0.303818 -0.08729,0.340299 0.711443,0.03126 0.818743,0.192688 0.629428,0.946981 -0.267571,1.066083 0.673378,1.542211 2.26054,1.14386 0.75818,-0.190294 0.97708,-0.10404 0.97708,0.385014 0,0.346636 0.17287,0.523412 0.38414,0.392834 0.21128,-0.130577 0.29527,-0.381222 0.18664,-0.556987 -0.10863,-0.175768 -0.009,-0.382545 0.22228,-0.45951 0.27967,-0.09322 0.40271,-1.606531 0.36859,-4.53358 l -0.0512,-4.393647 2.65758,-0.02487 2.65759,-0.02487 v 9.975334 c 0,7.626606 -0.11125,10.020223 -0.47247,10.165982 -0.37798,0.152516 -0.37798,0.196614 0,0.220485 0.25986,0.0164 0.47247,0.284975 0.47247,0.596805 0,0.686522 -0.61805,0.752617 -0.8836,0.09449 -0.15252,-0.377976 -0.19662,-0.377976 -0.22049,0 -0.02,0.31709 -0.71351,0.472472 -2.10871,0.472472 h -2.07887 v -1.436309 c 0,-1.550414 -0.52656,-2.343455 -1.556,-2.343455 -0.35687,0 -0.73513,-0.212611 -0.84057,-0.472469 -0.14427,-0.355552 -0.29093,-0.332168 -0.59267,0.09449 -0.313269,0.442963 -0.40223,0.265806 -0.406752,-0.810006 -0.0062,-1.483235 -0.438986,-1.835827 -2.253178,-1.835827 -0.970902,0 -1.048324,-0.108812 -1.00852,-1.41741 l 0.04311,-1.41741 -1.984375,-0.114247 -1.984375,-0.114247 -0.02498,1.62615 c -0.01373,0.894385 -0.0035,3.114435 0.02275,4.933445 l 0.04771,3.307292 h -2.668582 -2.668585 z"
       id="path945"
       inkscape:connector-curvature="0" />
    <path
       style="opacity:1;fill:#ff0000;fill-opacity:1;stroke:#00ffff;stroke-width:0.52916664;stroke-miterlimit:4;stroke-dasharray:none;stroke-opacity:1"
       d="m 64.551175,62.20577 c -0.346228,-2.183249 -0.370279,-2.165892 3.163258,-2.282574 l 3.307292,-0.109209 v -8.260321 c 0,-7.183654 -0.07793,-8.290224 -0.597877,-8.489749 -0.328834,-0.126185 -1.877835,-0.229428 -3.442226,-0.229428 -2.438384,0 -2.8116,-0.08533 -2.614919,-0.597876 0.126185,-0.328832 0.229428,-0.754057 0.229428,-0.944941 0,-0.201126 3.814468,-0.347062 9.071427,-0.347062 h 9.07143 v 0.944941 c 0,0.933823 -0.0378,0.944938 -3.212798,0.944938 h -3.212799 v 8.504465 8.504465 h 3.212799 3.212798 v 1.322917 1.322916 h -9.07143 c -4.989285,0 -9.091657,-0.127566 -9.116383,-0.283482 z"
       id="path947"
       inkscape:connector-curvature="0" />
    <path
       style="opacity:1;fill:#ff0000;fill-opacity:1;stroke:#00ffff;stroke-width:0.52916664;stroke-miterlimit:4;stroke-dasharray:none;stroke-opacity:1"
       d="m 21.501057,65.442516 c -0.0083,-2.3309 -0.381233,-2.735644 -2.423406,-2.629932 l -1.728544,0.08948 v -1.907297 c 0,-1.855356 -0.03004,-1.907296 -1.103013,-1.907296 -2.354345,0 -2.298772,0.175133 -2.298772,-7.244295 0,-4.091601 0.13969,-6.699107 0.351859,-6.567979 0.193521,0.119605 0.450739,0.05747 0.57159,-0.138076 0.120854,-0.195543 -0.08,-0.440192 -0.446352,-0.543663 -0.366348,-0.10347 0.01426,-0.158864 0.84582,-0.1231 l 1.511903,0.06503 0.121155,3.774922 c 0.06664,2.076209 0.198835,3.852606 0.293775,3.947546 0.319445,0.319445 3.330842,-0.01003 3.822703,-0.41824 0.267888,-0.222327 0.487071,-0.733621 0.487071,-1.136211 0,-0.402587 0.170088,-0.626856 0.377976,-0.498374 0.207886,0.128481 0.377976,0.05347 0.377976,-0.166682 0,-0.220155 -0.17009,-0.400283 -0.377976,-0.400283 -0.207888,0 -0.377976,-0.26814 -0.377976,-0.595868 0,-0.462788 0.34249,-0.571138 1.533523,-0.485143 1.787707,0.129077 2.231906,-0.341765 2.240449,-2.374829 0.0061,-1.454523 0.445521,-1.835827 2.115571,-1.835827 0.662043,0 0.914027,0.208405 0.914027,0.755952 0,0.415774 -0.212611,0.758558 -0.472469,0.76174 -0.348578,0.0043 -0.338344,0.09078 0.03902,0.329909 0.389322,0.246701 0.413547,0.507138 0.101418,1.090356 -0.331034,0.618538 -0.283911,0.815025 0.244456,1.019326 0.770155,0.297789 11.366572,0.282329 11.85137,-0.0173 0.182293,-0.112662 0.331441,-1.045249 0.331441,-2.072415 0,-1.786773 0.04497,-1.867323 1.039434,-1.861785 1.559555,0.0087 1.920465,0.407471 2.052823,2.268278 l 0.120539,1.694683 1.889882,0.188989 1.889881,0.188986 v 1.700893 1.700892 l 1.791883,0.205976 c 2.801787,0.322061 2.932819,0.134702 2.932819,-4.193506 v -3.76098 h 1.322916 1.322917 v 7.349826 7.349825 l -1.795386,0.115205 -1.795388,0.115203 -0.115202,1.795388 -0.115205,1.795386 H 49.30782 c -1.693786,0 -2.297649,0.553378 -1.856983,1.701739 0.11984,0.312293 0.11126,0.99265 -0.01908,1.511903 -0.173037,0.689446 -0.489886,0.944097 -1.174689,0.944097 -0.760164,0 -0.946208,-0.196834 -0.982461,-1.039437 l -0.04472,-1.039434 -0.288536,1.13393 c -0.264517,1.03954 -0.29274,0.992344 -0.339042,-0.566965 -0.02778,-0.93549 -0.192776,-1.925262 -0.366657,-2.199489 -0.24864,-0.392129 -2.357536,-0.494771 -9.876362,-0.480695 -5.25812,0.0098 -9.656111,0.113794 -9.773316,0.231 -0.117205,0.117205 -0.305171,1.013875 -0.417701,1.9926 -0.193357,1.681732 -0.272089,1.786007 -1.433023,1.897941 -1.213606,0.117015 -1.228492,0.09878 -1.234209,-1.511903 z M 44.563392,53.727187 c 0,-0.97716 -0.196832,-1.898304 -0.437404,-2.046984 -0.631127,-0.390059 -3.761322,-0.210807 -4.312923,0.246983 -0.532124,0.441624 -0.499112,3.199236 0.04469,3.733404 0.518482,0.509296 3.267543,0.657246 4.044174,0.217651 0.483045,-0.273415 0.661459,-0.85362 0.661459,-2.151054 z m -15.675801,0.44659 c 0.01556,-2.59121 -0.03621,-2.645834 -2.507496,-2.645834 H 24.15268 v 2.015871 c 0,1.108732 0.120811,2.136688 0.268472,2.284349 0.147662,0.147662 1.21072,0.218533 2.362354,0.157491 l 2.093875,-0.110985 z m 14.044121,-6.874444 c -0.120658,-0.301522 -0.210222,-0.211958 -0.22836,0.228362 -0.0164,0.398449 0.07292,0.621691 0.19852,0.496094 0.125598,-0.125598 0.139028,-0.451604 0.02984,-0.724456 z"
       id="path949"
       inkscape:connector-curvature="0" />
    <path
       style="opacity:1;fill:#ff0000;fill-opacity:1;stroke:#00ffff;stroke-width:0.52916664;stroke-miterlimit:4;stroke-dasharray:none;stroke-opacity:1"
       d="m 44.453875,43.212468 c -0.411802,-1.574734 0.09723,-2.267858 1.665507,-2.267858 1.460471,0 1.467819,0.0076 1.467819,1.511903 0,1.504339 -0.0074,1.511906 -1.467819,1.511906 -1.149942,0 -1.510633,-0.163713 -1.665507,-0.755951 z"
       id="path951"
       inkscape:connector-curvature="0" />
    <path
       style="opacity:1;fill:#ff0000;fill-opacity:1;stroke:#00ffff;stroke-width:0.52916664;stroke-miterlimit:4;stroke-dasharray:none;stroke-opacity:1"
       d="m 21.506846,42.456513 c 0,-1.465979 0.03884,-1.511903 1.278832,-1.511903 1.369515,0 1.868966,0.767133 1.476518,2.267858 -0.148545,0.568044 -0.515565,0.755951 -1.476518,0.755951 -1.239988,0 -1.278832,-0.04593 -1.278832,-1.511906 z"
       id="path953"
       inkscape:connector-curvature="0" />
    <path
       style="opacity:1;fill:#ff0000;fill-opacity:1;stroke:#00ffff;stroke-width:0.52916664;stroke-miterlimit:4;stroke-dasharray:none;stroke-opacity:1"
       d="m 48.023763,68.914846 0.08921,-1.511903 h 1.626994 c 1.7253,0 1.898544,0.271121 1.388764,2.173362 -0.187254,0.698733 -0.492493,0.850447 -1.711045,0.850447 h -1.483132 z"
       id="path955"
       inkscape:connector-curvature="0" />
    <path
       style="opacity:1;fill:#ff0000;fill-opacity:1;stroke:#00ffff;stroke-width:0.52916664;stroke-miterlimit:4;stroke-dasharray:none;stroke-opacity:1"
       d="m 17.349107,68.892031 v -1.53472 l 1.41741,0.117308 c 1.34044,0.110942 1.423781,0.194283 1.534724,1.534723 l 0.117308,1.41741 h -1.534721 -1.534721 z"
       id="path957"
       inkscape:connector-curvature="0" />
    <path
       style="opacity:1;fill:#ff0000;fill-opacity:1;stroke:#00ffff;stroke-width:0.52916664;stroke-miterlimit:4;stroke-dasharray:none;stroke-opacity:1"
       d="m 64.596131,68.722905 v -0.947897 l 138.055799,0.09745 138.0558,0.09745 0.12079,0.850447 0.12078,0.850448 H 202.77271 64.596131 Z m 275.544639,0.191941 c 0,-0.207885 -0.18013,-0.377975 -0.40028,-0.377975 -0.22016,0 -0.29517,0.17009 -0.16669,0.377975 0.12849,0.207889 0.30861,0.377976 0.40029,0.377976 0.0917,0 0.16668,-0.170087 0.16668,-0.377976 z"
       id="path959"
       inkscape:connector-curvature="0" />
    <rect
       style="opacity:1;fill:#ff0000;fill-opacity:1;stroke:#00ffff;stroke-width:0.5291667;stroke-miterlimit:4;stroke-dasharray:none;stroke-opacity:1"
       id="rect1424"
       width="4.2746367"
       height="16.769728"
       x="96.854103"
       y="266.53787"
       ry="0.21470283" />
    <rect
       style="opacity:1;fill:#ff0000;fill-opacity:1;stroke:#00ffff;stroke-width:0.52916819;stroke-miterlimit:4;stroke-dasharray:none;stroke-opacity:1"
       id="rect1424-2"
       width="4.2745914"
       height="13.487494"
       x="278.04865"
       y="-102.8964"
       ry="0.17268039"
       transform="matrix(-0.00622245,0.99998064,-0.99995373,-0.00961953,0,0)" />
    <path
       style="opacity:1;fill:#ff0000;fill-opacity:1;stroke:#00ffff;stroke-width:0.5291667;stroke-miterlimit:4;stroke-dasharray:none;stroke-opacity:1"
       d="m 108.77465,282.10742 c 0,-0.58639 -0.0856,-1.12137 -0.19729,-1.23307 -0.11476,-0.11476 -0.66494,-0.19729 -1.31527,-0.19729 h -1.11798 v -6.09182 -6.09182 l 1.12735,0.0329 c 1.24387,0.0363 1.50319,-0.0508 1.50319,-0.50478 0,-0.16797 0.0925,-0.34273 0.20552,-0.38834 0.16441,-0.0663 0.16441,-0.0855 0,-0.0959 -0.13204,-0.008 -0.20552,-0.27748 -0.20552,-0.75282 v -0.73984 h 6.00094 6.00093 v 1.22199 c 0,1.3899 0.0918,1.48351 1.30567,1.331 0.37912,-0.0476 0.83525,-0.009 1.01361,0.087 0.31389,0.16799 0.3236,0.35697 0.30284,5.89197 -0.0118,3.14513 -0.0723,5.80063 -0.13437,5.90111 -0.0621,0.10048 -0.62875,0.20495 -1.25923,0.23215 l -1.14631,0.0494 -0.0483,1.19197 -0.0483,1.19196 h -5.99373 -5.99374 z m 9.94676,-7.43129 v -6.41196 l -3.98692,-0.044 -3.98692,-0.044 v 6.50001 6.5 l 3.98692,-0.044 3.98692,-0.044 z"
       id="path873-0"
       inkscape:connector-curvature="0" />
    <path
       style="opacity:1;fill:#ff0000;fill-opacity:1;stroke:#00ffff;stroke-width:0.5291667;stroke-miterlimit:4;stroke-dasharray:none;stroke-opacity:1"
       d="m 128.83256,281.77859 c 0,-0.58639 -0.0856,-1.12137 -0.19729,-1.23307 -0.11476,-0.11476 -0.66494,-0.19729 -1.31527,-0.19729 h -1.11798 v -6.09182 -6.09182 l 1.12735,0.0329 c 1.24387,0.0363 1.50319,-0.0508 1.50319,-0.50478 0,-0.16798 0.0925,-0.34273 0.20551,-0.38834 0.16441,-0.0663 0.16441,-0.0855 0,-0.0959 -0.13204,-0.008 -0.20551,-0.27748 -0.20551,-0.75283 v -0.73984 h 6.00094 6.00093 v 1.22199 c 0,1.3899 0.0918,1.48351 1.30567,1.331 0.37912,-0.0476 0.83525,-0.009 1.01361,0.087 0.31389,0.16799 0.3236,0.35698 0.30284,5.89197 -0.0118,3.14513 -0.0723,5.80063 -0.13437,5.90112 -0.0621,0.10048 -0.62875,0.20494 -1.25922,0.23214 l -1.14632,0.0495 -0.0483,1.19197 -0.0483,1.19196 h -5.99373 -5.99374 z m 9.94676,-7.43129 v -6.41195 l -3.98692,-0.044 -3.98693,-0.044 v 6.5 6.50001 l 3.98693,-0.044 3.98692,-0.044 z"
       id="path873-0-0"
       inkscape:connector-curvature="0" />
    <rect
       style="opacity:1;fill:#ff0000;fill-opacity:1;stroke:#00ffff;stroke-width:0.53070301;stroke-miterlimit:4;stroke-dasharray:none;stroke-opacity:1"
       id="rect1424-2-1"
       width="2.3614411"
       height="7.2185812"
       x="199.76624"
       y="-226.73106"
       ry="0.09241949"
       transform="matrix(-0.30654119,0.95185739,-0.91343904,-0.40697559,0,0)" />
    <path
       style="opacity:1;fill:#ff0000;fill-opacity:1;stroke:#00ffff;stroke-width:0.5291667;stroke-miterlimit:4;stroke-dasharray:none;stroke-opacity:1"
       d="m 149.41783,282.51369 c -0.26686,-1.68272 -0.28539,-1.66934 2.43805,-1.75927 l 2.54906,-0.0842 v -6.36656 c 0,-5.53673 -0.0601,-6.38961 -0.46081,-6.54339 -0.25344,-0.0973 -1.44732,-0.17683 -2.65306,-0.17683 -1.87936,0 -2.16701,-0.0657 -2.01543,-0.46081 0.0973,-0.25344 0.17684,-0.58117 0.17684,-0.7283 0,-0.15501 2.93996,-0.26749 6.99171,-0.26749 h 6.99171 v 0.7283 c 0,0.71973 -0.0291,0.7283 -2.47623,0.7283 h -2.47623 v 6.55473 6.55474 h 2.47623 2.47623 v 1.01962 1.01962 h -6.99171 c -3.84544,0 -7.00731,-0.0983 -7.02636,-0.21848 z"
       id="path947-1"
       inkscape:connector-curvature="0" />
    <rect
       style="opacity:1;fill:#ff0000;fill-opacity:1;stroke:#00ffff;stroke-width:0.53047633;stroke-miterlimit:4;stroke-dasharray:none;stroke-opacity:1"
       id="rect1424-8"
       width="4.5038209"
       height="18.056416"
       x="300.57806"
       y="81.15876"
       ry="0.23117627"
       transform="matrix(0.74655633,0.66532221,-0.58798873,0.80886912,0,0)" />
    <rect
       style="opacity:1;fill:#ff0000;fill-opacity:1;stroke:#00ffff;stroke-width:0.53303772;stroke-miterlimit:4;stroke-dasharray:none;stroke-opacity:1"
       id="rect1424-8-3"
       width="4.6353059"
       height="18.871527"
       x="9.0912094"
       y="312.31772"
       ry="0.24161217"
       transform="matrix(-0.72175783,0.69214568,0.55978299,0.82863925,0,0)" />
    <path
       style="opacity:1;fill:#ff0000;fill-opacity:1;stroke:#00ffff;stroke-width:0.5291667;stroke-miterlimit:4;stroke-dasharray:none;stroke-opacity:1"
       d="m 200.41928,281.5198 c 0,-1.05799 -0.16308,-1.36464 -0.72572,-1.36464 -0.20074,0 -0.37977,-0.11673 -0.42099,-0.27449 -0.0683,-0.26142 -0.0726,-0.26142 -0.0899,0 -0.0141,0.2121 -0.15925,0.27449 -0.63874,0.27449 h -0.62054 l -0.0461,-1.13719 -0.0461,-1.13719 -1.21562,-0.0458 -1.21562,-0.0458 v -3.36576 -3.36576 h 1.18132 c 1.36377,0 1.36019,0.003 1.38821,-1.461 l 0.0186,-0.97025 1.01955,-0.002 c 0.56075,-0.001 1.10035,-0.0537 1.1991,-0.11668 0.0987,-0.063 0.18009,-0.48548 0.18075,-0.93892 8.3e-4,-0.45345 0.008,-0.94796 0.0165,-1.09893 0.0143,-0.25613 0.39835,-0.2745 5.74049,-0.2745 h 5.72517 v 1.01956 1.01954 h -4.68641 c -3.55826,0 -4.72538,0.0472 -4.84825,0.19607 -0.089,0.10784 -0.15962,0.5137 -0.15693,0.90191 0.009,1.33587 0.0812,1.25484 -1.11456,1.25484 -0.84121,0 -1.10233,0.0551 -1.1764,0.2481 -0.0524,0.13646 -0.0952,1.82294 -0.0952,3.74772 0,3.97183 -0.10751,3.69003 1.40773,3.69003 1.04071,0 1.06263,0.0266 1.03251,1.25483 -0.0116,0.47448 0.0522,0.91455 0.14178,0.97793 0.0896,0.0634 1.22169,0.11524 2.51574,0.11524 1.29404,0 2.43146,-0.0518 2.52759,-0.11524 0.24961,-0.16458 0.25856,-4.72754 0.01,-4.96127 -0.10148,-0.0953 -0.64331,-0.17329 -1.20406,-0.17329 h -1.01955 l -0.0468,-0.98348 -0.0468,-0.98348 3.34071,0.0424 3.34072,0.0424 0.0416,4.50956 0.0416,4.50955 h -5.72758 -5.72758 z"
       id="path863-5"
       inkscape:connector-curvature="0" />
    <path
       style="opacity:1;fill:#ff0000;fill-opacity:1;stroke:#00ffff;stroke-width:0.5291667;stroke-miterlimit:4;stroke-dasharray:none;stroke-opacity:1"
       d="m 222.33613,268.43475 c 0.27846,-0.0346 0.77255,-0.0352 1.09798,-0.001 0.32544,0.0339 0.0976,0.0623 -0.50628,0.063 -0.60389,6.9e-4 -0.87015,-0.0271 -0.5917,-0.0617 z"
       id="path865-3"
       inkscape:connector-curvature="0" />
    <path
       style="opacity:1;fill:#ff0000;fill-opacity:1;stroke:#00ffff;stroke-width:0.5291667;stroke-miterlimit:4;stroke-dasharray:none;stroke-opacity:1"
       d="m 214.82023,277.21415 c -0.0268,-2.9116 -0.0232,-5.48793 0.008,-5.72517 0.0548,-0.41448 0.0926,-0.43135 0.96751,-0.43135 1.3788,0 1.40672,-0.0249 1.40672,-1.25461 0,-1.01818 0.0178,-1.06867 0.41226,-1.16767 0.22675,-0.0569 0.61338,-0.0593 0.85918,-0.006 0.92661,0.20352 1.08137,0.0219 1.08137,-1.26905 v -1.16584 h 3.38644 3.38644 l -0.0484,1.05876 c -0.0266,0.58232 0.003,1.14042 0.0645,1.24021 0.0717,0.1152 0.48614,0.16528 1.13505,0.13716 0.58611,-0.0254 1.06505,0.0251 1.12272,0.11844 0.0553,0.0895 0.11108,0.62775 0.12394,1.1961 l 0.0234,1.03338 1.20651,0.0458 1.20652,0.0458 v 5.71858 5.71857 h -2.19177 -2.19176 l -0.0434,-2.3136 -0.0434,-2.3136 -3.67527,-0.0421 c -2.09679,-0.024 -3.73739,0.02 -3.81991,0.10247 -0.0796,0.0795 -0.13403,1.13965 -0.12107,2.35577 l 0.0236,2.21113 h -2.1153 -2.1153 z m 11.9152,-3.99977 -0.0431,-2.54889 -1.13719,-0.0461 -1.13719,-0.0461 v -1.07433 c 0,-1.26619 0.002,-1.26474 -1.6598,-1.26474 -0.8126,0 -1.17132,0.0592 -1.18926,0.19607 -0.0141,0.10783 -0.0391,0.4784 -0.0556,0.82349 -0.0688,1.44403 0.0461,1.31458 -1.21277,1.36559 l -1.1372,0.0461 -0.0431,2.54888 -0.0431,2.54888 h 3.85069 3.8507 z"
       id="path867-4"
       inkscape:connector-curvature="0" />
    <path
       style="opacity:1;fill:#ff0000;fill-opacity:1;stroke:#00ffff;stroke-width:0.5291667;stroke-miterlimit:4;stroke-dasharray:none;stroke-opacity:1"
       d="m 233.98605,274.35157 v -8.15642 h 2.20394 2.20394 l -0.0581,1.1062 c -0.0356,0.67638 0.007,1.14871 0.10965,1.21562 0.0923,0.0602 0.62659,0.10942 1.18734,0.10942 h 1.01956 v 1.17641 1.1764 h 1.41169 1.41168 l 0.0457,-1.1206 c 0.0387,-0.94838 0.0917,-1.13263 0.34467,-1.19878 0.19102,-0.05 0.32363,0.0148 0.3674,0.17948 0.0572,0.21516 0.0715,0.21032 0.0867,-0.0293 0.0149,-0.23475 0.10317,-0.2683 0.48523,-0.18438 0.9499,0.20863 1.09949,0.0344 1.1197,-1.30385 0.01,-0.66277 0.0504,-1.08152 0.0899,-0.93055 0.0395,0.15097 0.14469,0.27449 0.23387,0.27449 0.0892,0 0.12032,-0.10896 0.0692,-0.24214 -0.0811,-0.21134 0.16625,-0.2392 1.94389,-0.21899 l 2.03682,0.0231 v 8.14012 8.14012 h -2.19596 -2.19596 v -3.52623 -3.52623 l -0.35775,-0.0898 c -0.19678,-0.0494 -0.81439,-0.0684 -1.37248,-0.0422 l -1.01471,0.0476 -0.0458,1.21562 -0.0458,1.21562 h -0.93453 -0.93452 v -1.06661 c 0,-0.62045 -0.0787,-1.14534 -0.18823,-1.25483 -0.27144,-0.27145 -2.42536,-0.25142 -2.58814,0.024 -0.069,0.11675 -0.23132,0.25235 -0.36072,0.30132 -0.18721,0.0709 -0.1792,0.0916 0.0392,0.10143 0.25232,0.0114 0.2745,0.27852 0.2745,3.30632 v 3.29393 h -2.19596 -2.19596 z m 12.31304,1.25482 c 0.0533,-0.0863 0.0222,-0.15685 -0.0692,-0.15685 -0.0914,0 -0.16611,0.0706 -0.16611,0.15685 0,0.0863 0.0311,0.15686 0.0692,0.15686 0.0381,0 0.1128,-0.0706 0.16612,-0.15686 z m -12.04904,-9.12694 c -0.0501,-0.12513 -0.0872,-0.088 -0.0948,0.0948 -0.007,0.16536 0.0303,0.258 0.0824,0.20588 0.0521,-0.0521 0.0577,-0.18741 0.0124,-0.30064 z"
       id="path869-1"
       inkscape:connector-curvature="0" />
    <path
       style="opacity:1;fill:#ff0000;fill-opacity:1;stroke:#00ffff;stroke-width:0.5291667;stroke-miterlimit:4;stroke-dasharray:none;stroke-opacity:1"
       d="m 253.12224,274.35157 v -8.15642 h 8.15641 8.15642 v 1.01955 1.01956 h -5.96045 -5.96046 v 2.58809 c 0,1.96355 0.0473,2.58915 0.19607,2.5925 0.10783,0.003 2.26407,4.2e-4 4.79164,-0.004 l 4.59558,-0.009 -0.0468,0.98466 -0.0468,0.98466 -4.6272,0.0351 c -2.54496,0.0193 -4.68013,0.037 -4.74483,0.0392 -0.0647,0.002 -0.11765,1.16875 -0.11765,2.5922 v 2.5881 h 5.96046 5.96046 v 0.94112 0.94112 h -8.15642 -8.15641 z"
       id="path871-6"
       inkscape:connector-curvature="0" />
    <rect
       style="opacity:1;fill:#ff0000;fill-opacity:1;stroke:#00ffff;stroke-width:0.52916867;stroke-miterlimit:4;stroke-dasharray:none;stroke-opacity:1"
       id="rect1424-2-4"
       width="2.5547328"
       height="12.867346"
       x="264.39957"
       y="-286.97278"
       ry="0.16474065"
       transform="matrix(-0.009933,0.99995067,-0.99998184,-0.00602607,0,0)" />
    <rect
       style="opacity:1;fill:#ff0000;fill-opacity:1;stroke:#00ffff;stroke-width:0.52918655;stroke-miterlimit:4;stroke-dasharray:none;stroke-opacity:1"
       id="rect1424-2-4-3"
       width="2.5546618"
       height="9.4235992"
       x="-268.59808"
       y="-277.64938"
       ry="0.12065037"
       transform="matrix(-0.99996788,0.00801499,-0.02027874,-0.99979437,0,0)" />
    <rect
       style="opacity:1;fill:#ff0000;fill-opacity:1;stroke:#00ffff;stroke-width:0.52916867;stroke-miterlimit:4;stroke-dasharray:none;stroke-opacity:1"
       id="rect1424-2-4-2"
       width="2.5547328"
       height="12.867346"
       x="271.26526"
       y="-287.25745"
       ry="0.16474065"
       transform="matrix(-0.009933,0.99995067,-0.99998184,-0.00602607,0,0)" />
    <rect
       style="opacity:1;fill:#ff0000;fill-opacity:1;stroke:#00ffff;stroke-width:0.52918655;stroke-miterlimit:4;stroke-dasharray:none;stroke-opacity:1"
       id="rect1424-2-4-3-0"
       width="2.5546618"
       height="9.4235992"
       x="-278.98447"
       y="-284.69916"
       ry="0.12065037"
       transform="matrix(-0.99996788,0.00801499,-0.02027874,-0.99979437,0,0)" />
    <rect
       style="opacity:1;fill:#ff0000;fill-opacity:1;stroke:#00ffff;stroke-width:0.52916867;stroke-miterlimit:4;stroke-dasharray:none;stroke-opacity:1"
       id="rect1424-2-4-4"
       width="2.5547328"
       height="12.867346"
       x="278.13092"
       y="-287.54211"
       ry="0.16474065"
       transform="matrix(-0.009933,0.99995067,-0.99998184,-0.00602607,0,0)" />
    <path
       style="opacity:1;fill:#ff0000;fill-opacity:1;stroke:#00ffff;stroke-width:0.5291667;stroke-miterlimit:4;stroke-dasharray:none;stroke-opacity:1"
       d="m 17.854103,281.75614 c 0,-0.49801 -0.0502,-0.95234 -0.11552,-1.04719 -0.0672,-0.0975 -0.38941,-0.16756 -0.77026,-0.16756 h -0.65474 v -5.17354 -5.17354 l 0.66022,0.028 c 0.72845,0.0309 0.88032,-0.0432 0.88032,-0.42869 0,-0.14266 0.0541,-0.29108 0.12042,-0.32981 0.0963,-0.0563 0.0963,-0.0726 0,-0.0815 -0.0774,-0.008 -0.12042,-0.23565 -0.12042,-0.63934 v -0.62832 h 3.5144 3.51438 v 1.03779 c 0,1.18039 0.0538,1.25988 0.76464,1.13038 0.22203,-0.0405 0.48916,-0.008 0.59362,0.0739 0.18383,0.14267 0.18951,0.30316 0.17735,5.0038 -0.006,2.67103 -0.0423,4.92625 -0.0786,5.01158 -0.0363,0.0854 -0.36822,0.17405 -0.73745,0.19715 l -0.67133,0.042 -0.0284,1.01229 -0.0282,1.01228 h -3.51018 -3.51016 z m 5.82521,-6.3111 v -5.44542 l -2.33489,-0.0374 -2.3349,-0.0374 v 5.52019 5.52019 l 2.3349,-0.0374 2.33489,-0.0374 z"
       id="path873-2"
       inkscape:connector-curvature="0" />
    <path
       style="opacity:1;fill:#ff0000;fill-opacity:1;stroke:#00ffff;stroke-width:0.5291667;stroke-miterlimit:4;stroke-dasharray:none;stroke-opacity:1"
       d="m 133.87053,139.34332 c -0.30265,-0.79605 -0.56811,-3.05535 -0.5899,-5.02068 -0.0218,-1.96535 -0.2022,-4.65579 -0.40091,-5.97876 l -0.36128,-2.40544 -10.95805,-0.26728 -10.95805,-0.26725 -0.15101,-5.67678 -0.15102,-5.67678 3.09098,-2.83504 c 4.08107,-3.74314 13.33198,-11.07917 24.20527,-19.194928 4.85094,-3.62071 9.78207,-7.49403 10.95805,-8.60736 3.15143,-2.98355 4.52356,-3.00821 5.78965,-0.10406 0.68753,1.57703 0.96134,4.85444 1.2839,15.368 0.40447,13.183018 0.42576,13.365708 1.57653,13.529538 1.43356,0.20408 4.00442,-1.08094 6.90661,-3.45221 1.20627,-0.98559 2.62013,-1.79199 3.14192,-1.79199 0.81421,0 0.89807,0.31666 0.59153,2.23366 -0.45792,2.86371 -4.27197,12.63774 -5.83781,14.9602 -1.06114,1.5739 -1.48032,1.78228 -3.5852,1.78228 h -2.38358 l -0.3934,2.40544 c -0.21637,1.32297 -0.53446,3.78939 -0.70687,5.48092 -0.22094,2.16757 -0.59189,3.2245 -1.25656,3.58024 -1.38087,0.739 -11.50224,2.72997 -15.66812,3.08202 -3.52879,0.29824 -3.60214,0.278 -4.14268,-1.14374 z m -0.28711,-27.7038 c 0.56621,-1.6476 1.26705,-10.84435 0.8576,-11.2538 -0.66593,-0.665918 -13.41517,9.71409 -13.41517,10.92218 0,0.65418 1.65856,0.87326 7.09942,0.93779 3.7502,0.0445 5.29345,-0.12692 5.45815,-0.60617 z"
       id="path1779"
       inkscape:connector-curvature="0" />
    <path
       style="opacity:1;fill:#ff0000;fill-opacity:1;stroke:#00ffff;stroke-width:0.52916664;stroke-miterlimit:4;stroke-dasharray:none;stroke-opacity:1"
       d="m 197.52498,143.12731 c -9.29201,-2.61171 -16.50619,-10.14278 -19.04201,-19.87846 -1.15657,-4.44037 -1.03299,-12.95895 0.26142,-18.02004 1.33039,-5.20178 3.26583,-8.797229 6.77156,-12.579488 5.37863,-5.802889 11.01957,-8.045937 20.23434,-8.045937 9.16917,0 15.55443,2.361396 20.85452,7.712425 5.39635,5.448207 7.72127,11.87583 7.73542,21.3858 0.0134,9.01004 -2.31792,15.67056 -7.45081,21.28677 -3.22164,3.52499 -6.70477,5.86084 -11.02604,7.39423 -4.24583,1.50664 -14.1907,1.91048 -18.3384,0.7447 z m 10.84136,-5.58303 c 3.34538,-1.2719 4.60023,-7.11793 4.60023,-21.43125 0,-15.71145 -1.64955,-23.148089 -5.54914,-25.017114 -1.35677,-0.650279 -1.67594,-0.616391 -2.93119,0.311217 -2.03127,1.501068 -3.1578,4.233267 -4.07355,9.879687 -1.49892,9.24219 -0.71453,24.43572 1.6267,31.5093 0.89673,2.70928 2.92669,5.26116 4.18512,5.26116 0.43589,0 1.39972,-0.23085 2.14183,-0.513 z"
       id="path1781"
       inkscape:connector-curvature="0" />
    <path
       style="opacity:1;fill:#ff0000;fill-opacity:1;stroke:#00ffff;stroke-width:0.52916664;stroke-miterlimit:4;stroke-dasharray:none;stroke-opacity:1"
       d="m 264.29806,142.64227 c -0.30265,-0.79605 -0.56811,-3.05535 -0.5899,-5.02068 -0.0218,-1.96535 -0.2022,-4.65579 -0.40091,-5.97876 l -0.36128,-2.40543 -10.95805,-0.26729 -10.95805,-0.26725 -0.15101,-5.67678 -0.15102,-5.67678 3.09098,-2.83503 c 4.08107,-3.74315 13.33198,-11.07918 24.20527,-19.194942 4.85094,-3.620712 9.78207,-7.494029 10.95805,-8.607367 3.15142,-2.983542 4.52356,-3.008201 5.78965,-0.104055 0.68753,1.577033 0.96134,4.854437 1.2839,15.367994 0.40446,13.18303 0.42575,13.36572 1.57653,13.52955 1.43355,0.20408 4.00442,-1.08094 6.90661,-3.45221 1.20627,-0.98559 2.62013,-1.79199 3.14192,-1.79199 0.81421,0 0.89807,0.31667 0.59153,2.23366 -0.45793,2.86371 -4.27197,12.63774 -5.83781,14.9602 -1.06114,1.5739 -1.48032,1.78229 -3.58521,1.78229 h -2.38357 l -0.3934,2.40543 c -0.21637,1.32297 -0.53446,3.78939 -0.70687,5.48092 -0.22094,2.16757 -0.59189,3.22451 -1.25656,3.58024 -1.38087,0.73901 -11.50223,2.72997 -15.66812,3.08202 -3.52879,0.29824 -3.60214,0.278 -4.14268,-1.14374 z m -0.2871,-27.7038 c 0.5662,-1.6476 1.26704,-10.84435 0.85759,-11.2538 -0.66592,-0.66593 -13.41517,9.71409 -13.41517,10.92219 0,0.65417 1.65856,0.87325 7.09942,0.93778 3.7502,0.0445 5.29346,-0.12692 5.45816,-0.60617 z"
       id="path1783"
       inkscape:connector-curvature="0" />
    <path
       style="opacity:1;fill:#ff0000;fill-opacity:1;stroke:#00ffff;stroke-width:0.52487642;stroke-miterlimit:4;stroke-dasharray:none;stroke-opacity:1"
       d="m 32.32372,207.01189 c -0.472656,-0.46868 -0.07653,-1.89698 0.585306,-2.1105 1.600157,-0.5162 1.881348,-3.23763 0.495363,-4.79428 -0.816979,-0.91754 -4.394229,-0.98435 -4.7325,-0.0884 -0.124147,0.32883 -0.225723,2.02973 -0.225723,3.77976 0,1.75554 -0.158217,3.18188 -0.352947,3.18188 -0.817836,0 -3.365774,-4.27778 -3.365774,-5.65086 0,-1.07051 0.619279,-0.9701 1.221434,0.19801 0.781234,1.51553 1.179866,0.59031 2.291925,-5.31947 2.044094,-10.86284 5.83581,-24.00147 6.926652,-24.00147 0.338906,0 1.682653,4.22 2.948717,9.26036 0.829206,3.30121 2.293505,11.90512 2.990614,17.57225 0.547579,4.45151 0.799622,5.13713 2.00121,5.44365 0.783465,0.19986 0.9568,0.4677 0.9568,1.47838 v 1.23431 l -5.791123,-0.013 c -3.185118,-0.007 -5.862596,-0.0839 -5.949954,-0.17057 z m 0.688501,-11.74895 c -0.09571,-1.97673 -1.277539,-5.75223 -1.862642,-5.95046 -0.233192,-0.079 -0.739706,1.32951 -1.209476,3.36333 -0.757604,3.27994 -0.768566,3.52875 -0.174916,3.96995 0.348338,0.25889 1.239951,0.43632 1.981362,0.3943 l 1.348018,-0.0764 z"
       id="path1787"
       inkscape:connector-curvature="0" />
    <path
       style="opacity:1;fill:#ff0000;fill-opacity:1;stroke:#00ffff;stroke-width:0.52487642;stroke-miterlimit:4;stroke-dasharray:none;stroke-opacity:1"
       d="m 53.970454,207.18268 c -4.316126,-1.56393 -6.186933,-6.92573 -6.186933,-17.73203 0,-8.09744 1.223561,-12.45351 4.31034,-15.34552 1.399737,-1.3114 1.855976,-1.52058 3.316675,-1.52058 1.885418,0 3.821681,0.69172 4.597331,1.64235 0.735942,0.90196 1.071315,0.77655 1.348049,-0.50409 0.134252,-0.62127 0.398563,-1.22663 0.587357,-1.34522 0.538894,-0.33851 0.390692,2.60546 -0.400483,7.95547 -0.399658,2.70253 -0.730496,5.38143 -0.735197,5.95312 -0.01039,1.26333 0.765901,1.36708 2.121213,0.2835 1.953994,-1.56226 2.46847,-0.56869 1.368447,2.64277 -0.514536,1.50217 -0.528064,2.55989 -0.117392,9.17736 0.328511,5.29357 0.34835,7.59722 0.06788,7.88231 -0.280471,0.28506 -0.471497,-0.0497 -0.653624,-1.14536 -0.141536,-0.85148 -0.460812,-1.54815 -0.709507,-1.54815 -0.248696,0 -1.028862,0.6102 -1.733707,1.35604 -1.480123,1.56617 -3.663434,2.80905 -4.892472,2.78511 -0.468339,-0.009 -1.497927,-0.25083 -2.287972,-0.53708 z m 4.2782,-4.26553 c 0.295008,-0.75494 0.289798,-2.21517 -0.01903,-5.33519 -0.470844,-4.75679 -0.801311,-5.72061 -1.96139,-5.72061 -0.765802,0 -0.780567,0.10885 -0.576777,4.25222 0.33158,6.74166 1.434614,9.67634 2.557199,6.80358 z m -0.16247,-13.7495 c 1.77613,-1.11572 2.07072,-2.14307 1.601219,-5.58406 -0.74859,-5.48637 -2.011549,-8.73172 -3.005066,-7.72189 -0.714089,0.72581 -1.35104,7.76825 -1.147959,12.69236 0.06926,1.67947 0.637511,1.81612 2.551806,0.61359 z"
       id="path1789"
       inkscape:connector-curvature="0" />
    <path
       style="opacity:1;fill:#ff0000;fill-opacity:1;stroke:#00ffff;stroke-width:0.52487642;stroke-miterlimit:4;stroke-dasharray:none;stroke-opacity:1"
       d="m 69.421775,206.11003 c 0.07467,-0.53334 0.515449,-0.96578 1.231883,-1.20851 2.154754,-0.73004 2.045297,0.0513 2.045297,-14.59923 0,-8.6587 -0.140042,-13.87565 -0.384955,-14.34079 -0.211727,-0.40211 -0.700066,-0.73112 -1.085204,-0.73112 -1.258648,0 -1.87669,-0.44315 -1.87669,-1.34567 v -0.8868 l 6.595857,0.0768 c 5.978312,0.0696 6.607696,0.13941 6.722316,0.74539 0.08809,0.46577 -0.269351,0.83669 -1.17828,1.22272 -0.717609,0.30474 -1.413934,0.73366 -1.547392,0.95316 -0.287484,0.47278 -0.284728,27.48272 0.0029,27.95566 0.108606,0.17862 0.698967,0.4367 1.31191,0.57354 1.189632,0.26559 1.969762,1.27198 1.537302,1.98321 -0.181251,0.29808 -2.315363,0.4322 -6.876987,0.4322 -6.599569,0 -6.613922,-0.003 -6.497913,-0.83056 z"
       id="path1791"
       inkscape:connector-curvature="0" />
    <path
       style="opacity:1;fill:#ff0000;fill-opacity:1;stroke:#00ffff;stroke-width:0.52487642;stroke-miterlimit:4;stroke-dasharray:none;stroke-opacity:1"
       d="m 98.966808,205.75197 c -0.7079,-1.29929 -2.512349,-4.87116 -4.009885,-7.9375 -1.497533,-3.06633 -2.875556,-5.57516 -3.062274,-5.57516 -0.510038,0 0.0049,6.68303 0.69167,8.9763 0.397645,1.32789 0.958195,2.2574 1.695445,2.81141 0.772013,0.58015 1.101394,1.14948 1.101394,1.90373 v 1.07609 l -3.781489,-0.10771 c -2.567332,-0.0731 -3.829855,-0.25599 -3.932126,-0.56947 -0.163772,-0.50199 1.290715,-2.14982 2.156663,-2.44332 0.453793,-0.1538 0.536676,-2.19093 0.536676,-13.19051 0,-14.3283 -0.05395,-14.70948 -2.08194,-14.70948 -1.046453,0 -1.117854,-0.0869 -1.009565,-1.22844 l 0.116528,-1.2284 2.951063,-0.297 c 1.623082,-0.16335 3.166388,-0.21301 3.42957,-0.11036 0.263179,0.10266 1.723078,2.70259 3.244216,5.77766 2.052508,4.14922 2.83404,5.41655 3.030696,4.91447 0.31946,-0.81557 -0.435525,-4.95593 -1.165247,-6.39021 -0.287885,-0.56584 -0.953381,-1.46582 -1.478895,-1.99996 -0.525506,-0.53414 -0.887871,-1.17893 -0.805251,-1.43288 0.08324,-0.25588 1.131682,-0.56552 2.351667,-0.6945 1.210796,-0.12801 2.805616,-0.3551 3.544046,-0.50464 1.02416,-0.20738 1.39297,-0.13841 1.55502,0.2908 0.36991,0.9798 -0.16519,2.14754 -1.0925,2.38411 -0.49228,0.12557 -1.05798,0.53776 -1.25712,0.91593 -0.21658,0.41135 -0.36205,6.4497 -0.36205,15.02834 0,13.9125 -0.12899,16.70303 -0.77204,16.70303 -0.16895,0 -0.886371,-1.06304 -1.594272,-2.36233 z"
       id="path1793"
       inkscape:connector-curvature="0" />
    <path
       style="opacity:1;fill:#ff0000;fill-opacity:1;stroke:#00ffff;stroke-width:0.52487642;stroke-miterlimit:4;stroke-dasharray:none;stroke-opacity:1"
       d="m 115.40342,206.71347 c -0.43875,-0.53335 -0.12146,-1.16523 1.066,-2.12286 1.02451,-0.82624 1.16517,-3.03837 0.2753,-4.32969 -0.47633,-0.69123 -0.93364,-0.84006 -2.58116,-0.84006 -1.10124,0 -2.11149,0.17963 -2.245,0.39921 -0.1335,0.21955 -0.22756,1.82568 -0.20901,3.56917 0.0186,1.7435 -0.10879,3.25951 -0.28297,3.36892 -0.78453,0.49281 -3.4028,-3.57452 -3.38501,-5.25844 l 0.012,-1.13392 0.86944,1.0804 c 0.52902,0.65738 0.96597,0.92167 1.11596,0.67503 0.13557,-0.22297 0.91821,-3.7447 1.7392,-7.82609 1.63837,-8.1448 3.37785,-14.65077 5.20403,-19.46391 1.1765,-3.10086 1.19061,-3.11848 1.7019,-2.12659 1.56273,3.03152 4.14506,15.12126 5.53451,25.91099 l 0.65075,5.05341 1.26742,0.76007 c 1.00475,0.60253 1.24401,0.96528 1.15444,1.75016 l -0.11298,0.9901 h -5.69987 c -3.99428,0 -5.8121,-0.13642 -6.07494,-0.4559 z m 0.93676,-10.96875 c -0.073,-1.65407 -1.55729,-6.52921 -1.98783,-6.52921 -0.40644,0 -1.32829,2.98448 -1.69994,5.5035 -0.30785,2.08653 0.0466,2.45258 2.25404,2.32754 1.42293,-0.0806 1.48515,-0.13708 1.43373,-1.30183 z"
       id="path1795"
       inkscape:connector-curvature="0" />
    <path
       style="opacity:1;fill:#ff0000;fill-opacity:1;stroke:#00ffff;stroke-width:0.52487642;stroke-miterlimit:4;stroke-dasharray:none;stroke-opacity:1"
       d="m 151.2511,204.61805 c -1.03907,-1.92297 -2.86097,-5.49484 -4.04864,-7.9375 -1.18767,-2.44269 -2.31314,-4.44124 -2.50102,-4.44124 -0.50777,0 0.003,6.06501 0.73316,8.71111 0.45407,1.64486 0.92225,2.48756 1.69115,3.04406 0.75584,0.54702 1.06325,1.08992 1.06325,1.87772 v 1.10818 h -3.71872 c -3.69577,0 -3.71872,-0.006 -3.71872,-0.92355 0,-0.6209 0.35785,-1.13843 1.09191,-1.57917 0.60055,-0.3606 1.19798,-1.08514 1.32761,-1.6101 0.12963,-0.52496 0.23283,-6.17661 0.22932,-12.55918 -0.007,-12.99771 -0.18091,-14.15881 -2.15347,-14.38844 -0.89548,-0.10422 -1.05317,-0.29237 -1.05317,-1.25651 v -1.13392 l 3.15496,-0.312 c 3.14336,-0.31083 3.15794,-0.30821 3.95908,0.71303 0.44225,0.56372 1.76648,3.1279 2.94273,5.69812 1.17626,2.57024 2.30518,4.67315 2.5087,4.67315 0.50971,0 0.0714,-3.8889 -0.69439,-6.16085 -0.33863,-1.00468 -1.0079,-2.07817 -1.49991,-2.40583 -0.52561,-0.35005 -0.88843,-0.95983 -0.88843,-1.49315 0,-0.79785 0.16885,-0.90147 1.46918,-0.90147 0.80805,0 2.33027,-0.18772 3.38272,-0.41711 2.19162,-0.47773 2.80734,-0.15462 2.45148,1.28654 -0.13493,0.54641 -0.68165,1.11558 -1.33633,1.39123 -0.6094,0.25656 -1.17296,0.74583 -1.25235,1.08728 -0.0794,0.34144 -0.17225,7.08419 -0.20632,14.98391 -0.0603,13.98521 -0.17397,16.44194 -0.76071,16.44194 -0.15611,0 -1.13399,-1.57331 -2.17307,-3.49625 z"
       id="path1797"
       inkscape:connector-curvature="0" />
    <path
       style="opacity:1;fill:#ff0000;fill-opacity:1;stroke:#00ffff;stroke-width:0.52487642;stroke-miterlimit:4;stroke-dasharray:none;stroke-opacity:1"
       d="m 166.59668,207.37186 c -4.19518,-2.14559 -6.78604,-11.81262 -5.80431,-21.65715 0.85143,-8.53803 3.47027,-12.72114 8.16487,-13.04187 1.79806,-0.12285 2.32308,0.005 3.63196,0.88021 3.0056,2.01123 4.77678,6.26116 5.34597,12.82764 0.6241,7.19984 -0.52234,14.41016 -2.86273,18.00479 -1.93643,2.97418 -5.82244,4.34337 -8.47576,2.98638 z m 3.96879,-3.69877 c 0.69351,-1.99118 0.70566,-24.14127 0.0145,-26.45833 -0.85641,-2.87108 -1.74064,-1.88431 -2.2881,2.55352 -0.728,5.90116 -0.36495,21.58558 0.57082,24.66078 0.33867,1.11294 1.18229,0.7384 1.70278,-0.75597 z"
       id="path1799"
       inkscape:connector-curvature="0" />
    <path
       style="opacity:1;fill:#ff0000;fill-opacity:1;stroke:#00ffff;stroke-width:0.52487642;stroke-miterlimit:4;stroke-dasharray:none;stroke-opacity:1"
       d="m 191.32618,206.14872 c 0,-0.922 0.14252,-1.05821 1.10704,-1.05821 2.16836,0 2.20835,-0.28326 2.10841,-14.93715 -0.0497,-7.27993 -0.22052,-13.45044 -0.37972,-13.71225 -0.15919,-0.2618 -0.90419,-0.76956 -1.65556,-1.12831 -0.80861,-0.38613 -1.4102,-0.96465 -1.47416,-1.41767 -0.10556,-0.74771 0.0782,-0.76591 7.99526,-0.79097 5.4905,-0.0175 8.19139,0.10798 8.3765,0.38883 0.33925,0.51467 0.36543,5.37623 0.0456,8.48554 -0.25022,2.43326 -0.8752,3.21193 -0.87877,1.09487 -0.003,-2.01031 -0.70994,-4.00021 -1.9161,-5.3965 -1.20828,-1.39874 -2.67485,-1.74101 -3.06232,-0.71472 -0.28115,0.7447 -0.2321,4.9525 0.0899,7.71745 l 0.24212,2.0787 1.36745,-0.12092 c 1.06285,-0.094 1.45629,0.0478 1.76638,0.63678 0.43942,0.83452 0.47846,4.85034 0.0759,7.79994 l -0.25797,1.88989 -0.26854,-2.43022 c -0.30141,-2.7277 -1.26835,-5.07336 -2.16011,-5.24013 -0.507,-0.0948 -0.62761,0.58751 -0.8352,4.72472 -0.30732,6.12465 -0.31121,9.74556 -0.0108,10.05089 0.31912,0.32435 1.63252,-0.42588 2.44506,-1.39661 1.21334,-1.4496 3.64194,-6.72224 3.64194,-7.90689 0,-0.87958 0.10514,-1.05888 0.4283,-0.7304 0.32317,0.32845 0.32267,1.89709 -0.002,6.38984 -0.23668,3.27499 -0.55493,6.07216 -0.70721,6.21596 -0.15226,0.14381 -3.83288,0.32991 -8.17913,0.41357 l -7.90229,0.15214 z"
       id="path1801"
       inkscape:connector-curvature="0" />
    <path
       style="opacity:1;fill:#ff0000;fill-opacity:1;stroke:#00ffff;stroke-width:0.52487642;stroke-miterlimit:4;stroke-dasharray:none;stroke-opacity:1"
       d="m 224.13805,204.61805 c -1.03908,-1.92297 -2.86097,-5.49484 -4.04864,-7.9375 -1.18768,-2.44269 -2.31313,-4.44124 -2.50103,-4.44124 -0.50775,0 0.003,6.06501 0.73317,8.71111 0.45406,1.64486 0.92224,2.48756 1.69115,3.04406 0.75584,0.54702 1.06326,1.08992 1.06326,1.87772 v 1.10818 h -3.71872 c -3.69579,0 -3.71873,-0.006 -3.71873,-0.92355 0,-0.61976 0.35724,-1.13808 1.08599,-1.57562 0.73644,-0.44218 1.16244,-1.06625 1.32351,-1.93892 0.13063,-0.70776 0.23368,-6.36786 0.229,-12.57795 -0.01,-12.64695 -0.18807,-13.81681 -2.14314,-14.0444 -0.89547,-0.10422 -1.05317,-0.29237 -1.05317,-1.25651 v -1.13392 l 3.15497,-0.312 c 3.14335,-0.31083 3.15793,-0.30821 3.95907,0.71303 0.44225,0.56372 1.76648,3.1279 2.94274,5.69812 1.17625,2.57024 2.30517,4.67315 2.5087,4.67315 0.5097,0 0.0714,-3.8889 -0.69439,-6.16085 -0.33864,-1.00468 -1.0079,-2.07817 -1.49991,-2.40583 -0.52561,-0.35005 -0.88844,-0.95983 -0.88844,-1.49315 0,-0.79785 0.16887,-0.90147 1.46918,-0.90147 0.80806,0 2.33028,-0.18772 3.38272,-0.41711 2.19163,-0.47773 2.80735,-0.15462 2.45149,1.28654 -0.13494,0.54641 -0.68165,1.11558 -1.33634,1.39123 -0.60938,0.25656 -1.17543,0.74583 -1.25788,1.08728 -0.0824,0.34144 -0.18082,7.16925 -0.21859,15.1729 -0.0663,14.05607 -0.16822,16.25295 -0.75367,16.25295 -0.15018,0 -1.12322,-1.57331 -2.1623,-3.49625 z"
       id="path1803"
       inkscape:connector-curvature="0" />
    <path
       style="opacity:1;fill:#ff0000;fill-opacity:1;stroke:#00ffff;stroke-width:0.52487642;stroke-miterlimit:4;stroke-dasharray:none;stroke-opacity:1"
       d="m 239.29769,207.46941 c -0.96642,-0.35909 -2.27732,-1.75982 -3.01468,-3.2213 -1.53972,-3.05176 -1.97361,-6.12333 -1.99002,-14.08766 -0.014,-6.77339 0.0699,-7.83469 0.80568,-10.20535 1.08028,-3.48033 2.65082,-5.94183 4.29803,-6.73632 1.73992,-0.83921 2.39452,-0.79687 4.2368,0.2739 1.72108,1.00033 2.3498,0.76438 2.3692,-0.88922 0.0105,-0.89365 0.0416,-0.91082 0.42697,-0.23587 0.30715,0.53792 0.2985,2.40731 -0.033,7.16021 -0.48509,6.95272 -1.1184,9.60202 -1.13762,4.75892 -0.018,-4.52969 -1.51231,-9.20001 -2.59019,-8.09519 -1.55786,1.59679 -1.47735,25.31613 0.0914,26.91059 0.83475,0.84846 1.66735,-0.5791 2.60221,-4.4617 0.96116,-3.99185 1.43569,-3.83468 0.94221,0.31205 -0.78471,6.594 -3.45303,9.83737 -7.00685,8.51694 z"
       id="path1805"
       inkscape:connector-curvature="0" />
    <path
       style="opacity:1;fill:#ff0000;fill-opacity:1;stroke:#00ffff;stroke-width:0.52487642;stroke-miterlimit:4;stroke-dasharray:none;stroke-opacity:1"
       d="m 257.65018,207.70047 c -2.18544,-0.6418 -4.35728,-3.87308 -5.58019,-8.30228 -0.54302,-1.96673 -0.67237,-3.84953 -0.67361,-9.80472 -9.9e-4,-6.74031 0.0716,-7.5779 0.8544,-9.79604 1.69064,-4.79078 4.20909,-7.21288 7.49988,-7.21288 3.25122,0 5.73338,2.2515 7.29116,6.61358 2.28931,6.41051 1.99394,18.46156 -0.5781,23.58596 -1.97816,3.94115 -5.48093,5.89507 -8.81354,4.91638 z m 3.2545,-3.6494 c 1.103,-2.92571 1.1394,-23.23475 0.0486,-27.09516 -0.38471,-1.36144 -1.02411,-1.63681 -1.53732,-0.66214 -0.53924,1.02412 -1.15208,8.1176 -1.15245,13.33931 -2.6e-4,5.45206 0.64702,13.81212 1.14249,14.75309 0.5223,0.99197 1.04223,0.87571 1.49871,-0.3351 z"
       id="path1807"
       inkscape:connector-curvature="0" />
    <path
       style="opacity:1;fill:#ff0000;fill-opacity:1;stroke:#00ffff;stroke-width:0.52487642;stroke-miterlimit:4;stroke-dasharray:none;stroke-opacity:1"
       d="m 285.11616,205.60018 c -0.81666,-1.4237 -2.60197,-4.88474 -3.96735,-7.69122 -1.36538,-2.80647 -2.63865,-5.26426 -2.82946,-5.46175 -0.56531,-0.58507 -0.39663,5.01079 0.233,7.7296 0.42887,1.85192 0.894,2.79553 1.88907,3.83235 0.79204,0.82526 1.2671,1.65688 1.18757,2.07886 -0.1173,0.62259 -0.56987,0.71575 -3.93986,0.81111 -3.55526,0.10056 -3.80733,0.0592 -3.80733,-0.62482 0,-0.40288 0.62754,-1.24423 1.39453,-1.86968 l 1.39452,-1.13717 v -12.41214 c 0,-13.83956 -0.14258,-14.86897 -2.05943,-14.86897 -1.11982,0 -1.42804,-0.44855 -1.18742,-1.72797 0.13751,-0.73112 0.47171,-0.83648 3.37144,-1.06304 2.82317,-0.22056 3.28154,-0.16902 3.72924,0.41931 0.28074,0.36893 1.61745,2.96701 2.97046,5.77347 l 2.46002,5.10268 0.12033,-1.81383 c 0.17008,-2.56389 -0.77696,-5.57374 -2.14304,-6.8109 -0.61915,-0.56073 -1.12572,-1.33382 -1.12572,-1.71797 0,-0.59285 0.40778,-0.73509 2.69608,-0.94051 1.48284,-0.13314 3.1685,-0.34997 3.7459,-0.48189 1.00329,-0.22921 1.0445,-0.18444 0.92968,1.00997 -0.0895,0.93104 -0.4047,1.40925 -1.23577,1.87492 l -1.11561,0.6251 -0.19503,15.55168 c -0.13498,10.76251 -0.32375,15.68252 -0.613,15.97652 -0.30937,0.31446 -0.80375,-0.2477 -1.90282,-2.16371 z"
       id="path1809"
       inkscape:connector-curvature="0" />
    <path
       style="opacity:1;fill:#ff0000;fill-opacity:1;stroke:#00ffff;stroke-width:0.52487642;stroke-miterlimit:4;stroke-dasharray:none;stroke-opacity:1"
       d="m 296.73065,207.24928 c -0.31535,-0.83529 0.47841,-2.15877 1.29473,-2.15877 0.3792,0 1.0404,-0.29765 1.46932,-0.66145 0.76297,-0.64715 0.78069,-0.94547 0.81858,-13.77691 0.0212,-7.21349 -0.07,-13.29418 -0.20279,-13.51264 -0.45342,-0.74568 -1.39968,-0.39831 -2.80447,1.02954 -1.36218,1.38454 -1.94628,2.80054 -2.41717,5.85978 -0.45407,2.95 -0.92595,0.80913 -0.92595,-4.20094 0,-3.80074 0.13723,-5.38433 0.51393,-5.93082 0.48812,-0.70811 0.97852,-0.74555 9.76165,-0.74555 h 9.24771 l 0.29332,4.91369 c 0.41547,6.95997 -0.21128,9.78696 -1.14792,5.17776 -0.24508,-1.20602 -0.94595,-2.99469 -1.55749,-3.97481 -1.05553,-1.69175 -2.70806,-2.92833 -3.21912,-2.40887 -0.29769,0.30258 -0.43439,26.22333 -0.14085,26.70611 0.11918,0.19598 0.8771,0.57679 1.68426,0.84622 1.04481,0.34877 1.57126,0.78989 1.8275,1.53128 0.54946,1.58977 0.0365,1.81207 -3.13273,1.3576 -2.64561,-0.37941 -5.44736,-0.29599 -9.38155,0.27932 -1.40847,0.20595 -1.80328,0.14007 -1.98096,-0.33054 z"
       id="path1811"
       inkscape:connector-curvature="0" />
    <path
       style="opacity:1;fill:#ff0000;fill-opacity:1;stroke:#00ffff;stroke-width:0.52487642;stroke-miterlimit:4;stroke-dasharray:none;stroke-opacity:1"
       d="m 318.3456,207.06888 c -0.59994,-0.60978 -0.13608,-1.99834 0.83872,-2.51071 2.14451,-1.12718 2.09154,-0.76565 2.15836,-14.73038 0.0339,-7.09309 -0.0159,-13.19417 -0.11075,-13.55797 -0.12115,-0.46461 -0.54584,-0.66146 -1.42703,-0.66146 -1.41642,0 -1.82587,-0.41828 -1.48332,-1.51529 0.21932,-0.70234 0.5691,-0.75256 5.24216,-0.75256 5.57553,0 7.00809,0.37116 8.22322,2.13059 1.17722,1.70455 1.68506,3.78335 1.73242,7.09155 0.0345,2.4154 -0.12769,3.44045 -0.76833,4.85378 l -0.81215,1.79168 1.24143,2.74402 c 0.6828,1.50923 1.78624,4.52998 2.4521,6.71279 0.66587,2.18282 1.59124,4.39396 2.05638,4.91369 1.07156,1.19729 1.50122,2.83434 0.85107,3.24273 -0.2639,0.16579 -1.23967,0.24929 -2.1684,0.18558 -0.92871,-0.0637 -2.27257,-0.13825 -2.98635,-0.16568 -1.46061,-0.0561 -1.28512,0.52395 -2.20282,-7.28086 -0.44458,-3.78108 -1.18948,-6.32254 -2.18025,-7.43863 -0.61051,-0.68776 -0.65022,-0.44609 -0.83528,5.08392 -0.10686,3.19328 -0.14114,5.99119 -0.0762,6.21757 0.0649,0.22638 0.65443,0.65159 1.30991,0.94494 1.19353,0.53411 1.79787,1.95839 1.12232,2.64501 -0.17657,0.17947 -2.33205,0.14885 -4.83957,-0.0687 -2.94841,-0.25583 -4.97438,-0.26514 -5.82393,-0.0267 -0.7165,0.20109 -1.39769,0.26908 -1.51375,0.15113 z m 12.85078,-20.02673 c 1.11254,-2.89304 -0.87821,-10.67784 -2.73055,-10.67784 -0.75619,0 -0.76538,0.10128 -0.50429,5.55979 0.14627,3.05787 0.34771,5.69426 0.44765,5.85862 0.0999,0.16438 0.67801,0.29887 1.28459,0.29887 0.85831,0 1.19151,-0.23051 1.5026,-1.03944 z"
       id="path1813"
       inkscape:connector-curvature="0" />
    <path
       style="opacity:1;fill:#ff0000;fill-opacity:1;stroke:#00ffff;stroke-width:0.52487642;stroke-miterlimit:4;stroke-dasharray:none;stroke-opacity:1"
       d="m 349.70849,206.74482 c -0.37911,-0.46059 -0.0758,-1.65431 0.42034,-1.65431 1.37126,0 1.96762,-3.27361 0.88306,-4.84745 -0.51537,-0.74785 -0.86117,-0.84349 -2.69607,-0.74555 l -2.10488,0.11235 -0.0999,3.21278 c -0.12449,4.0042 -0.24717,4.42619 -1.08364,3.72785 -1.15748,-0.96634 -2.72118,-3.87126 -2.70775,-5.03026 l 0.0134,-1.15443 0.86944,1.0804 c 0.59237,0.73609 0.95602,0.93802 1.1411,0.63365 0.14941,-0.24572 0.91921,-3.72034 1.71068,-7.72136 1.53807,-7.77537 3.42157,-14.81715 5.25924,-19.66265 1.12724,-2.97225 1.13779,-2.98497 1.65008,-1.9912 1.56272,3.03152 4.14505,15.12126 5.53449,25.91099 l 0.65076,5.05341 1.26742,0.76007 c 1.00474,0.60253 1.24401,0.96528 1.15444,1.75016 l -0.11299,0.9901 h -5.69987 c -3.76154,0 -5.81871,-0.14438 -6.04933,-0.42455 z m 0.91115,-11.0001 c -0.073,-1.65407 -1.55728,-6.52921 -1.98783,-6.52921 -0.40643,0 -1.32829,2.98448 -1.69993,5.5035 -0.30784,2.08653 0.0466,2.45258 2.25403,2.32754 1.42295,-0.0806 1.48517,-0.13708 1.43373,-1.30183 z"
       id="path1815"
       inkscape:connector-curvature="0" />
    <path
       style="opacity:1;fill:#ff0000;fill-opacity:1;stroke:#00ffff;stroke-width:0.52487642;stroke-miterlimit:4;stroke-dasharray:none;stroke-opacity:1"
       d="m 366.11126,206.66539 c -0.20737,-0.0693 -0.37703,-0.61179 -0.37703,-1.2056 0,-0.9747 0.1355,-1.09101 1.39452,-1.19692 l 1.39452,-0.11732 0.1038,-12.85118 c 0.0571,-7.06816 0.0121,-13.23387 -0.10005,-13.70163 -0.16285,-0.6794 -0.46423,-0.85045 -1.49832,-0.85045 -1.13487,0 -1.29447,-0.11718 -1.29447,-0.95049 0,-1.43693 1.76751,-2.3309 5.2233,-2.64181 3.696,-0.33256 5.11984,0.13208 6.97719,2.27679 2.5564,2.95188 3.66814,8.48741 3.30068,16.43457 -0.24283,5.25166 -0.88012,8.25537 -2.39804,11.3026 -1.65507,3.32253 -2.30518,3.62744 -7.73424,3.62744 -2.53816,0 -4.7845,-0.0567 -4.99186,-0.126 z m 11.58458,-5.17371 c 1.5509,-4.74372 1.80128,-15.40169 0.49858,-21.22321 -0.68988,-3.08298 -1.29453,-4.13377 -2.17993,-3.78844 -0.55091,0.21487 -0.61159,1.51154 -0.61159,13.07069 0,7.05765 0.10473,13.10952 0.23273,13.44855 0.43474,1.15152 1.42862,0.42424 2.06021,-1.50759 z"
       id="path1817"
       inkscape:connector-curvature="0" />
    <path
       style="opacity:1;fill:#ff0000;fill-opacity:1;stroke:#00ffff;stroke-width:0.52487642;stroke-miterlimit:4;stroke-dasharray:none;stroke-opacity:1"
       d="m 393.4116,207.01189 c -0.48147,-0.47741 -0.0749,-1.89754 0.60622,-2.11725 1.50431,-0.48527 1.75203,-3.26469 0.42892,-4.81232 -0.76563,-0.89556 -4.35448,-0.94424 -4.68697,-0.0636 -0.12415,0.32883 -0.22572,2.02973 -0.22572,3.77976 0,1.75554 -0.15821,3.18188 -0.35295,3.18188 -0.4268,0 -1.9362,-2.00218 -2.76407,-3.66649 -1.06798,-2.14704 -0.57032,-3.87331 0.51979,-1.803 0.80393,1.52683 1.30304,0.49723 2.20411,-4.54687 1.53122,-8.57162 5.14113,-21.88562 6.70328,-24.72282 0.45083,-0.81881 0.96403,0.41825 2.43198,5.86232 1.57117,5.82681 2.4894,10.58934 3.52706,18.29353 1.02114,7.58155 1.01572,7.56253 2.28331,8.01169 0.8728,0.30924 1.06612,0.59616 1.06612,1.58228 v 1.20452 l -5.79112,-0.013 c -3.18512,-0.007 -5.8626,-0.0839 -5.94996,-0.17057 z m 0.87527,-10.80383 c 0.1467,-1.06199 -1.50361,-6.71616 -2.0094,-6.88452 -0.46009,-0.15314 -0.63214,0.34489 -1.46259,4.23379 -0.51859,2.42858 -0.51427,2.67784 0.0538,3.10004 0.33976,0.25249 1.22435,0.42482 1.96575,0.38288 1.03435,-0.0585 1.37233,-0.25215 1.45245,-0.83219 z"
       id="path1819"
       inkscape:connector-curvature="0" />
  </g>
</svg>
