<?xml version="1.0" encoding="UTF-8" standalone="no"?>
<!-- Created with Inkscape (http://www.inkscape.org/) -->

<svg
   xmlns:dc="http://purl.org/dc/elements/1.1/"
   xmlns:cc="http://creativecommons.org/ns#"
   xmlns:rdf="http://www.w3.org/1999/02/22-rdf-syntax-ns#"
   xmlns:svg="http://www.w3.org/2000/svg"
   xmlns="http://www.w3.org/2000/svg"
   xmlns:sodipodi="http://sodipodi.sourceforge.net/DTD/sodipodi-0.dtd"
   xmlns:inkscape="http://www.inkscape.org/namespaces/inkscape"
   width="512"
   height="512"
   viewBox="0 0 135.46666 135.46667"
   version="1.1"
   id="svg8"
   inkscape:version="0.92.3 (2405546, 2018-03-11)"
   sodipodi:docname="joqixgamesmando.svg">
  <defs
     id="defs2" />
  <sodipodi:namedview
     id="base"
     pagecolor="#ffffff"
     bordercolor="#666666"
     borderopacity="1.0"
     inkscape:pageopacity="0.0"
     inkscape:pageshadow="2"
     inkscape:zoom="0.98994949"
     inkscape:cx="575.60773"
     inkscape:cy="379.92544"
     inkscape:document-units="px"
     inkscape:current-layer="layer1"
     showgrid="false"
     units="px"
     inkscape:window-width="1920"
     inkscape:window-height="1017"
     inkscape:window-x="-8"
     inkscape:window-y="-8"
     inkscape:window-maximized="1" />
  <metadata
     id="metadata5">
    <rdf:RDF>
      <cc:Work
         rdf:about="">
        <dc:format>image/svg+xml</dc:format>
        <dc:type
           rdf:resource="http://purl.org/dc/dcmitype/StillImage" />
        <dc:title></dc:title>
      </cc:Work>
    </rdf:RDF>
  </metadata>
  <g
     inkscape:label="Capa 1"
     inkscape:groupmode="layer"
     id="layer1"
     transform="translate(0,-161.53331)">
    <path
       style="opacity:1;fill:#cccccc;fill-opacity:0.76543214;stroke:#454548;stroke-width:0;stroke-miterlimit:4;stroke-dasharray:none;stroke-opacity:1"
       d="M 7.9754033,245.42818 C 6.0036632,245.1351 3.907211,244.24254 2.838904,243.24135 2.2930627,242.7298 2.2488637,242.56902 1.8603525,239.68179 1.0525153,233.67833 0.97485963,232.4282 0.97988293,225.50768 c 0.005257,-7.24186 0.15150647,-9.16788 1.14018787,-15.01552 2.0285746,-11.99818 7.0105176,-23.68603 14.0608962,-32.98745 4.77085,-6.29409 10.504373,-11.56952 15.103969,-13.8972 1.179539,-0.59692 1.245722,-0.60781 2.924106,-0.48111 6.523686,0.49247 13.081256,3.27174 17.845164,7.56323 l 1.376423,1.23993 h 14.314165 14.314167 l 1.412833,-0.80682 c 0.77706,-0.44375 2.688505,-1.74885 4.247657,-2.90022 4.773708,-3.52519 6.956372,-4.567 10.460892,-4.99311 1.914597,-0.23279 5.119457,-0.002 6.480987,0.46745 1.20864,0.41641 3.18274,1.69183 5.07523,3.279 10.24205,8.58965 21.3388,30.23143 24.9246,48.60995 1.61525,8.27874 1.61846,15.8584 0.009,21.0695 -1.06508,3.44832 -2.92935,6.28609 -5.3268,8.10841 l -0.70951,0.53931 -2.62326,-0.21359 c -8.31791,-0.67726 -13.44889,-3.74998 -19.97364,-11.96134 -1.0315,-1.29814 -2.57794,-3.24613 -3.43653,-4.32887 -0.85859,-1.08275 -1.83769,-2.28885 -2.17576,-2.68022 l -0.614689,-0.7116 -23.054148,0.47149 c -12.679786,0.25932 -26.923682,0.55843 -31.65311,0.66469 -4.729427,0.10626 -9.19427,0.19381 -9.921874,0.19456 l -1.322917,0.001 -1.535898,2.31341 c -7.348346,11.06827 -16.887277,17.48408 -24.3465434,16.3753 z"
       id="path1059"
       inkscape:connector-curvature="0" />
    <path
       style="opacity:1;fill:#00ff00;fill-opacity:0.64197531;stroke:#ff0000;stroke-width:0;stroke-miterlimit:4;stroke-dasharray:none;stroke-opacity:1"
       d="m 93.247361,185.58831 c -0.44711,-0.47407 -0.49569,-1.52214 -0.0906,-1.95339 0.19564,-0.20824 0.63499,-0.21667 0.85007,-0.0163 0.21052,0.19613 0.27587,0.40594 0.27512,0.88326 -0.001,0.64033 -0.37286,1.3153 -0.72461,1.3153 -0.0518,0 -0.19131,-0.103 -0.31003,-0.22888 z"
       id="path966"
       inkscape:connector-curvature="0" />
    <path
       style="opacity:1;fill:#00ff00;fill-opacity:0.64197531;stroke:#ff0000;stroke-width:0;stroke-miterlimit:4;stroke-dasharray:none;stroke-opacity:1"
       d="m 92.765041,187.82451 c -0.30682,-0.0283 -0.52725,-0.0854 -0.60662,-0.15725 -0.0686,-0.062 -0.18529,-0.11282 -0.25939,-0.11282 -0.0741,0 -0.18915,-0.0601 -0.25566,-0.13364 -0.0665,-0.0735 -0.15386,-0.13367 -0.19411,-0.13371 -0.10625,-1.2e-4 -0.76207,-0.54879 -0.8727,-0.73012 -0.2638,-0.43238 -0.39085,-0.60615 -0.44318,-0.60615 -0.0331,0 -0.0602,-0.0711 -0.0602,-0.15803 0,-0.0869 -0.0557,-0.22974 -0.12368,-0.31739 -0.10667,-0.13744 -0.22357,-0.8508 -0.22866,-1.39547 -0.005,-0.51906 0.12087,-1.32407 0.22838,-1.46229 0.0682,-0.0876 0.12396,-0.23046 0.12396,-0.31738 0,-0.0869 0.0316,-0.15803 0.0702,-0.15803 0.0386,0 0.1142,-0.10524 0.16794,-0.23386 0.0537,-0.12863 0.12832,-0.23386 0.16573,-0.23386 0.0374,0 0.0874,-0.0505 0.11108,-0.11223 0.0237,-0.0617 0.13091,-0.18952 0.23828,-0.28398 0.10737,-0.0945 0.24406,-0.22436 0.30377,-0.28867 0.0597,-0.0643 0.14698,-0.11693 0.19394,-0.11693 0.047,0 0.14203,-0.0567 0.21128,-0.1259 0.0692,-0.0693 0.23462,-0.16178 0.36749,-0.20564 0.13288,-0.0439 0.2416,-0.10262 0.2416,-0.13061 0,-0.0503 1.0804,-0.22268 1.40316,-0.22387 0.36511,-0.001 1.37567,0.17417 1.46999,0.2553 0.0551,0.0474 0.18073,0.10631 0.27913,0.13087 0.0984,0.0246 0.19519,0.087 0.21507,0.13884 0.0199,0.0518 0.0806,0.0942 0.13502,0.0942 0.0544,0 0.18312,0.0755 0.28607,0.16783 0.10296,0.0923 0.26988,0.24216 0.37094,0.33301 0.10106,0.0908 0.18375,0.19468 0.18375,0.23073 0,0.036 0.0601,0.0977 0.13364,0.13706 0.0735,0.0393 0.13363,0.11556 0.13363,0.16939 0,0.0538 0.0571,0.15495 0.12683,0.22471 0.0698,0.0698 0.14728,0.21992 0.17227,0.33369 0.025,0.11377 0.0833,0.22958 0.12963,0.25737 0.22695,0.13614 0.2239,2.6377 -0.003,2.77513 -0.0472,0.0286 -0.10547,0.15635 -0.12941,0.28398 -0.0239,0.12762 -0.0709,0.23204 -0.10435,0.23204 -0.0335,0 -0.0973,0.0827 -0.14187,0.18375 -0.0446,0.10106 -0.13415,0.22304 -0.19902,0.27106 -0.0649,0.048 -0.11796,0.11798 -0.11796,0.15547 0,0.0731 -0.36314,0.4588 -0.43197,0.4588 -0.0227,0 -0.10589,0.0601 -0.18478,0.13363 -0.0789,0.0735 -0.18181,0.13364 -0.22872,0.13364 -0.0469,0 -0.11746,0.0601 -0.15679,0.13363 -0.0438,0.0817 -0.1399,0.13364 -0.24766,0.13364 -0.0969,0 -0.23087,0.0495 -0.29778,0.11008 -0.19623,0.17759 -1.19042,0.25072 -2.17489,0.15999 z m 1.43652,-0.63295 c 1.49084,-0.39686 2.40193,-2.37674 1.98938,-4.3231 -0.38845,-1.83267 -2.1394,-2.73696 -3.81454,-1.97005 -0.66761,0.30564 -1.17528,0.96603 -1.40475,1.82735 -0.1365,0.51231 -0.13591,1.73049 0.001,2.24478 0.44792,1.68163 1.78918,2.60424 3.22883,2.22102 z"
       id="path964"
       inkscape:connector-curvature="0" />
    <path
       style="opacity:1;fill:#a05a2c;fill-opacity:0.64197531;stroke:#ff0000;stroke-width:0;stroke-miterlimit:4;stroke-dasharray:none;stroke-opacity:1"
       d="m 101.56587,196.25837 c -0.16531,-0.0148 -0.34571,-0.0659 -0.4009,-0.11355 -0.0552,-0.0476 -0.24565,-0.10543 -0.42323,-0.12846 -0.17759,-0.023 -0.39963,-0.10226 -0.49344,-0.17604 -0.0938,-0.0738 -0.20838,-0.13416 -0.254619,-0.13416 -0.0462,0 -0.10137,-0.0451 -0.12253,-0.10023 -0.0212,-0.0551 -0.08,-0.10022 -0.13085,-0.10022 -0.1006,0 -0.91406,-0.82919 -0.91406,-0.93173 0,-0.0346 -0.0556,-0.10225 -0.12347,-0.15027 -0.0679,-0.048 -0.14562,-0.20758 -0.1727,-0.35458 -0.0271,-0.147 -0.0881,-0.31237 -0.13563,-0.36749 -0.0475,-0.0551 -0.10658,-0.24059 -0.13125,-0.41215 -0.0247,-0.17155 -0.0885,-0.34813 -0.14181,-0.39238 -0.15551,-0.12906 -0.13112,-1.03791 0.0367,-1.36704 0.0735,-0.14416 0.13364,-0.34596 0.13364,-0.44844 0,-0.10248 0.0601,-0.24646 0.13363,-0.31996 0.0735,-0.0735 0.13363,-0.17874 0.13363,-0.23386 0,-0.0551 0.0526,-0.15578 0.11693,-0.22368 0.0643,-0.0679 0.17707,-0.21012 0.25057,-0.31603 0.15925,-0.22946 0.47025,-0.53273 0.70158,-0.68411 0.0919,-0.0601 0.19109,-0.14763 0.22048,-0.19444 0.0294,-0.0468 0.10747,-0.0851 0.173519,-0.0851 0.0661,0 0.18943,-0.0601 0.27418,-0.13364 0.0848,-0.0735 0.24802,-0.13363 0.36285,-0.13363 0.11482,0 0.27509,-0.0464 0.35614,-0.10322 0.21325,-0.14937 1.55383,-0.15089 1.76639,-0.002 0.0826,0.0579 0.24412,0.10522 0.35887,0.10522 0.12378,0 0.25783,0.0543 0.32957,0.13363 0.0665,0.0735 0.17176,0.13364 0.23387,0.13364 0.0621,0 0.16734,0.0601 0.23386,0.13363 0.0665,0.0735 0.16335,0.13364 0.21519,0.13364 0.14764,0 0.95184,0.8713 1.08789,1.17865 0.0673,0.15213 0.15499,0.29673 0.19478,0.32132 0.0398,0.0246 0.0724,0.10319 0.0724,0.17465 0,0.0715 0.0601,0.24213 0.13363,0.37927 0.1141,0.21288 0.13357,0.37644 0.1332,1.11894 -5.3e-4,0.75544 -0.0179,0.89594 -0.1332,1.07007 -0.073,0.11025 -0.13295,0.24902 -0.13319,0.30837 -2.7e-4,0.0594 -0.0606,0.18437 -0.13408,0.27781 -0.0735,0.0934 -0.13363,0.21806 -0.13363,0.27694 0,0.0589 -0.0601,0.15853 -0.13364,0.22146 -0.0735,0.0629 -0.13363,0.15082 -0.13363,0.1953 0,0.0445 -0.0601,0.1 -0.13364,0.12329 -0.0735,0.0233 -0.13363,0.0709 -0.13363,0.1058 0,0.13518 -0.78589,0.72941 -0.96467,0.72941 -0.0496,0 -0.10678,0.0435 -0.12716,0.0965 -0.0204,0.0531 -0.15138,0.11704 -0.29112,0.1421 -0.13974,0.0251 -0.29918,0.083 -0.3543,0.12872 -0.11026,0.0915 -0.93025,0.16047 -1.40305,0.11804 z m -0.28013,-1.25379 c 0.46372,-0.8101 0.39022,-0.78625 0.69407,-0.22524 0.14671,0.27088 0.29766,0.53009 0.33543,0.57603 0.0692,0.0841 1.45731,0.12624 1.53692,0.0466 0.0203,-0.0203 -0.22975,-0.63011 -0.55564,-1.35515 l -0.59254,-1.31826 0.76522,-1.50129 c 0.42087,-0.82572 0.76612,-1.53888 0.76723,-1.58482 0.002,-0.0626 -0.21255,-0.0835 -0.85347,-0.0835 h -0.85548 l -0.21855,0.53454 c -0.12021,0.29399 -0.24549,0.53454 -0.27841,0.53454 -0.0329,0 -0.13068,-0.23303 -0.21725,-0.51784 l -0.15741,-0.51783 -1.15256,-0.0183 -1.152539,-0.0183 0.0461,0.15194 c 0.0254,0.0836 0.3895,0.85117 0.809199,1.70578 l 0.76309,1.55385 -0.62988,1.18567 c -0.346429,0.65211 -0.615689,1.20927 -0.598339,1.23813 0.0174,0.0289 0.320389,0.0439 0.673419,0.0334 l 0.64189,-0.0191 z"
       id="path974"
       inkscape:connector-curvature="0" />
    <path
       style="opacity:1;fill:#ff0000;fill-opacity:0.64197531;stroke:#ff0000;stroke-width:0;stroke-miterlimit:4;stroke-dasharray:none;stroke-opacity:1"
       d="m 101.04876,187.25706 c -1.520419,-0.34582 -2.556609,-1.64706 -2.556609,-3.21054 0,-1.68303 1.16376,-2.99821 2.866769,-3.23974 2.50997,-0.35597 4.44506,2.31791 3.35824,4.64039 -0.23067,0.49294 -0.82242,1.1602 -1.25245,1.41229 -0.70457,0.41304 -1.65813,0.56997 -2.41595,0.3976 z m 1.19854,-0.49754 c 0.2026,-0.0697 0.47325,-0.19549 0.60143,-0.27951 l 0.23307,-0.15278 0.045,-2.0758 c 0.0248,-1.14169 0.0636,-2.27875 0.0863,-2.52681 l 0.0413,-0.45102 h -1.28317 c -1.19032,0 -1.28077,0.008 -1.24966,0.11693 0.0602,0.20973 0.24669,2.36405 0.29575,3.41548 l 0.0479,1.02677 -0.36784,-0.035 c -0.20232,-0.0193 -0.42453,-0.0576 -0.4938,-0.0852 -0.11765,-0.0469 -0.12298,-0.0242 -0.0808,0.3446 0.0801,0.70057 0.0994,0.75183 0.29473,0.78169 0.53966,0.0825 1.47762,0.0418 1.82972,-0.0793 z"
       id="path962"
       inkscape:connector-curvature="0" />
    <path
       style="opacity:1;fill:#00ffff;fill-opacity:0.64197531;stroke:#ff0000;stroke-width:0;stroke-miterlimit:4;stroke-dasharray:none;stroke-opacity:1"
       d="m 109.55042,187.82471 c -0.25723,-0.0232 -0.55793,-0.091 -0.66815,-0.1506 -0.11026,-0.0596 -0.27565,-0.14078 -0.36751,-0.18037 -0.0919,-0.0396 -0.22677,-0.10977 -0.29977,-0.15597 -0.23106,-0.14626 -1.23704,-1.18716 -1.23704,-1.27998 0,-0.0489 -0.0601,-0.1654 -0.13364,-0.25884 -0.0735,-0.0934 -0.13361,-0.23795 -0.13361,-0.32113 0,-0.0832 -0.0526,-0.20939 -0.11695,-0.28045 -0.16832,-0.186 -0.17539,-2.10567 -0.008,-2.29643 0.0597,-0.0682 0.12811,-0.23368 0.1521,-0.3678 0.0241,-0.13412 0.0879,-0.28062 0.14211,-0.32556 0.0542,-0.0449 0.0984,-0.11121 0.0984,-0.14727 0,-0.088 0.65384,-0.86944 0.79799,-0.95375 0.11155,-0.0652 0.22196,-0.15399 0.46953,-0.3774 0.0671,-0.0606 0.21513,-0.13057 0.3289,-0.15556 0.11377,-0.025 0.22958,-0.0833 0.25736,-0.12951 0.0476,-0.0792 1.01521,-0.24991 1.4537,-0.25651 0.30094,-0.005 1.39827,0.16346 1.43656,0.21992 0.0185,0.0271 0.13864,0.0983 0.26728,0.1582 0.42891,0.19977 0.62047,0.33739 1.03005,0.74007 0.41701,0.41 0.49614,0.51402 0.67098,0.882 0.0556,0.11693 0.12981,0.23038 0.16497,0.25213 0.0352,0.0217 0.084,0.18165 0.10848,0.35536 0.0246,0.1737 0.0864,0.38242 0.1375,0.46381 0.13211,0.21025 0.12504,1.40764 -0.009,1.58533 -0.054,0.0713 -0.0981,0.2122 -0.0981,0.31303 0,0.20782 -0.0662,0.37634 -0.29882,0.75998 -0.0891,0.147 -0.19132,0.33082 -0.22714,0.4085 -0.0358,0.0777 -0.11256,0.15941 -0.1705,0.18165 -0.0579,0.0222 -0.10533,0.0844 -0.10533,0.13824 0,0.0538 -0.0601,0.11691 -0.13364,0.14024 -0.0735,0.0233 -0.13364,0.0855 -0.13364,0.13813 0,0.0526 -0.044,0.0957 -0.0979,0.0957 -0.0538,0 -0.13007,0.0601 -0.16939,0.13363 -0.0393,0.0735 -0.13089,0.13364 -0.20346,0.13364 -0.0726,0 -0.18344,0.0601 -0.24636,0.13363 -0.0629,0.0735 -0.18076,0.13364 -0.26185,0.13364 -0.0811,0 -0.1972,0.0498 -0.25805,0.11063 -0.17695,0.17695 -1.14454,0.24922 -2.13731,0.15964 z m 1.84891,-1.10549 c 0.0246,-0.33075 0.0782,-1.45829 0.1189,-2.50565 0.0407,-1.04736 0.0925,-2.16739 0.11507,-2.48895 l 0.0411,-0.58465 h -1.41277 -1.41274 v 0.25056 c 0.003,0.70271 0.26585,5.84216 0.30144,5.89977 0.0257,0.0415 0.45201,0.06 1.1222,0.0486 l 1.08085,-0.0183 z"
       id="path972"
       inkscape:connector-curvature="0" />
    <path
       style="opacity:1;fill:#ffff00;fill-opacity:0.64197531;stroke:#ff0000;stroke-width:0;stroke-miterlimit:4;stroke-dasharray:none;stroke-opacity:1"
       d="m 101.46636,176.77034 c -0.22546,-0.22546 -0.39417,-0.84794 -0.34419,-1.26995 0.0662,-0.55931 0.42263,-0.87954 0.82096,-0.73768 0.59662,0.21249 0.66518,1.44107 0.11133,1.99492 -0.21528,0.21527 -0.38194,0.21887 -0.5881,0.0127 z"
       id="path970"
       inkscape:connector-curvature="0" />
    <path
       style="opacity:1;fill:#ffff00;fill-opacity:0.64197531;stroke:#ff0000;stroke-width:0;stroke-miterlimit:4;stroke-dasharray:none;stroke-opacity:1"
       d="m 101.09907,179.4657 c -0.12805,-0.0714 -0.33101,-0.1298 -0.45102,-0.1298 -0.12911,0 -0.27276,-0.0546 -0.35183,-0.13364 -0.0735,-0.0735 -0.18709,-0.13363 -0.25242,-0.13363 -0.0653,0 -0.167149,-0.0526 -0.226259,-0.11693 -0.0591,-0.0643 -0.18871,-0.17707 -0.288,-0.25057 -0.30401,-0.22504 -0.72755,-0.68184 -0.78988,-0.85192 -0.0236,-0.0643 -0.0739,-0.11693 -0.11178,-0.11693 -0.0379,0 -0.0689,-0.0601 -0.0689,-0.13363 0,-0.0735 -0.0554,-0.18904 -0.12311,-0.25675 -0.0677,-0.0677 -0.14303,-0.26847 -0.16738,-0.44613 -0.0243,-0.17766 -0.0892,-0.37269 -0.14416,-0.4334 -0.14147,-0.15631 -0.1439,-1.48353 -0.003,-1.60052 0.0533,-0.0443 0.11797,-0.22063 0.14366,-0.39194 0.0257,-0.17132 0.096,-0.38685 0.15629,-0.47896 0.21382,-0.3268 0.27705,-0.43691 0.35516,-0.6185 0.0435,-0.10106 0.11755,-0.18375 0.16462,-0.18375 0.0471,0 0.0856,-0.0256 0.0856,-0.0569 0,-0.075 0.38607,-0.47763 0.45795,-0.47763 0.0307,0 0.1103,-0.0601 0.17681,-0.13363 0.0665,-0.0735 0.16138,-0.13364 0.21081,-0.13364 0.0494,0 0.145309,-0.0554 0.213069,-0.1232 0.0678,-0.0678 0.24055,-0.14224 0.38398,-0.16551 0.14343,-0.0233 0.29427,-0.0881 0.33519,-0.14408 0.10795,-0.14763 2.10753,-0.15058 2.22977,-0.003 0.0449,0.0541 0.19145,0.11886 0.32556,0.1438 0.13412,0.0249 0.28315,0.10091 0.33117,0.16881 0.048,0.0679 0.14108,0.12347 0.2068,0.12347 0.0657,0 0.17391,0.0601 0.24043,0.13364 0.0665,0.0735 0.14497,0.13363 0.17436,0.13363 0.0727,0 0.39358,0.32564 0.39358,0.39944 0,0.0326 0.0601,0.0784 0.13364,0.10169 0.0735,0.0233 0.13363,0.0844 0.13363,0.13579 0,0.0513 0.0601,0.12555 0.13364,0.16489 0.0744,0.0398 0.13363,0.1399 0.13363,0.22586 0,0.0849 0.0601,0.20875 0.13364,0.27527 0.0735,0.0665 0.13363,0.17652 0.13363,0.24446 0,0.0679 0.0601,0.23572 0.13363,0.37285 0.11326,0.21132 0.13364,0.37699 0.13364,1.08653 0,0.70954 -0.0204,0.87522 -0.13364,1.08653 -0.0735,0.13714 -0.13363,0.29732 -0.13363,0.35597 0,0.0587 -0.0601,0.18308 -0.13363,0.27652 -0.0735,0.0934 -0.13364,0.21094 -0.13364,0.26111 0,0.0502 -0.0526,0.14555 -0.11693,0.21196 -0.0643,0.0664 -0.28881,0.30695 -0.49889,0.53454 -0.21007,0.22758 -0.42781,0.41379 -0.48386,0.41379 -0.056,0 -0.13945,0.0601 -0.18536,0.13363 -0.0459,0.0735 -0.1323,0.13364 -0.192,0.13364 -0.0597,0 -0.185,0.0601 -0.27844,0.13363 -0.0934,0.0735 -0.22488,0.13364 -0.2921,0.13364 -0.0767,0 0.002,-0.0839 0.211,-0.22536 0.18325,-0.12395 0.38586,-0.28423 0.45023,-0.35617 0.11338,-0.12673 0.10711,-0.13725 -0.20045,-0.33681 -0.17462,-0.1133 -0.39247,-0.28598 -0.48412,-0.38375 -0.16331,-0.17423 -0.16398,-0.17921 -0.0334,-0.25067 0.24209,-0.13249 0.57075,-0.52877 0.77636,-0.93608 0.50009,-0.99067 0.52669,-2.37802 0.0645,-3.36564 -0.26252,-0.56098 -0.60667,-0.91924 -1.13104,-1.1774 -0.40029,-0.19708 -0.49978,-0.21781 -1.04519,-0.21781 -0.8082,0 -1.19367,0.13843 -1.7058,0.61257 -0.634999,0.5879 -0.880359,1.25799 -0.876679,2.39422 0.004,1.13508 0.32485,1.96072 1.008309,2.59198 0.49914,0.46102 0.89905,0.60383 1.60158,0.57192 0.40665,-0.0185 0.51278,-0.005 0.4613,0.0566 -0.10434,0.12572 7.9e-4,0.34907 0.32997,0.70098 0.16643,0.17792 0.29053,0.33055 0.27578,0.33917 -0.38621,0.2258 -0.48244,0.2493 -1.00597,0.2457 -0.42242,-0.003 -0.61409,-0.0353 -0.79045,-0.13363 z"
       id="path968"
       inkscape:connector-curvature="0" />
    <path
       style="fill:none;stroke:#454548;stroke-width:0.26458332px;stroke-linecap:butt;stroke-linejoin:miter;stroke-opacity:1"
       d="m 32.339612,162.83067 c -9.942015,4.15534 -38.6212663,31.07499 -30.2014558,80.18086 7.7821972,6.82917 21.5272208,0.84 31.8050728,-16.03617 l 65.748302,-1.33635 c 7.701039,8.45885 12.112209,19.97257 29.132379,19.77794 20.12445,-13.36715 -5.69944,-74.69683 -24.32152,-82.05174 -12.078345,-2.40736 -15.448448,4.98205 -22.450646,8.28536 H 53.453905 c -4.24937,-4.18516 -11.394488,-8.73757 -21.114293,-8.8199 z"
       id="path828"
       inkscape:connector-curvature="0"
       sodipodi:nodetypes="ccccccccc" />
    <path
       style="opacity:1;fill:#000000;fill-opacity:1;stroke:#ff0000;stroke-width:0;stroke-miterlimit:4;stroke-dasharray:none;stroke-opacity:1"
       id="path834"
       sodipodi:type="arc"
       sodipodi:cx="33.28109"
       sodipodi:cy="184.02322"
       sodipodi:rx="10.530082"
       sodipodi:ry="10.665956"
       sodipodi:start="4.7671717"
       sodipodi:end="4.7379523"
       d="m 33.857668,173.37327 a 10.530082,10.665956 0 0 1 9.941638,11.15616 10.530082,10.665956 0 0 1 -10.941128,10.15114 10.530082,10.665956 0 0 1 -10.101483,-11.00785 10.530082,10.665956 0 0 1 10.793549,-10.31197"
       sodipodi:open="true" />
    <path
       style="opacity:1;fill:#000000;fill-opacity:1;stroke:#ff0000;stroke-width:0;stroke-miterlimit:4;stroke-dasharray:none;stroke-opacity:1"
       id="path834-8"
       sodipodi:type="arc"
       sodipodi:cx="81.776329"
       sodipodi:cy="212.61969"
       sodipodi:rx="10.530081"
       sodipodi:ry="10.665956"
       sodipodi:start="4.7671717"
       sodipodi:end="4.7379523"
       d="M 82.352907,201.96974 A 10.530081,10.665956 0 0 1 92.294544,213.1259 10.530081,10.665956 0 0 1 81.353418,223.27704 10.530081,10.665956 0 0 1 71.251936,212.26918 10.530081,10.665956 0 0 1 82.045484,201.95722"
       sodipodi:open="true" />
    <rect
       style="opacity:1;fill:#000000;fill-opacity:1;stroke:#ff0000;stroke-width:0;stroke-miterlimit:4;stroke-dasharray:none;stroke-opacity:1"
       id="rect851"
       width="12.027129"
       height="24.588797"
       x="44.893181"
       y="197.91991"
       ry="0.39833814" />
    <rect
       style="opacity:1;fill:#000000;fill-opacity:1;stroke:#ff0000;stroke-width:0;stroke-miterlimit:4;stroke-dasharray:none;stroke-opacity:1"
       id="rect851-6"
       width="12.027129"
       height="24.588797"
       x="205.41566"
       y="-58.673595"
       ry="0.39833814"
       transform="rotate(88.879237)" />
    <path
       style="opacity:1;fill:#cccccc;fill-opacity:1;stroke:#ff0000;stroke-width:0;stroke-miterlimit:4;stroke-dasharray:none;stroke-opacity:1"
       id="path834-8-9"
       sodipodi:type="arc"
       sodipodi:cx="84.310204"
       sodipodi:cy="213.36612"
       sodipodi:rx="6.8448696"
       sodipodi:ry="6.9331923"
       sodipodi:start="4.7671717"
       sodipodi:end="4.7379523"
       d="m 84.684997,206.44333 a 6.8448696,6.9331923 0 0 1 6.462363,7.25184 6.8448696,6.9331923 0 0 1 -7.112062,6.59855 6.8448696,6.9331923 0 0 1 -6.566267,-7.15544 6.8448696,6.9331923 0 0 1 7.016131,-6.70309"
       sodipodi:open="true" />
    <path
       style="opacity:1;fill:#cccccc;fill-opacity:1;stroke:#ff0000;stroke-width:0;stroke-miterlimit:4;stroke-dasharray:none;stroke-opacity:1"
       id="path834-8-9-3"
       sodipodi:type="arc"
       sodipodi:cx="30.354086"
       sodipodi:cy="182.98601"
       sodipodi:rx="6.8448696"
       sodipodi:ry="6.9331923"
       sodipodi:start="4.7671717"
       sodipodi:end="4.7379523"
       d="m 30.728879,176.06322 a 6.8448696,6.9331923 0 0 1 6.462363,7.25184 6.8448696,6.9331923 0 0 1 -7.112061,6.59855 6.8448696,6.9331923 0 0 1 -6.566268,-7.15544 6.8448696,6.9331923 0 0 1 7.016131,-6.70309"
       sodipodi:open="true" />
    <path
       style="fill:#ff0000;stroke-width:0.02055137"
       d="m 72.367967,188.96987 c -0.64457,-1.20232 -0.93832,-1.7254 -0.8972,-1.59765 0.0244,0.076 0.26057,1.13439 0.25441,1.14043 -0.0151,0.0148 -2.05965,0.16547 -3.61366,0.26632 -0.43518,0.0282 -0.85709,0.056 -0.93759,0.0617 l -0.14636,0.0103 -0.0133,-0.97057 c -0.007,-0.53382 -0.0269,-2.51501 -0.0435,-4.40265 -0.0166,-1.88764 -0.0332,-3.53612 -0.0368,-3.66328 l -0.007,-0.2312 h 2.67827 2.67828 l -0.0111,0.6525 c -0.0192,1.12059 -0.0508,4.53544 -0.0508,5.47839 v 0.90056 l 0.63863,0.872 c 0.35129,0.47959 0.64411,0.87198 0.65076,0.87198 0.007,0 0.006,-1.04966 -0.002,-2.33258 l -0.0143,-2.33258 h 0.17537 c 0.12679,0 0.17528,0.007 0.17503,0.0257 -2.2e-4,0.0141 -0.0184,0.0951 -0.0405,0.17982 l -0.0401,0.15414 0.1032,0.1729 0.1032,0.1729 -0.0856,0.32033 c -0.0471,0.17619 -0.0891,0.32413 -0.0934,0.32877 -0.004,0.004 -0.0273,-0.009 -0.0511,-0.0308 -0.0351,-0.0318 -0.0414,-0.0559 -0.0334,-0.12762 0.009,-0.0829 0.008,-0.0864 -0.0258,-0.0561 -0.0197,0.0178 -0.0523,0.0631 -0.0726,0.10075 l -0.0368,0.0684 0.0627,0.0904 c 0.0345,0.0497 0.0947,0.12717 0.13397,0.17219 l 0.0713,0.0818 0.0267,-0.15377 0.0267,-0.15377 0.0331,0.10682 c 0.0182,0.0588 0.0393,0.11307 0.0469,0.12072 0.008,0.008 0.0839,-0.045 0.16944,-0.11693 0.1609,-0.13532 0.17236,-0.16664 0.0408,-0.11169 -0.11633,0.0486 -0.12763,0.0428 -0.14363,-0.0735 l -0.0145,-0.10544 0.14882,-0.13884 0.14882,-0.13884 -0.0149,-0.12051 c -0.0205,-0.16547 -0.0506,-0.21145 -0.0514,-0.0786 -5.5e-4,0.0953 -0.008,0.11091 -0.0929,0.19414 l -0.0922,0.0905 0.0617,-0.16016 0.0617,-0.16017 -0.0927,-0.1395 -0.0927,-0.13951 0.0747,-0.19761 0.0747,-0.1976 h 0.67203 0.67204 l 0.0137,1.54475 c 0.007,0.84961 0.0143,1.91083 0.0152,2.35827 0.001,0.44743 0.008,0.85441 0.0154,0.90438 l 0.0139,0.0909 1.35781,-2.03297 c 0.7468,-1.11813 1.4434,-2.16413 1.54799,-2.32443 l 0.19019,-0.29146 -0.28595,-0.46894 c -0.27541,-0.45166 -1.36653,-2.20858 -2.53119,-4.07571 l -0.55763,-0.89398 0.0675,-0.0141 c 0.0371,-0.008 0.24779,-0.024 0.46821,-0.0362 0.22041,-0.0122 0.45855,-0.0256 0.52919,-0.0298 l 0.12845,-0.008 v 0.41636 0.41634 l 0.18974,0.18241 c 0.57887,0.55653 0.53209,0.50301 0.50973,0.58317 -0.0582,0.20885 -0.11816,0.53449 -0.0947,0.51507 0.0139,-0.0116 0.0833,-0.11941 0.15396,-0.2396 0.0707,-0.12018 0.13585,-0.21052 0.14474,-0.20075 0.009,0.01 0.0596,0.11462 0.11259,0.23302 l 0.0964,0.21525 -0.0647,0.22141 c -0.0356,0.12177 -0.0609,0.23276 -0.0563,0.24663 0.009,0.0277 0.16236,-0.24341 0.26373,-0.46699 l 0.0643,-0.1418 -0.10876,-0.21506 c -0.16508,-0.32641 -0.274,-0.47912 -0.56994,-0.79897 -0.14895,-0.16098 -0.27081,-0.30207 -0.27081,-0.31354 0,-0.0339 0.0606,-0.43222 0.0848,-0.55755 l 0.0223,-0.11566 0.24958,-0.0131 c 0.13726,-0.007 0.33367,-0.0186 0.43645,-0.0252 l 0.18688,-0.0122 0.39698,0.93215 c 0.74329,1.74529 1.42166,3.31555 1.53472,3.55245 l 0.1128,0.23634 0.036,-0.0925 c 0.0198,-0.0509 0.38125,-1.07437 0.80331,-2.27445 l 0.76738,-2.18195 0.0632,-0.0117 c 0.10834,-0.02 2.13179,-0.11486 2.45089,-0.11486 h 0.10944 l -0.44019,0.87857 c -0.2421,0.48322 -0.84245,1.66863 -1.33412,2.63427 l -0.89395,1.75568 0.23219,0.46386 c 0.22512,0.44972 0.96746,1.89215 2.01364,3.91265 0.27983,0.54045 0.50408,0.98735 0.49832,0.99309 -0.0371,0.0371 -1.47348,0.0699 -1.47348,0.0337 0,-0.0136 0.16407,-0.77197 0.23686,-1.09482 l 0.0301,-0.13358 -0.0667,-0.0583 c -0.0367,-0.0321 -0.27723,-0.22483 -0.53456,-0.4284 -0.25733,-0.20357 -0.47705,-0.38728 -0.48826,-0.40825 -0.0135,-0.0253 -0.0133,-0.24801 5.4e-4,-0.65953 0.0115,-0.34178 0.0139,-0.62741 0.005,-0.63472 -0.009,-0.007 -0.17853,-0.15784 -0.37756,-0.33448 -0.42787,-0.37971 -0.38825,-0.27754 -0.38825,-1.00122 0,-0.26829 -0.006,-0.51438 -0.0126,-0.54688 -0.01,-0.0467 -0.0625,-0.0937 -0.24954,-0.2235 -0.13028,-0.0904 -0.24623,-0.17924 -0.25766,-0.19738 -0.0153,-0.0242 0.0346,-0.26967 0.18679,-0.92076 l 0.20757,-0.88777 0.21391,-0.23013 c 0.30753,-0.33083 0.63058,-0.69647 0.65529,-0.74168 0.0304,-0.0555 -0.15561,0.0787 -0.59537,0.4297 -0.32447,0.25897 -0.37541,0.30753 -0.39305,0.37466 -0.0205,0.0778 -0.29469,1.13721 -0.33385,1.28965 -0.0174,0.0675 -0.0894,0.15096 -0.40389,0.46755 -0.21054,0.21193 -0.38932,0.38534 -0.39731,0.38534 -0.008,0 -0.15557,-0.20577 -0.32798,-0.45727 -0.45832,-0.66856 -0.69951,-1.00599 -0.71091,-0.99458 -0.005,0.006 -0.0187,0.0487 -0.0294,0.0961 -0.0217,0.0967 -0.14143,0.79943 -0.14143,0.83029 0,0.0497 0.0409,-0.0335 0.10294,-0.20924 0.0369,-0.10455 0.0737,-0.1901 0.0818,-0.1901 0.0171,0 0.0587,0.0656 0.41665,0.6576 l 0.26714,0.4418 -0.16943,0.67418 c -0.0932,0.3708 -0.16416,0.67946 -0.1577,0.68592 0.0139,0.0139 0.16591,-0.2186 0.52261,-0.79964 0.14387,-0.23436 0.27371,-0.42626 0.28852,-0.42644 0.0412,-5.1e-4 0.89523,0.26891 0.91705,0.28931 0.0183,0.0171 0.0339,0.22332 0.0638,0.84472 l 0.0136,0.28147 0.35779,0.31451 0.35778,0.31452 -0.0116,0.65764 -0.0116,0.65764 0.43162,0.31652 c 0.3952,0.28981 0.43084,0.32102 0.42235,0.36993 -0.008,0.0487 -0.15287,1.18879 -0.15287,1.2068 0,0.004 -0.19717,0.008 -0.43815,0.008 h -0.43814 l -0.64574,-2.22982 c -0.35516,-1.2264 -0.65046,-2.22927 -0.65622,-2.2286 -0.0215,0.003 -0.67909,1.41369 -1.66097,3.56444 l -0.32838,0.7193 -0.19227,0.0164 c -0.19903,0.017 -2.87428,0.001 -3.13424,-0.0187 l -0.147,-0.0111 0.10076,-0.30076 c 0.0554,-0.16541 0.10075,-0.31812 0.10075,-0.33935 0,-0.0212 -0.0467,-0.18459 -0.1038,-0.36303 l -0.10381,-0.32443 0.18861,-0.55228 c 0.10374,-0.30375 0.19552,-0.55989 0.20397,-0.5692 0.008,-0.009 0.0397,0.0266 0.0694,0.0798 0.0457,0.0818 0.0512,0.1081 0.0355,0.17105 -0.0102,0.0409 -0.0249,0.10211 -0.0326,0.13602 l -0.014,0.0617 0.051,-0.0479 c 0.0281,-0.0264 0.0779,-0.0911 0.11064,-0.14386 l 0.0596,-0.0959 -0.13819,-0.35965 c -0.1587,-0.41298 -0.14387,-0.41292 -0.23217,-5.5e-4 -0.0564,0.26326 -0.0736,0.31493 -0.0736,0.22078 0,-0.11573 -0.0478,-0.46657 -0.0636,-0.46657 -0.0246,0 -0.49134,0.35306 -0.49134,0.37169 0,0.0187 0.0711,-0.001 0.22169,-0.0611 0.0598,-0.0239 0.11294,-0.0434 0.11818,-0.0434 0.005,0 0.01,0.10899 0.01,0.24219 v 0.2422 l -0.23565,0.17397 -0.23565,0.17397 0.001,0.27744 c 5.5e-4,0.1699 0.008,0.25753 0.0178,0.22607 0.009,-0.0283 0.0174,-0.1026 0.0185,-0.16519 l 0.002,-0.11381 0.17469,-0.15988 c 0.0961,-0.0879 0.17469,-0.15237 0.17469,-0.1432 0,0.009 -0.0604,0.13793 -0.13424,0.28614 l -0.13423,0.26947 0.10337,0.26499 c 0.0568,0.14574 0.10338,0.27927 0.1034,0.29675 0,0.0174 -0.0733,0.1978 -0.16299,0.40075 l -0.16303,0.36899 -0.13496,0.006 c -0.0742,0.003 -0.13497,0.0106 -0.13497,0.0161 0,0.006 0.0555,0.0857 0.12332,0.17807 0.0902,0.12283 0.11611,0.17204 0.0965,0.18302 -0.0329,0.0184 -0.5448,0.0584 -0.74966,0.0585 l -0.14964,7e-5 0.0133,-0.51892 0.0133,-0.51892 -0.13089,-0.0808 c -0.48396,-0.29869 -0.76037,-0.46383 -0.77636,-0.46383 -0.0102,0 -0.0148,0.0347 -0.0102,0.0771 0.004,0.0424 0.0276,0.28515 0.051,0.53947 0.0235,0.25432 0.0493,0.48952 0.0574,0.52266 l 0.0148,0.0603 0.087,-0.0786 c 0.0985,-0.089 0.21867,-0.23445 0.20498,-0.24814 -0.005,-0.005 -0.0524,0.0183 -0.10524,0.0519 l -0.0961,0.061 -0.002,-0.0972 c -0.001,-0.0535 -0.008,-0.18646 -0.0154,-0.29561 -0.009,-0.13026 -0.006,-0.19425 0.007,-0.18624 0.0152,0.009 0.47218,0.34816 0.5212,0.38681 0.0109,0.009 -0.10404,0.77656 -0.11846,0.79162 -0.007,0.007 -0.0912,0.0185 -0.1877,0.0255 l -0.17543,0.0127 z m -3.23916,-1.64818 c 0.53125,-0.0619 1.15088,-0.13254 1.37694,-0.15696 0.22607,-0.0244 0.41718,-0.0501 0.4247,-0.0572 0.0168,-0.0157 0.20159,-5.35302 0.202,-5.83664 l 1.5e-4,-0.13112 -0.63195,0.014 c -0.69047,0.0154 -2.24911,0.0705 -2.25848,0.0799 -0.003,0.003 -0.0244,0.60653 -0.047,1.3407 -0.0227,0.73417 -0.047,1.45445 -0.0542,1.60061 l -0.013,0.26575 0.0586,-0.0383 c 0.0322,-0.021 0.20548,-0.15279 0.38502,-0.2928 0.17954,-0.14 0.33309,-0.24701 0.34124,-0.23778 0.008,0.009 0.0775,0.17862 0.1542,0.37642 0.13696,0.35342 0.16437,0.41103 0.1955,0.41103 0.0253,0 0.80141,-1.1878 0.80141,-1.22652 0,-0.0429 -0.4391,-0.43747 -0.4617,-0.41487 -0.004,0.004 -0.0179,0.0545 -0.0296,0.11077 -0.0168,0.0814 -0.0188,0.0456 -0.01,-0.17505 0.006,-0.15255 0.0155,-0.28162 0.0207,-0.28684 0.005,-0.005 0.18184,0.1629 0.39251,0.37358 l 0.38304,0.38303 -0.0571,0.0863 c -0.0314,0.0475 -0.21169,0.28623 -0.40063,0.53061 -0.45667,0.59065 -0.45849,0.59317 -0.43893,0.60526 0.009,0.006 0.20634,0.0162 0.43775,0.0232 0.56927,0.0172 0.59544,0.021 0.59544,0.0852 0,0.0613 -0.0588,0.40054 -0.15523,0.89582 -0.039,0.20003 -0.0708,0.3697 -0.0708,0.37702 0,0.0213 -0.22124,-0.10898 -0.41103,-0.24205 l -0.17469,-0.12249 0.15414,0.0131 c 0.0848,0.007 0.18802,0.0181 0.22943,0.0241 l 0.0753,0.0109 0.0221,-0.1094 c 0.0464,-0.22939 0.1246,-0.70266 0.11736,-0.7099 -0.004,-0.004 -0.20523,0.0165 -0.44682,0.0461 -0.24158,0.0295 -0.49044,0.0588 -0.55303,0.065 l -0.11378,0.0114 -0.11036,-0.23366 c -0.0607,-0.12851 -0.14635,-0.30996 -0.19032,-0.40321 -0.044,-0.0932 -0.089,-0.16955 -0.1,-0.16955 -0.011,0 -0.14466,0.10392 -0.297,0.23094 -0.223,0.18592 -0.27879,0.24301 -0.28622,0.29286 -0.0185,0.12405 -0.13579,2.68431 -0.12387,2.70361 0.007,0.0109 0.0325,0.0153 0.0573,0.01 0.0248,-0.006 0.47964,-0.0608 1.01089,-0.12273 z m 0.40238,-4.01008 c 10e-4,-0.0239 0.006,-0.0288 0.0124,-0.0124 0.006,0.0148 0.005,0.0326 -0.002,0.0394 -0.007,0.007 -0.0117,-0.005 -0.0108,-0.0269 z m -18.60771,5.83317 c -0.007,-0.0876 -0.0174,-0.69566 -0.0233,-1.35125 -0.006,-0.65559 -0.0162,-1.3965 -0.0227,-1.64647 l -0.0118,-0.45447 0.40384,-0.0151 c 0.22211,-0.008 0.40674,-0.0119 0.41028,-0.008 0.006,0.006 -0.12397,0.72401 -0.13727,0.75886 -0.003,0.008 -0.0747,-0.026 -0.15924,-0.0757 -0.175,-0.10292 -0.19676,-0.10883 -0.16227,-0.0441 0.0389,0.073 0.28685,0.40588 0.30233,0.40588 0.0233,0 0.0593,-0.069 0.1958,-0.37488 0.0719,-0.16117 0.14762,-0.32783 0.16827,-0.37035 l 0.0376,-0.0773 0.0886,0.252 c 0.13317,0.37888 0.21382,0.57059 0.23986,0.57009 0.0271,-5.1e-4 0.49593,-0.32667 0.68914,-0.47938 0.0723,-0.0571 0.12138,-0.10724 0.10908,-0.11134 -0.0123,-0.004 -0.15651,0.0301 -0.32049,0.0761 -0.16399,0.046 -0.30774,0.0835 -0.31945,0.0835 -0.023,0 -0.12106,-0.18389 -0.1863,-0.34941 l -0.0405,-0.10272 0.12815,2.2e-4 c 0.0705,7e-5 0.2611,0.01 0.4236,0.0214 0.16249,0.0116 0.30049,0.0161 0.30667,0.01 0.0125,-0.0125 -0.0313,-0.32082 -0.0544,-0.38336 -0.0134,-0.0364 -0.03,-0.0297 -0.18876,0.0773 l -0.17401,0.11718 -0.2565,-0.0254 c -0.14108,-0.014 -0.25817,-0.0271 -0.26021,-0.0293 -0.002,-0.002 0.005,-0.0531 0.0163,-0.11328 0.0142,-0.078 0.0132,-0.11752 -0.003,-0.13752 -0.0128,-0.0154 -0.13879,-0.0666 -0.27995,-0.1136 -0.14116,-0.047 -0.25311,-0.0891 -0.24877,-0.0934 0.0236,-0.0236 3.06015,-0.13519 3.08289,-0.1133 0.009,0.008 -0.4686,0.70461 -1.06061,1.54725 -0.59201,0.84264 -1.0838,1.54407 -1.09286,1.55874 -0.022,0.0356 0.35931,0.0208 1.87429,-0.0726 2.37456,-0.14641 3.60419,-0.23083 3.6222,-0.24867 0.0204,-0.0202 -0.28018,-2.02574 -0.82656,-5.51591 l -0.1496,-0.95564 -0.19457,0.006 c -0.26972,0.008 -3.08843,0.0834 -4.2843,0.11491 -0.54255,0.0143 -0.98836,0.0251 -0.99068,0.0239 -0.0168,-0.009 0.15951,-1.33159 0.18061,-1.35486 0.01,-0.0106 0.1751,0.0403 0.38972,0.1199 0.24834,0.0922 0.38914,0.13432 0.42141,0.12622 0.0267,-0.007 0.24446,-0.10473 0.48402,-0.21788 0.23957,-0.11315 0.43708,-0.20324 0.43891,-0.20022 0.002,0.003 0.076,0.0934 0.16473,0.20074 0.23242,0.28117 0.36245,0.41103 0.41153,0.41103 0.0234,0 0.35201,-0.0504 0.73028,-0.11196 l 0.68777,-0.11197 0.0352,0.0452 c 0.0194,0.0249 0.13366,0.20526 0.25396,0.40091 0.1203,0.19565 0.22356,0.35089 0.22948,0.34498 0.0157,-0.0157 0.0431,-1.06805 0.0282,-1.08486 -0.007,-0.008 -0.33095,0.0315 -0.72007,0.0874 -0.38912,0.0559 -0.72438,0.10156 -0.74503,0.10156 -0.0265,0 0.0715,-0.13641 0.33371,-0.46453 0.2042,-0.25549 0.36807,-0.46774 0.36415,-0.47166 -0.0226,-0.0226 -1.18816,-0.26192 -1.20307,-0.24702 -0.01,0.01 0.26375,0.15258 0.55488,0.2896 l 0.21755,0.10239 -0.0537,0.0719 c -0.0726,0.0972 -0.50635,0.60173 -0.54468,0.63354 -0.0366,0.0304 -0.075,-0.0146 -0.29956,-0.35096 -0.0811,-0.12151 -0.15284,-0.22093 -0.15938,-0.22093 -0.0154,0 -0.35605,0.17155 -0.69868,0.35185 l -0.26963,0.14188 -0.24416,-0.0948 c -0.44458,-0.17259 -0.69525,-0.25747 -0.73196,-0.24788 -0.024,0.006 -0.0361,-0.002 -0.0358,-0.0245 0.001,-0.07 0.14148,-1.09739 0.15142,-1.10732 0.006,-0.006 2.54251,4e-5 5.63737,0.0127 3.09486,0.0127 5.94046,0.023 6.32356,0.0229 l 0.69655,-2.2e-4 -0.0135,0.21066 c -0.026,0.40649 -0.061,0.77581 -0.0736,0.77581 -0.007,0 -0.19735,-0.0508 -0.42303,-0.113 -0.22569,-0.0622 -0.43071,-0.11302 -0.45559,-0.11303 -0.0428,-3e-5 -0.28811,0.13545 -0.7236,0.39958 l -0.19341,0.1173 -0.29276,-0.29223 c -0.26876,-0.26828 -0.29756,-0.2912 -0.3512,-0.27951 -0.0321,0.007 -0.35798,0.0913 -0.72407,0.18737 -0.3661,0.096 -0.6731,0.17002 -0.68223,0.16437 -0.009,-0.006 -0.13363,-0.16721 -0.27666,-0.35904 -0.14302,-0.19184 -0.26915,-0.34316 -0.28028,-0.33628 -0.0125,0.008 -0.0155,0.0888 -0.008,0.2106 0.0304,0.48491 0.0592,0.81585 0.0722,0.83041 0.011,0.0122 1.34559,-0.28463 1.45411,-0.32347 0.0224,-0.008 -0.098,0.18272 -0.49257,0.78036 -0.0772,0.11693 -0.12802,0.21334 -0.11789,0.22367 0.01,0.01 0.27967,0.0491 0.59974,0.0869 0.67257,0.0795 0.61277,0.0744 0.61277,0.0521 0,-0.01 -0.15028,-0.0756 -0.33396,-0.1467 -0.52146,-0.20173 -0.47336,-0.1768 -0.4453,-0.23081 0.0134,-0.0257 0.1364,-0.20642 0.27335,-0.40147 l 0.24902,-0.35462 0.0378,0.0463 c 0.0208,0.0255 0.12945,0.15941 0.24151,0.29758 l 0.20375,0.25124 0.3442,-0.22154 c 0.18931,-0.12184 0.3967,-0.25656 0.46085,-0.29937 l 0.11666,-0.0779 0.47367,0.13549 c 0.26052,0.0745 0.48503,0.13549 0.49891,0.13549 0.0139,0 0.0557,-0.0296 0.093,-0.0657 0.0373,-0.0361 0.0677,-0.0569 0.0676,-0.0462 -5.5e-4,0.10769 -0.10079,1.27211 -0.11539,1.34306 l -0.0102,0.0494 -0.81572,-0.012 c -0.44865,-0.007 -1.65461,-0.0284 -2.67992,-0.0486 -1.02531,-0.0201 -1.86829,-0.0323 -1.87328,-0.0272 -0.005,0.005 0.11955,0.72613 0.27675,1.60213 0.1572,0.876 0.40642,2.27247 0.55382,3.10326 0.1474,0.83079 0.27529,1.53364 0.2842,1.5619 0.009,0.0283 0.0227,-0.41102 0.0305,-0.97619 0.0158,-1.13218 0.0518,-2.87146 0.0596,-2.87925 0.005,-0.005 0.58657,-0.0603 0.81223,-0.0771 0.12477,-0.009 0.12876,-0.008 0.11565,0.0348 -0.007,0.0244 -0.0687,0.21852 -0.13612,0.43139 -0.0674,0.21285 -0.11814,0.39141 -0.11277,0.39679 0.005,0.005 0.32754,-0.064 0.71591,-0.15412 0.38838,-0.0901 0.73388,-0.16966 0.76779,-0.1767 0.0351,-0.007 -0.009,0.0238 -0.10276,0.0722 -0.51527,0.26659 -0.75221,0.39407 -0.74529,0.40097 0.01,0.01 0.38216,-0.13063 0.88712,-0.3345 l 0.38845,-0.15684 0.38856,0.12903 c 0.21371,0.071 0.39333,0.12426 0.39918,0.11841 0.0104,-0.0104 -0.0695,-0.0599 -0.38923,-0.24121 -0.0882,-0.05 -0.15298,-0.0933 -0.14386,-0.0962 0.009,-0.003 0.20463,-0.0598 0.43447,-0.12645 0.22984,-0.0667 0.42839,-0.13173 0.44121,-0.14455 0.0174,-0.0174 0.008,-0.0205 -0.0377,-0.0121 -0.0335,0.006 -0.62515,0.085 -1.31465,0.17517 -0.6895,0.0902 -1.27564,0.16901 -1.30253,0.17519 l -0.0489,0.0113 0.0405,-0.0679 c 0.0223,-0.0373 0.12675,-0.20919 0.23216,-0.38193 0.11624,-0.19049 0.18424,-0.3215 0.17281,-0.33293 -0.0104,-0.0104 -0.10209,-0.0659 -0.20382,-0.12344 l -0.18496,-0.1046 1.4797,0.0137 c 0.81383,0.008 2.0762,0.0195 2.80526,0.0265 l 1.32556,0.0128 0.0128,1.03785 c 0.007,0.57081 0.019,1.76488 0.0266,2.65349 l 0.0138,1.61566 -0.0779,0.0131 c -0.0429,0.007 -0.17217,0.0303 -0.28735,0.0513 l -0.20942,0.0383 0.0475,-0.12565 c 0.0261,-0.0691 0.0626,-0.16145 0.081,-0.20522 0.0437,-0.10397 0.043,-0.14164 -0.003,-0.12897 -0.0437,0.0122 -0.82206,0.2397 -0.8671,0.25349 -0.0176,0.005 0.0676,-0.0448 0.18944,-0.11162 0.40939,-0.22444 0.32921,-0.20771 -0.28798,0.0601 l -0.33369,0.14479 -0.19387,-0.0228 c -0.10664,-0.0126 -0.2293,-0.0223 -0.27259,-0.0217 -0.0746,0.001 -0.0707,0.004 0.0736,0.0584 0.0837,0.0315 0.1426,0.0632 0.13076,0.0705 -0.0119,0.007 -0.12198,0.0495 -0.24476,0.0938 -0.12279,0.0442 -0.24996,0.0908 -0.28261,0.10355 -0.11115,0.0432 -0.0395,0.0436 0.14378,5.5e-4 0.10052,-0.0235 0.50644,-0.11612 0.90206,-0.20582 0.39561,-0.0897 0.74057,-0.16811 0.76658,-0.17423 0.0408,-0.01 0.0316,0.0108 -0.0672,0.14881 -0.063,0.0879 -0.12772,0.18403 -0.14391,0.21348 l -0.0294,0.0536 0.21993,0.0687 0.21992,0.0687 -0.0925,0.0149 c -0.0509,0.008 -1.32799,0.0156 -2.83807,0.0165 -1.51007,0.001 -2.83088,0.008 -2.93513,0.015 -0.18541,0.0132 -0.18929,0.0145 -0.17757,0.0612 0.01,0.038 0.003,0.0496 -0.0345,0.0569 -0.0256,0.005 -0.93896,0.0382 -2.02972,0.0736 -4.47511,0.14529 -7.04878,0.22597 -7.21602,0.22622 l -0.17717,2.9e-4 z m 14.28146,-1.14056 c 0.0104,-0.0109 0.0513,-1.69074 0.0639,-2.62548 l 0.0132,-0.97619 -0.15231,0.005 c -0.5099,0.0164 -2.41188,0.11931 -2.61152,0.14131 -0.11051,0.0122 -0.11693,0.016 -0.12811,0.0772 -0.0137,0.0752 -0.10958,1.24832 -0.11983,1.46698 -0.007,0.1384 -0.004,0.14899 0.0348,0.14893 0.0542,-8e-5 0.6489,-0.0363 0.87411,-0.0532 l 0.17469,-0.0131 0.30909,-0.30588 c 0.17001,-0.16823 0.31353,-0.30587 0.31895,-0.30587 0.006,0 0.10661,0.19426 0.22489,0.43169 0.11829,0.23743 0.224,0.42871 0.23493,0.42507 0.0109,-0.004 0.0397,-0.0985 0.064,-0.21076 0.0436,-0.20171 0.0442,-0.20304 0.0569,-0.11167 0.0238,0.17184 0.0603,0.72107 0.0487,0.73262 -0.006,0.006 -0.15585,-0.20682 -0.33231,-0.47361 -0.17646,-0.26679 -0.32809,-0.48507 -0.33693,-0.48507 -0.009,0 -0.14018,0.11182 -0.29186,0.24848 -0.15169,0.13667 -0.30463,0.27094 -0.33989,0.29838 l -0.0641,0.0499 -0.49079,-0.0179 c -0.2848,-0.0104 -0.4958,-0.0102 -0.50273,3.7e-4 -0.0224,0.0342 -0.12606,1.53435 -0.10801,1.56355 0.009,0.0153 0.46967,0.0177 1.53438,0.008 0.83649,-0.007 1.52313,-0.0159 1.52586,-0.0188 z m 8.36191,-5.61038 c 0.0194,-0.52281 0.0327,-0.67326 0.0594,-0.67313 0.0131,6e-5 0.0562,0.009 0.0958,0.0192 0.0396,0.0105 0.10958,0.0289 0.1556,0.0408 0.0819,0.0212 0.0847,0.025 0.13254,0.17754 l 0.0489,0.15587 0.12435,-0.0129 c 0.0684,-0.007 0.14816,-0.0174 0.17728,-0.0229 0.0468,-0.009 0.0643,0.007 0.15049,0.13667 0.0814,0.12239 0.10497,0.1449 0.1423,0.13575 0.0311,-0.008 0.0137,0.0167 -0.0575,0.0802 -0.0562,0.0501 -0.11055,0.0912 -0.12076,0.0912 -0.0102,0 -0.10585,-0.0472 -0.21253,-0.10487 -0.10667,-0.0577 -0.19893,-0.0999 -0.205,-0.0938 -0.0102,0.0102 0.42218,0.3426 0.44525,0.34228 0.006,-8e-5 0.11652,-0.0968 0.24638,-0.21493 0.12987,-0.11814 0.24203,-0.20821 0.24927,-0.20017 0.007,0.008 0.0245,0.0501 0.0384,0.0934 0.0232,0.0727 0.0214,0.0831 -0.0238,0.13359 -0.12279,0.13724 -0.13415,0.15899 -0.0478,0.0915 0.0452,-0.0353 0.12305,-0.1062 0.17296,-0.1575 l 0.0908,-0.0933 -0.0541,-0.0779 c -0.0297,-0.0429 -0.081,-0.11013 -0.11382,-0.14945 l -0.0597,-0.0715 -0.10538,0.0574 c -0.058,0.0316 -0.10538,0.0493 -0.10538,0.0395 0,-0.0202 0.13618,-0.2515 0.16581,-0.28165 0.0121,-0.0123 0.0508,0.0106 0.10406,0.0617 l 0.0849,0.0812 -0.0876,-0.17036 c -0.0482,-0.0937 -0.0978,-0.16695 -0.11032,-0.16278 -0.0125,0.004 -0.0728,0.10164 -0.13396,0.2166 -0.0612,0.11496 -0.11812,0.20902 -0.12655,0.20902 -0.008,0 -0.0452,-0.0465 -0.0816,-0.10334 -0.0457,-0.0713 -0.0767,-0.10027 -0.0998,-0.0934 -0.0868,0.0257 -0.31773,0.0735 -0.32414,0.0671 -0.004,-0.004 -0.0131,-0.064 -0.0204,-0.13351 -0.0152,-0.14528 0.012,-0.12918 -0.32085,-0.19033 -0.19179,-0.0352 -0.24148,-0.0513 -0.24148,-0.078 -1e-5,-0.0307 0.0745,-0.0332 0.84774,-0.0285 0.46626,0.003 0.95118,0.0106 1.07759,0.0173 l 0.22985,0.0122 -0.011,0.13678 c -0.006,0.0752 -0.0262,0.34024 -0.0449,0.58891 l -0.0339,0.45213 -1.05487,0.005 -1.05486,0.005 z"
       id="path1017"
       inkscape:connector-curvature="0" />
  </g>
</svg>
